<?xml version="1.0" encoding="utf-8"?>
<!-- Generator: Adobe Illustrator 22.0.0, SVG Export Plug-In . SVG Version: 6.00 Build 0)  -->
<svg version="1.1" id="Layer_1" xmlns="http://www.w3.org/2000/svg" xmlns:xlink="http://www.w3.org/1999/xlink" x="0px" y="0px"
	 viewBox="0 0 400 400" style="enable-background:new 0 0 400 400;" xml:space="preserve">
<style type="text/css">
	.st0{fill:#009C54;}
</style>
<path class="st0" d="M313.7,16.6c-13.3,3.5-26,8.2-37,12.4c-43.1,16.7-83.3,42.6-104.6,85c-12.1,24-25.4,68.4-18.4,98.3
	c55.2-53.6,152.9-122.3,195-147.8C285.5,122.7,142,238.9,57,313.3c-4.3,2.6-5.7-2.5-4.3-5.8c13.7-32.8,36.6-36.9,58.1-62.7
	c21.1-25.3,28.6-58.9,20.1-92.6c-5.2-20.6-17.7-47.4-33.9-60.1c-26-20.5-45.9,5.8-56.5,23.7c-5.6,9.4-11.9,22.3-14.8,34.1
	c-8.3,34.5-3.1,85.6,15.2,111.4c12.2-34.8,27.4-82.2,35.7-120.7C81.5,196.8,48.4,307.2,0,372.7c0.6,5.4,7.4,13.4,15.3,11.7
	c15.2-8.5,31.5-15.7,47.5-22.5c60.4-25.8,98.7,23.5,161,27.1c28.5,1.7,53.5-8.4,72.3-19.9c19.2-11.7,44.7-29.8,36.8-55.1
	c-6.6-21.4-27.5-35.2-52.2-43.6c-26.8-9.1-56.9-9.1-83.8-2.7c-21.8,5.2-38.2,13.4-55.1,26.3c-9.8,7.4-18.7,14.7-27.1,23.8
	c63.2-13.1,120.2-19,191.1,4.2c-113.6-16.3-191.3,7-234.2,20c-11.2,3.6-14.2,2.1-5.7-6.9c12.6-13.1,47.6-46.5,53-51
	c6.6-6.4,13.1-12.3,20-18.4c48.6-42.3,83-8,144.6-35.6c11-4.9,19.9-10.4,29.6-17.2c38.6-27.1,71.1-80.8,82.6-126.9
	C413.7,14.5,372.2,1.1,313.7,16.6z"/>
</svg>
