<?xml version="1.0" encoding="utf-8"?>
<!-- Generator: Adobe Illustrator 22.0.1, SVG Export Plug-In . SVG Version: 6.00 Build 0)  -->
<svg version="1.1" id="Layer_1" xmlns="http://www.w3.org/2000/svg" xmlns:xlink="http://www.w3.org/1999/xlink" x="0px" y="0px"
	 viewBox="0 0 35 40" style="enable-background:new 0 0 35 40;" xml:space="preserve">
<style type="text/css">
	.st0{fill:#231F20;}
</style>
<g>
	<g>
		<g>
			<path class="st0" d="M35.1,18.3L35.1,18.3C35.1,18.2,35.1,18.2,35.1,18.3c-0.1-1.2-1.7-2.2-4.2-2.8l-0.8,0.8
				c2.6,0.6,4.1,1.4,4.1,2.1l0,0c0,0.8-2.2,1.9-7,2.6c-2.9,0.4-6.2,0.7-9.7,0.7c-10.3,0-16.7-1.9-16.7-3.3l0,0
				c0-0.7,1.4-1.4,4.1-2.1l-0.8-0.8c-2.5,0.7-4.1,1.6-4.2,2.7c0,0,0,0,0,0.1l0,0l0,0l0,0c0,0,0,1.6,0.5,3.9v0.1v0.1
				c0.9,3.9,3.1,9.5,8.5,12.8l-0.3,1.1c-0.1,0.3,0,0.7,0.2,1c0.6,0.9,2.6,2.9,8.7,2.9s8.1-2.1,8.7-2.9c0.2-0.3,0.2-0.6,0.2-1
				l-0.3-1.1c5.4-3.2,7.6-8.8,8.4-12.7c0-0.1,0.1-0.2,0.1-0.3v-0.1C35.1,19.9,35.1,18.3,35.1,18.3L35.1,18.3L35.1,18.3z M33.6,22.2
				c-0.3,0.8-1.7,1.6-4,2.2c-0.2,0.1-0.4,0.3-0.3,0.6c0.1,0.2,0.2,0.3,0.4,0.3h0.1c1.4-0.4,2.5-0.8,3.2-1.3
				c-1.1,3.6-3.3,7.9-7.9,10.6l-0.3,0.2l0.5,1.8c0,0.1,0,0.2,0,0.3c-0.4,0.6-2.1,2.5-7.9,2.5s-7.5-1.9-7.9-2.5c0-0.1-0.1-0.2,0-0.3
				l0.5-1.8l-0.2-0.3C5.2,31.9,3,27.4,1.9,23.9c2.9,1.9,9.6,2.8,15.6,2.8c3.4,0,6.6-0.2,9.3-0.7c0.3,0,0.4-0.3,0.4-0.5
				c0-0.3-0.3-0.4-0.5-0.4c-2.7,0.4-5.8,0.7-9.2,0.7c-9.3,0-15.4-1.8-16.1-3.6c-0.2-0.9-0.3-1.7-0.4-2.3c2.6,1.8,9.6,2.7,16.5,2.7
				c3.5,0,6.9-0.2,9.8-0.7c2.4-0.4,5.2-1,6.7-2C34,20.5,33.8,21.3,33.6,22.2z"/>
		</g>
	</g>
	<path class="st0" d="M26.1,20.1l-0.2-1.4c-0.1-0.3,0-0.7,0.2-0.9l6-5.8l-8.4-1.2c-0.3-0.1-0.4-0.3-0.5-0.4l-0.1-0.1l-3.7-7.5
		l-2.7,5.5l-0.6-1.1L18.7,2c0.3-0.5,1.2-0.5,1.4,0L24,9.8c0,0,0.1,0.1,0.1,0.1l8.5,1.2c0.2,0,0.4,0.2,0.5,0.3l0.1,0.1v0.2
		c0,0.1,0,0.5-0.2,0.7l-6.2,6l0.3,1.5L26.1,20.1z M32.5,12.1C32.5,12.1,32.5,12.1,32.5,12.1L32.5,12.1L32.5,12.1z"/>
	<path class="st0" d="M6.1,12.9c0,0-0.6-0.7-0.6-1.1c0-0.3,0.1-0.7,0.8-0.7l4.7-0.7l-0.5,1.1L6.7,12c0,0.1,0.1,0.1,0.1,0.1L6.1,12.9
		z"/>
	<path class="st0" d="M19,20.6l-0.3-1.4c-0.1-0.1-0.1-0.3,0-0.5c0-0.1,0.1-0.2,0.2-0.3l4-3.9l-5.6-0.8c-0.2-0.1-0.3-0.2-0.4-0.3
		l-0.1-0.1l-2.4-5l-2.4,5c-0.2,0.3-0.4,0.5-0.7,0.5l-5.4,0.8l4,3.9c0.2,0.2,0.2,0.4,0.2,0.6l-0.2,1.1l-1-0.2L9,19.1l-4.3-4.2
		c-0.2-0.2-0.2-0.4-0.2-0.6c0-0.1,0-0.6,0.7-0.6l5.9-0.8l2.7-5.4c0.2-0.5,1-0.5,1.3,0l2.7,5.4c0,0,0,0,0,0l5.9,0.8
		c0.2,0,0.4,0.2,0.5,0.3l0.1,0.1v0.2c0,0.1,0,0.4-0.2,0.6L19.7,19l0.2,1.4L19,20.6z M23.4,14.6c0,0,0.1,0,0.1,0L23.4,14.6z
		 M11.2,12.8C11.1,12.8,11.1,12.8,11.2,12.8L11.2,12.8C11.2,12.8,11.2,12.8,11.2,12.8z"/>
</g>
</svg>
