<?xml version="1.0" encoding="utf-8"?>
<!-- Generator: Adobe Illustrator 22.0.1, SVG Export Plug-In . SVG Version: 6.00 Build 0)  -->
<svg version="1.1" id="Layer_1" xmlns="http://www.w3.org/2000/svg" xmlns:xlink="http://www.w3.org/1999/xlink" x="0px" y="0px"
	 viewBox="0 0 35 40" style="enable-background:new 0 0 35 40;" xml:space="preserve">
<style type="text/css">
	.st0{fill:#231F20;}
</style>
<path class="st0" d="M22.4,7.9h-9.8c-0.4,0-0.8-0.3-0.8-0.8V1.8c0-0.4,0.3-0.8,0.8-0.8h9.8c0.4,0,0.8,0.3,0.8,0.8v2.7
	C23.2,4.7,23,5,22.7,5s-0.5-0.2-0.5-0.5V2h-9.4v4.9h9.4V6.2c0-0.3,0.2-0.5,0.5-0.5s0.5,0.2,0.5,0.5v0.9C23.2,7.6,22.8,7.9,22.4,7.9z
	"/>
<path class="st0" d="M23.7,39H11.3c-1,0-1.8-0.8-1.8-1.8v-18c0-3.7,1.1-7.1,3.3-10.1V7.8c0-0.3,0.2-0.5,0.5-0.5s0.5,0.2,0.5,0.5v1.5
	l-0.1,0.3c-2.1,2.8-3.2,6.1-3.2,9.6v18c0,0.4,0.3,0.8,0.8,0.8h12.5c0.4,0,0.8-0.3,0.8-0.8V21.6c0-0.3,0.2-0.5,0.5-0.5
	s0.5,0.2,0.5,0.5v15.6C25.5,38.2,24.7,39,23.7,39z"/>
<path class="st0" d="M25,19.7c-0.3,0-0.5-0.2-0.5-0.5c0-3.5-1.1-6.8-3.2-9.6l-0.1-0.3V7.8c0-0.3,0.2-0.5,0.5-0.5s0.5,0.2,0.5,0.5
	v1.3c2.2,2.9,3.3,6.4,3.3,10.1C25.5,19.5,25.3,19.7,25,19.7z"/>
<path class="st0" d="M20.9,35.7h-7c-0.8,0-1.5-0.7-1.5-1.5c0-0.3,0.2-0.5,0.5-0.5s0.5,0.2,0.5,0.5c0,0.3,0.2,0.5,0.5,0.5h7
	c0.3,0,0.5-0.2,0.5-0.5v-14c0-0.3-0.2-0.5-0.5-0.5h-7c-0.3,0-0.5,0.2-0.5,0.5V31c0,0.3-0.2,0.5-0.5,0.5s-0.5-0.2-0.5-0.5V20.2
	c0-0.8,0.7-1.5,1.5-1.5h7c0.8,0,1.5,0.7,1.5,1.5v14C22.4,35.1,21.7,35.7,20.9,35.7z"/>
</svg>
