<svg xmlns="http://www.w3.org/2000/svg" width="13.82" height="30" viewBox="0 0 13.82 30">
  <metadata><?xpacket begin="﻿" id="W5M0MpCehiHzreSzNTczkc9d"?>
<x:xmpmeta xmlns:x="adobe:ns:meta/" x:xmptk="Adobe XMP Core 5.6-c140 79.160451, 2017/05/06-01:08:21        ">
   <rdf:RDF xmlns:rdf="http://www.w3.org/1999/02/22-rdf-syntax-ns#">
      <rdf:Description rdf:about=""/>
   </rdf:RDF>
</x:xmpmeta>
                                                                                                    
                                                                                                    
                                                                                                    
                                                                                                    
                                                                                                    
                                                                                                    
                                                                                                    
                                                                                                    
                                                                                                    
                                                                                                    
                                                                                                    
                                                                                                    
                                                                                                    
                                                                                                    
                                                                                                    
                                                                                                    
                                                                                                    
                                                                                                    
                                                                                                    
                                                                                                    
                           
<?xpacket end="w"?></metadata>
<defs>
    <style>
      .cls-1 {
        fill: #644733;
      }

      .cls-1, .cls-2 {
        fill-rule: evenodd;
      }

      .cls-2 {
        fill: #fff1d8;
      }
    </style>
  </defs>
  <path class="cls-1" d="M1035.5,559.427a0.593,0.593,0,0,0-.59.588v17.9a0.59,0.59,0,0,0,1.18,0v-17.9A0.593,0.593,0,0,0,1035.5,559.427Zm6.3,8.26a6.716,6.716,0,0,0-6.89,6.876,0.611,0.611,0,0,0,.17.427,0.591,0.591,0,0,0,.42.172h0.01a7.879,7.879,0,0,0,4.93-1.96,7.8,7.8,0,0,0,1.96-4.917,0.611,0.611,0,0,0-.17-0.426A0.6,0.6,0,0,0,1041.8,567.687Zm-2.2,4.682a6.25,6.25,0,0,1-3.45,1.551,5.347,5.347,0,0,1,5.01-4.991A6.269,6.269,0,0,1,1039.6,572.369Zm2.2-11.2a6.716,6.716,0,0,0-6.89,6.876,0.611,0.611,0,0,0,.17.427,0.591,0.591,0,0,0,.42.172h0.01a7.879,7.879,0,0,0,4.93-1.96,7.8,7.8,0,0,0,1.96-4.916A0.585,0.585,0,0,0,1041.8,561.167Zm-2.2,4.682a6.257,6.257,0,0,1-3.45,1.551,5.347,5.347,0,0,1,5.01-4.991A6.221,6.221,0,0,1,1039.6,565.849Zm2.2-11.2a6.716,6.716,0,0,0-6.89,6.876,0.611,0.611,0,0,0,.17.427,0.591,0.591,0,0,0,.42.172h0.01a7.879,7.879,0,0,0,4.93-1.96,7.8,7.8,0,0,0,1.96-4.917,0.611,0.611,0,0,0-.17-0.426A0.6,0.6,0,0,0,1041.8,554.647Zm-2.2,4.682a6.25,6.25,0,0,1-3.45,1.551,5.347,5.347,0,0,1,5.01-4.991A6.269,6.269,0,0,1,1039.6,559.329Zm-10.4,8.358a0.57,0.57,0,0,0-.43.172,0.611,0.611,0,0,0-.17.426,7.8,7.8,0,0,0,1.96,4.917,7.879,7.879,0,0,0,4.93,1.96h0.01a0.591,0.591,0,0,0,.42-0.172,0.611,0.611,0,0,0,.17-0.427A6.716,6.716,0,0,0,1029.2,567.687Zm2.2,4.682a6.277,6.277,0,0,1-1.56-3.442,6.205,6.205,0,0,1,3.45,1.553,6.269,6.269,0,0,1,1.56,3.44A6.25,6.25,0,0,1,1031.4,572.369Zm-2.2-11.2a0.578,0.578,0,0,0-.43.172,0.611,0.611,0,0,0-.17.427,7.8,7.8,0,0,0,1.96,4.916,7.879,7.879,0,0,0,4.93,1.96h0.01a0.591,0.591,0,0,0,.42-0.172,0.611,0.611,0,0,0,.17-0.427A6.716,6.716,0,0,0,1029.2,561.167Zm2.2,4.682a6.277,6.277,0,0,1-1.56-3.442,5.351,5.351,0,0,1,5.01,4.993A6.264,6.264,0,0,1,1031.4,565.849Zm-2.2-11.2a0.567,0.567,0,0,0-.43.172,0.611,0.611,0,0,0-.17.426,7.8,7.8,0,0,0,1.96,4.917,7.879,7.879,0,0,0,4.93,1.96h0.01a0.591,0.591,0,0,0,.42-0.172,0.611,0.611,0,0,0,.17-0.427A6.716,6.716,0,0,0,1029.2,554.647Zm2.2,4.682a6.277,6.277,0,0,1-1.56-3.442,6.205,6.205,0,0,1,3.45,1.553,6.269,6.269,0,0,1,1.56,3.44A6.25,6.25,0,0,1,1031.4,559.329Zm3.68-10.659a6.681,6.681,0,0,0,0,9.726,0.582,0.582,0,0,0,.84,0,6.681,6.681,0,0,0,0-9.726A0.6,0.6,0,0,0,1035.08,548.67Zm0.42,8.4a5.322,5.322,0,1,1,1.34-3.532A6.228,6.228,0,0,1,1035.5,557.065Z" transform="translate(-1028.59 -548.5)"/>
  <path id="Shape_17_copy" data-name="Shape 17 copy" class="cls-2" d="M1039.6,572.369a6.25,6.25,0,0,1-3.45,1.551,5.347,5.347,0,0,1,5.01-4.991A6.269,6.269,0,0,1,1039.6,572.369Zm0-6.52a6.257,6.257,0,0,1-3.45,1.551,5.347,5.347,0,0,1,5.01-4.991A6.221,6.221,0,0,1,1039.6,565.849Zm0-6.52a6.25,6.25,0,0,1-3.45,1.551,5.347,5.347,0,0,1,5.01-4.991A6.269,6.269,0,0,1,1039.6,559.329Zm-8.2,13.04a6.277,6.277,0,0,1-1.56-3.442,6.205,6.205,0,0,1,3.45,1.553,6.269,6.269,0,0,1,1.56,3.44A6.25,6.25,0,0,1,1031.4,572.369Zm0-6.52a6.277,6.277,0,0,1-1.56-3.442,5.351,5.351,0,0,1,5.01,4.993A6.264,6.264,0,0,1,1031.4,565.849Zm0-6.52a6.277,6.277,0,0,1-1.56-3.442,6.205,6.205,0,0,1,3.45,1.553,6.269,6.269,0,0,1,1.56,3.44A6.25,6.25,0,0,1,1031.4,559.329Zm4.1-2.264a5.322,5.322,0,1,1,1.34-3.532A6.228,6.228,0,0,1,1035.5,557.065Z" transform="translate(-1028.59 -548.5)"/>
</svg>
