<svg xmlns="http://www.w3.org/2000/svg" xmlns:xlink="http://www.w3.org/1999/xlink" preserveAspectRatio="xMidYMid" width="397.157" height="217.613" viewBox="0 0 65.531 35.906">
  <defs>
    <style>
      .cls-1 {
        fill: #009c54;
        fill-rule: evenodd;
      }
    </style>
  </defs>
  <path d="M55.143,8.278 C55.143,7.820 55.140,7.633 55.132,7.173 C55.124,6.715 55.108,5.876 55.078,5.472 C55.049,5.068 55.003,4.707 54.943,4.385 C54.885,4.068 54.809,3.820 54.717,3.643 C54.626,3.468 54.495,3.321 54.323,3.198 C54.150,3.075 54.377,3.009 54.075,2.995 C53.773,2.981 53.874,3.023 53.712,3.127 C53.555,3.228 53.432,3.359 53.340,3.518 C53.249,3.677 53.175,3.904 53.113,4.200 C53.051,4.496 53.008,4.833 52.978,5.210 C52.949,5.590 52.932,5.995 52.924,6.429 C52.916,6.862 52.914,7.703 52.914,8.138 C52.914,8.575 52.916,8.156 52.924,8.593 C52.932,9.028 52.949,9.440 52.978,9.825 C53.008,10.212 53.051,10.561 53.113,10.873 C53.175,11.187 53.249,11.434 53.340,11.617 C53.432,11.802 53.555,11.966 53.712,12.110 C53.873,12.257 53.773,12.361 54.075,12.428 C54.377,12.496 54.150,12.494 54.323,12.418 C54.496,12.343 54.626,12.230 54.717,12.080 C54.809,11.929 54.884,11.700 54.943,11.398 C55.003,11.097 55.049,10.749 55.078,10.355 C55.108,9.958 55.124,9.533 55.132,9.077 C55.140,8.620 55.143,8.738 55.143,8.278 M65.518,35.887 L65.518,21.951 L62.139,21.951 L62.139,28.843 L57.950,21.951 L55.169,21.951 L55.169,35.887 L58.585,35.887 L58.585,28.767 L62.628,35.887 L65.518,35.887 ZM51.052,35.887 L51.052,32.948 L44.938,32.948 L44.938,29.994 L50.022,29.994 L50.022,27.947 L45.000,27.947 L45.000,24.970 L51.052,24.970 L51.052,21.951 L41.059,21.951 L41.059,35.887 L51.052,35.887 ZM38.051,35.887 L38.051,32.972 L32.001,32.972 L32.001,29.968 L37.050,29.968 L37.050,27.977 L32.001,27.977 L32.001,24.986 L38.051,24.986 L38.051,21.949 L28.105,21.949 L28.105,35.887 L38.051,35.887 ZM21.396,26.391 C21.396,26.745 21.271,27.249 21.021,27.527 C20.772,27.805 20.423,27.944 19.974,27.944 L17.918,27.944 L17.918,24.942 L19.974,24.942 C20.423,24.942 20.772,25.081 21.021,25.360 C21.271,25.638 21.396,26.036 21.396,26.391 ZM25.442,35.915 L22.561,29.925 C22.823,29.786 23.085,29.612 23.347,29.403 C23.609,29.195 23.843,28.944 24.048,28.653 C24.254,28.362 24.419,28.027 24.544,27.648 C24.669,27.268 24.731,26.851 24.731,26.395 C24.731,25.839 24.635,25.219 24.441,24.700 C24.248,24.182 23.958,23.720 23.571,23.315 C23.185,22.910 22.708,22.585 22.140,22.338 C21.573,22.091 20.921,21.968 20.185,21.968 L14.052,21.968 L14.052,35.915 L17.980,35.915 L17.980,30.876 L19.287,30.876 L21.644,35.915 L25.442,35.915 ZM11.036,29.794 L11.036,28.034 L5.999,28.034 L5.999,29.969 L8.043,29.969 L8.043,30.121 C8.043,30.349 8.006,31.381 7.931,31.672 C7.856,31.963 7.731,32.197 7.557,32.374 C7.407,32.539 7.233,32.668 7.033,32.764 C6.834,32.858 6.184,32.906 5.835,32.906 C5.536,32.906 5.208,32.852 4.990,32.744 C4.772,32.637 4.600,32.501 4.475,32.336 C4.401,32.235 4.332,32.121 4.270,31.995 C4.207,31.868 4.157,31.685 4.120,31.445 C4.082,31.204 4.051,30.891 4.026,30.505 C4.001,30.120 3.989,29.425 3.989,28.805 C3.989,28.185 4.001,27.739 4.026,27.353 C4.051,26.967 4.082,26.658 4.120,26.423 C4.157,26.189 4.207,26.009 4.270,25.882 C4.332,25.756 4.401,25.642 4.475,25.541 C4.600,25.376 4.772,25.237 4.990,25.123 C5.208,25.010 5.536,24.953 5.835,24.953 C6.259,24.953 6.602,25.032 6.864,25.190 C7.126,25.348 7.413,25.591 7.725,25.920 L9.951,23.662 C9.652,23.359 9.358,23.099 9.072,22.884 C8.785,22.669 8.482,22.495 8.164,22.362 C7.846,22.230 7.497,22.134 7.117,22.078 C6.736,22.021 6.309,21.992 5.835,21.992 C5.024,21.992 3.556,22.122 2.969,22.381 C2.383,22.641 1.847,23.017 1.361,23.510 C1.011,23.865 0.743,24.247 0.556,24.658 C0.369,25.070 0.235,25.503 0.154,25.958 C0.073,26.414 0.029,26.885 0.023,27.372 C0.017,27.859 0.014,28.299 0.014,28.805 C0.014,29.311 0.017,29.999 0.023,30.486 C0.029,30.973 0.073,31.445 0.154,31.900 C0.235,32.355 0.369,32.789 0.556,33.200 C0.743,33.611 1.011,33.994 1.361,34.348 C1.847,34.841 2.390,35.218 2.988,35.477 C3.587,35.736 5.049,35.866 5.835,35.866 C6.633,35.866 7.494,35.736 8.105,35.477 C8.716,35.218 9.227,34.829 9.726,34.310 C9.976,34.044 10.185,33.763 10.353,33.465 C10.522,33.168 10.656,32.839 10.755,32.479 C10.855,32.118 10.927,31.717 10.970,31.274 C11.014,30.831 11.036,30.338 11.036,29.794 ZM13.131,14.775 C13.131,13.770 13.131,12.765 13.131,11.760 C13.131,10.755 13.131,9.560 13.131,8.554 C12.241,8.709 10.831,8.862 9.946,9.015 C9.946,10.077 9.946,11.325 9.946,12.385 C9.946,13.445 9.946,14.503 9.946,15.563 C8.878,15.933 7.120,16.308 6.051,16.682 C6.051,13.965 6.051,11.248 6.051,8.531 C6.051,5.815 6.051,2.760 6.051,0.042 C7.120,0.039 8.878,0.035 9.946,0.030 C9.946,1.049 9.946,1.936 9.946,2.952 C9.946,3.967 9.946,5.331 9.946,6.346 C10.831,6.240 12.241,6.133 13.131,6.025 C13.131,5.061 13.131,3.751 13.131,2.786 C13.131,1.822 13.131,0.987 13.131,0.022 C14.199,0.018 15.909,0.015 16.983,0.012 C16.983,2.282 16.983,4.890 16.983,7.158 C16.983,9.426 16.983,11.695 16.983,13.963 C15.909,14.228 14.199,14.488 13.131,14.775 ZM19.093,13.493 C19.093,11.356 19.093,8.890 19.093,6.753 C19.093,4.617 19.093,2.142 19.093,0.004 C21.558,0.000 25.531,-0.003 28.002,-0.006 C28.002,0.712 28.002,2.128 28.002,2.846 C26.599,2.864 24.363,2.893 22.966,2.920 C22.966,3.851 22.966,4.091 22.966,5.023 C24.169,4.971 24.829,4.922 26.038,4.875 C26.038,5.595 26.038,6.642 26.038,7.360 C24.829,7.426 24.169,7.498 22.966,7.571 C22.966,8.538 22.966,9.341 22.966,10.306 C24.363,10.187 26.572,10.069 27.975,9.982 C27.975,10.701 27.975,11.910 27.975,12.626 C25.504,12.842 21.558,13.126 19.093,13.493 ZM30.055,12.823 C30.055,10.854 30.055,8.200 30.055,6.233 C30.055,4.265 30.055,1.960 30.055,-0.008 C31.123,-0.008 32.921,-0.008 33.989,-0.008 C33.989,1.602 33.989,3.549 33.989,5.161 C33.989,6.771 33.989,8.288 33.989,9.898 C35.386,9.928 36.625,9.961 38.028,10.036 C38.028,10.754 38.028,12.251 38.028,12.968 C35.557,12.842 32.520,12.781 30.055,12.823 ZM40.058,12.775 C40.058,10.738 40.058,8.483 40.058,6.446 C40.058,4.409 40.058,2.035 40.058,-0.003 C41.126,-0.001 42.934,0.000 44.003,0.002 C44.003,1.723 44.003,3.785 44.003,5.508 C44.003,7.231 44.003,8.953 44.003,10.676 C45.400,10.845 46.818,11.030 48.221,11.247 C48.221,12.043 48.221,13.059 48.221,13.855 C45.750,13.417 42.523,13.053 40.058,12.775 ZM39.506,17.745 C38.990,17.729 38.536,17.714 38.185,17.697 C38.109,17.697 38.044,17.636 38.038,17.557 C38.033,17.474 38.094,17.403 38.176,17.397 C38.673,17.364 39.328,17.338 40.061,17.310 C42.783,17.204 46.601,17.056 47.869,16.240 L47.869,16.241 C47.917,16.210 47.980,16.209 48.030,16.243 C48.224,16.374 48.338,16.496 48.401,16.636 C48.447,16.739 48.464,16.843 48.462,16.963 C48.623,16.983 48.762,17.029 48.876,17.089 L48.889,17.095 C49.089,17.203 49.215,17.358 49.255,17.492 C49.264,17.520 49.266,17.550 49.257,17.580 C49.218,17.715 49.091,17.873 48.889,17.982 L48.888,17.982 C48.772,18.044 48.629,18.093 48.462,18.114 C48.464,18.233 48.447,18.338 48.401,18.440 C48.338,18.580 48.225,18.701 48.034,18.832 C47.987,18.866 47.922,18.869 47.869,18.836 C46.522,17.972 42.167,17.831 39.506,17.745 ZM27.917,17.818 C27.565,17.835 27.110,17.850 26.592,17.867 C23.924,17.952 19.556,18.093 18.205,18.958 C18.152,18.991 18.087,18.987 18.040,18.953 C17.848,18.822 17.735,18.701 17.671,18.561 L17.671,18.561 L17.671,18.561 C17.626,18.460 17.609,18.355 17.610,18.235 C17.443,18.214 17.299,18.165 17.183,18.103 L17.183,18.103 C16.980,17.994 16.852,17.836 16.813,17.701 C16.805,17.671 16.806,17.641 16.815,17.613 C16.855,17.479 16.982,17.324 17.183,17.216 L17.195,17.210 C17.309,17.151 17.449,17.104 17.610,17.084 C17.609,16.964 17.626,16.860 17.671,16.758 L17.677,16.746 C17.741,16.611 17.855,16.492 18.044,16.364 C18.094,16.330 18.157,16.331 18.205,16.362 L18.205,16.362 C19.477,17.177 23.306,17.325 26.036,17.431 C26.771,17.460 27.428,17.485 27.927,17.519 C28.008,17.524 28.070,17.596 28.065,17.678 C28.059,17.758 27.994,17.818 27.917,17.818 ZM35.069,13.757 C34.854,13.814 34.649,13.890 34.472,13.959 C33.775,14.230 33.126,14.650 32.781,15.339 C32.586,15.728 32.371,16.449 32.483,16.934 C33.375,16.064 34.954,14.949 35.634,14.534 C34.613,15.478 32.295,17.364 30.922,18.572 C30.852,18.614 30.830,18.532 30.853,18.477 C31.073,17.945 31.443,17.878 31.792,17.460 C32.133,17.050 32.253,16.504 32.117,15.957 C32.033,15.623 31.831,15.188 31.569,14.982 C31.149,14.649 30.828,15.076 30.656,15.367 C30.566,15.519 30.463,15.729 30.417,15.920 C30.283,16.479 30.368,17.309 30.662,17.728 C30.859,17.164 31.105,16.394 31.239,15.770 C31.317,16.680 30.782,18.473 30.000,19.536 C30.010,19.624 30.119,19.754 30.248,19.726 C30.494,19.588 30.757,19.471 31.016,19.360 C31.992,18.942 32.611,19.741 33.618,19.800 C34.078,19.827 34.482,19.664 34.786,19.478 C35.096,19.287 35.508,18.994 35.381,18.583 C35.274,18.235 34.936,18.012 34.538,17.876 C34.104,17.728 33.618,17.728 33.183,17.832 C32.831,17.916 32.567,18.049 32.293,18.258 C32.135,18.379 31.990,18.496 31.854,18.645 C32.876,18.432 33.796,18.336 34.943,18.714 C33.108,18.450 31.851,18.828 31.159,19.039 C30.977,19.098 30.929,19.073 31.067,18.928 C31.270,18.714 31.836,18.173 31.923,18.099 C32.029,17.996 32.134,17.899 32.246,17.801 C33.032,17.114 33.588,17.671 34.583,17.224 C34.761,17.143 34.905,17.055 35.061,16.945 C35.685,16.504 36.210,15.633 36.396,14.884 C36.685,13.722 36.014,13.504 35.069,13.757 ZM59.039,8.530 C59.039,9.080 59.031,9.333 59.023,9.950 C59.015,10.567 58.977,11.175 58.909,11.768 C58.842,12.361 58.729,12.596 58.564,13.091 C58.400,13.584 58.159,13.978 57.841,14.259 C57.468,14.588 57.006,14.821 56.466,14.959 C55.921,15.099 54.976,15.040 54.075,14.794 C53.622,14.671 53.346,14.526 52.990,14.354 C52.634,14.183 51.885,13.994 51.603,13.791 C51.329,13.594 51.078,13.393 50.858,13.179 C50.641,12.968 50.445,12.741 50.259,12.504 C49.949,12.110 49.702,11.984 49.537,11.488 C49.373,10.999 49.259,10.488 49.191,9.961 C49.124,9.435 49.086,8.910 49.078,8.387 C49.070,7.863 49.067,7.973 49.067,7.508 C49.067,7.045 49.070,6.147 49.078,5.624 C49.086,5.102 49.124,4.586 49.191,4.075 C49.259,3.562 49.373,3.081 49.537,2.637 C49.702,2.186 49.947,1.797 50.259,1.466 C50.443,1.270 50.642,1.090 50.858,0.930 C51.078,0.767 51.327,0.620 51.603,0.488 C51.883,0.355 52.634,0.250 52.990,0.177 C53.346,0.103 53.622,0.063 54.075,0.063 C54.976,0.063 55.922,0.213 56.466,0.523 C57.007,0.832 57.472,1.205 57.841,1.655 C58.162,2.047 58.400,2.521 58.564,3.060 C58.729,3.599 58.842,4.179 58.909,4.792 C58.977,5.409 59.015,6.433 59.023,7.052 C59.031,7.671 59.039,7.981 59.039,8.530 Z" class="cls-1"/>
</svg>
