<svg xmlns="http://www.w3.org/2000/svg" width="145" height="101.532" viewBox="0 0 145 101.532">
  <metadata><?xpacket begin="﻿" id="W5M0MpCehiHzreSzNTczkc9d"?>
<x:xmpmeta xmlns:x="adobe:ns:meta/" x:xmptk="Adobe XMP Core 5.6-c140 79.160451, 2017/05/06-01:08:21        ">
   <rdf:RDF xmlns:rdf="http://www.w3.org/1999/02/22-rdf-syntax-ns#">
      <rdf:Description rdf:about=""/>
   </rdf:RDF>
</x:xmpmeta>
                                                                                                    
                                                                                                    
                                                                                                    
                                                                                                    
                                                                                                    
                                                                                                    
                                                                                                    
                                                                                                    
                                                                                                    
                                                                                                    
                                                                                                    
                                                                                                    
                                                                                                    
                                                                                                    
                                                                                                    
                                                                                                    
                                                                                                    
                                                                                                    
                                                                                                    
                                                                                                    
                           
<?xpacket end="w"?></metadata>
<defs>
    <style>
      .cls-1 {
        fill: #009c54;
        fill-rule: evenodd;
      }
    </style>
  </defs>
  <path class="cls-1" d="M634.046,135.83v-9.66h4.45v1.736h-2.524v2.185h2.171v1.737h-2.171v2.266H638.5v1.736h-4.45Zm11.668,0-0.312-1.506h-2.226l-0.312,1.506h-2.008l2.483-9.66h1.9l2.483,9.66h-2.008Zm-1.425-6.824-0.746,3.581h1.492Zm8.506-1.1v7.924h-1.926v-7.924H649.24V126.17h5.183v1.736h-1.628Zm11,7.924-1.181-3.758H661.98v3.758h-1.927v-9.66h2.754c2.1,0,2.687,1.1,2.687,2.944a2.651,2.651,0,0,1-1.1,2.537l1.411,4.179H663.8Zm-1-7.924H661.98v2.429h0.814c0.732,0,.773-0.665.773-1.221S663.526,127.906,662.794,127.906Zm5.942,7.924v-9.66h1.926v9.66h-1.926Zm7.814,0.109a2.534,2.534,0,0,1-2.116-.977c-0.679-.828-0.72-2.1-0.72-3.962s0.041-3.134.72-3.962a2.534,2.534,0,0,1,2.116-.977,2.627,2.627,0,0,1,1.9.719,3.2,3.2,0,0,1,.827,2.158h-1.926a0.94,0.94,0,0,0-.8-1.14,0.662,0.662,0,0,0-.651.38,15.562,15.562,0,0,0,0,5.644,0.662,0.662,0,0,0,.651.38,0.924,0.924,0,0,0,.8-1.126v-1h-0.8v-1.561h2.727v2.456C679.277,134.894,678.205,135.939,676.55,135.939Zm9.334-.109v-4.043h-1.6v4.043h-1.927v-9.66h1.927v3.88h1.6v-3.88h1.927v9.66h-1.927Zm8.344-7.924v7.924H692.3v-7.924h-1.628V126.17h5.183v1.736h-1.628Zm3.8,7.924v-2.035h2.035v2.035h-2.035Zm12.943-.936a2.571,2.571,0,0,1-2.117.936h-2.727v-9.66h2.727a2.571,2.571,0,0,1,2.117.936c0.678,0.773.719,2.1,0.719,3.881S711.647,134.121,710.969,134.894Zm-1.438-6.567a0.767,0.767,0,0,0-.719-0.421h-0.76v6.188h0.76a0.767,0.767,0,0,0,.719-0.421,8.4,8.4,0,0,0,.23-2.686A8.215,8.215,0,0,0,709.531,128.327Zm9.876,6.635a2.781,2.781,0,0,1-4.233,0c-0.678-.828-0.719-2.1-0.719-3.962s0.041-3.134.719-3.962a2.781,2.781,0,0,1,4.233,0c0.679,0.828.72,2.1,0.72,3.962S720.086,134.134,719.407,134.962Zm-1.465-6.784a0.748,0.748,0,0,0-1.3,0,15.622,15.622,0,0,0,0,5.644,0.748,0.748,0,0,0,1.3,0A15.562,15.562,0,0,0,717.942,128.178Zm11.749,7.652-1.18-3.758h-0.638v3.758h-1.927v-9.66H728.7c2.1,0,2.687,1.1,2.687,2.944a2.651,2.651,0,0,1-1.1,2.537l1.411,4.179h-2.008Zm-1-7.924h-0.814v2.429h0.814c0.732,0,.774-0.665.774-1.221S729.419,127.906,728.687,127.906Zm5.941,7.924v-9.66h1.928v9.66h-1.928Zm7.815,0.109a2.535,2.535,0,0,1-2.116-.977c-0.678-.828-0.719-2.1-0.719-3.962s0.041-3.134.719-3.962a2.535,2.535,0,0,1,2.116-.977,2.624,2.624,0,0,1,1.9.719,3.2,3.2,0,0,1,.828,2.158h-1.927a0.94,0.94,0,0,0-.8-1.14,0.664,0.664,0,0,0-.651.38,15.562,15.562,0,0,0,0,5.644,0.664,0.664,0,0,0,.651.38,0.924,0.924,0,0,0,.8-1.126v-1h-0.8v-1.561h2.728v2.456C745.171,134.894,744.1,135.939,742.443,135.939Zm9.334-.109v-4.043h-1.6v4.043H748.25v-9.66h1.926v3.88h1.6v-3.88H753.7v9.66h-1.927Zm8.344-7.924v7.924H758.2v-7.924h-1.629V126.17h5.183v1.736h-1.628Zm3.8,7.924v-2.035h2.035v2.035h-2.035ZM752.99,51.84c0-1.021-.006-2.046-0.024-3.071s-0.055-1.984-.122-2.885a21.954,21.954,0,0,0-.3-2.421,6.017,6.017,0,0,0-.511-1.652,2.786,2.786,0,0,0-.889-0.991,6.561,6.561,0,0,0-2.358-.453,4.344,4.344,0,0,0-1.976.293,2.539,2.539,0,0,0-.839.873,5.3,5.3,0,0,0-.511,1.519,17.8,17.8,0,0,0-.305,2.251c-0.067.846-.1,1.749-0.121,2.715s-0.025,1.934-.025,2.9,0.006,1.938.025,2.911,0.055,1.887.121,2.745a19.908,19.908,0,0,0,.305,2.335,6.678,6.678,0,0,0,.511,1.656,3.752,3.752,0,0,0,.839,1.1,5.344,5.344,0,0,0,1.976.709,5.793,5.793,0,0,0,2.358-.022,1.882,1.882,0,0,0,.889-0.754,4.777,4.777,0,0,0,.511-1.519,19.636,19.636,0,0,0,.3-2.325c0.067-.883.1-1.83,0.122-2.848s0.024-2.042.024-3.067M773,112.012V82h-7.012V97.171L756.481,82h-6.457v30.014H757V97l10.034,15.01H773Zm-31.96,0v-6.994H728V100h10.992V94H728V88.968h13.041V82H720.055v30.014h20.988Zm-29.074,0V105h-13.96v-5h11.978V94H698.009V89h13.96V81.994H691v30.018h20.969ZM674.715,91.968a3.035,3.035,0,0,1-3.207,3.044H667V88.924h4.512a3.028,3.028,0,0,1,2.363.93A3.059,3.059,0,0,1,674.715,91.968Zm8.99,20.044-6.5-12.431a11.608,11.608,0,0,0,1.772-1.163,8.127,8.127,0,0,0,1.583-1.67,8.345,8.345,0,0,0,1.118-2.241,8.8,8.8,0,0,0,.422-2.79,10.1,10.1,0,0,0-.654-3.594,8.941,8.941,0,0,0-1.962-3.086,9.821,9.821,0,0,0-3.229-2.177,11.093,11.093,0,0,0-4.41-.824h-11.86v29.976H667V100.934h2.824l5.317,11.078h8.568Zm-32.738-13.15v-3.85h-11.9v5.964h4.47v0.338a6.969,6.969,0,0,1-.253,1.734,3.361,3.361,0,0,1-.844,1.564,3.763,3.763,0,0,1-1.181.866,4.445,4.445,0,0,1-1.857.317,5.849,5.849,0,0,1-2.128-.359,3.183,3.183,0,0,1-1.16-.909,4.951,4.951,0,0,1-.465-0.761,4.384,4.384,0,0,1-.337-1.226q-0.128-.8-0.211-2.092t-0.085-3.361c0-1.381.028-2.376,0.085-3.236s0.126-1.55.211-2.072a4.355,4.355,0,0,1,.337-1.2,4.962,4.962,0,0,1,.465-0.761,3.384,3.384,0,0,1,1.16-.93,5.572,5.572,0,0,1,2.128-.38,4.5,4.5,0,0,1,2.321.528,9.7,9.7,0,0,1,1.941,1.628l5.022-5.031a17.732,17.732,0,0,0-1.983-1.733,9.556,9.556,0,0,0-2.047-1.163A10.026,10.026,0,0,0,642.3,82.1a19.942,19.942,0,0,0-2.891-.19,10.942,10.942,0,0,0-8.357,3.382,8.9,8.9,0,0,0-1.814,2.558,11.969,11.969,0,0,0-.908,2.9,19.115,19.115,0,0,0-.3,3.15c-0.014,1.085-.021,2.066-0.021,3.194s0.007,2.233.021,3.318a19.118,19.118,0,0,0,.3,3.15,11.978,11.978,0,0,0,.908,2.9,8.891,8.891,0,0,0,1.814,2.557,11.636,11.636,0,0,0,3.672,2.516,11.84,11.84,0,0,0,4.685.867,12.273,12.273,0,0,0,4.769-.867,11.678,11.678,0,0,0,3.839-2.6,9.833,9.833,0,0,0,1.414-1.881,9.6,9.6,0,0,0,.907-2.2,15.739,15.739,0,0,0,.486-2.684Q650.967,100.68,650.967,98.862Zm4.991-31.99V53.429c-2.008.346-4.046,0.687-6.041,1.029v14.17c-2.41.824-4.527,1.66-6.937,2.492V35.092c2.41-.007,4.527-0.015,6.937-0.026V48.372c2-.238,4.033-0.475,6.041-0.717V35.048l7.032-.022V65.064C660.568,65.654,658.368,66.234,655.958,66.872Zm15.027-3.587V35.007l17-.022v4.8c-3.164.041-6.787,0.1-9.939,0.164v5.931c2.713-.115,5.3-0.227,8.028-0.331v4.8c-2.726.148-5.315,0.308-8.028,0.472V57.28c3.152-.263,6.775-0.527,9.939-0.72v4.794C682.413,61.833,676.547,62.468,670.985,63.285Zm23.076-2.295V34.981H701V56.215c3.152,0.067,6.818.141,9.982,0.309v4.79C705.405,61.034,699.623,60.9,694.061,60.99Zm22.967,0.94V34.992L724.007,35V57.741c3.151,0.375,6.8.788,9.969,1.27v5.325C728.4,63.359,722.589,62.55,717.028,61.93ZM714.53,72.7c-0.947-.029-1.778-0.057-2.421-0.087a0.271,0.271,0,0,1-.017-0.542c0.911-.061,2.112-0.107,3.455-0.159,4.99-.192,11.986-0.46,14.31-1.936h0a0.269,0.269,0,0,1,.3,0,1.759,1.759,0,0,1,.68.712,1.35,1.35,0,0,1,.112.591,2.25,2.25,0,0,1,.758.228l0.023,0.011a1.341,1.341,0,0,1,.673.719,0.27,0.27,0,0,1,0,.159,1.332,1.332,0,0,1-.675.727h0a2.256,2.256,0,0,1-.781.239,1.35,1.35,0,0,1-.112.591,1.753,1.753,0,0,1-.673.708,0.271,0.271,0,0,1-.3.009C727.389,73.113,719.407,72.858,714.53,72.7Zm-24.64-.087c-0.642.031-1.473,0.058-2.42,0.087-4.877.155-12.859,0.41-15.328,1.975a0.271,0.271,0,0,1-.3-0.009,1.753,1.753,0,0,1-.673-0.708h0a1.357,1.357,0,0,1-.111-0.59,2.237,2.237,0,0,1-.78-0.239h0A1.332,1.332,0,0,1,669.6,72.4a0.27,0.27,0,0,1,0-.159,1.345,1.345,0,0,1,.673-0.719l0.023-.011a2.25,2.25,0,0,1,.758-0.228,1.356,1.356,0,0,1,.111-0.59l0.011-.022a1.783,1.783,0,0,1,.67-0.692,0.269,0.269,0,0,1,.3,0h0c2.324,1.475,9.321,1.744,14.31,1.936,1.343,0.051,2.543.1,3.455,0.159A0.271,0.271,0,0,1,689.89,72.616Zm14.72-7.283a11.38,11.38,0,0,0-1.173.395,5.912,5.912,0,0,0-3.321,2.7,5.491,5.491,0,0,0-.586,3.125,43.8,43.8,0,0,1,6.19-4.7c-2,1.848-6.559,5.544-9.257,7.911-0.138.082-.18-0.078-0.136-0.185,0.434-1.044,1.161-1.174,1.845-1.994a3.29,3.29,0,0,0,.639-2.944,3.842,3.842,0,0,0-1.076-1.912c-0.826-.652-1.457.185-1.794,0.755a4.238,4.238,0,0,0-.469,1.084,5.048,5.048,0,0,0,.481,3.543,35.571,35.571,0,0,0,1.133-3.837,13.53,13.53,0,0,1-2.433,7.38,0.445,0.445,0,0,0,.487.371,16.06,16.06,0,0,1,1.508-.717c1.917-.819,3.133.747,5.111,0.862a3.972,3.972,0,0,0,2.3-.632c0.608-.373,1.417-0.948,1.168-1.752a2.388,2.388,0,0,0-1.656-1.385,4.895,4.895,0,0,0-2.661-.087,4.406,4.406,0,0,0-1.75.836,6.3,6.3,0,0,0-.861.758,10.863,10.863,0,0,1,6.067.135,16.024,16.024,0,0,0-7.433.637c-0.357.115-.452,0.066-0.181-0.218,0.4-.418,1.511-1.478,1.682-1.623,0.208-.2.415-0.392,0.635-0.584,1.543-1.346,2.636-.255,4.59-1.132a5.381,5.381,0,0,0,.939-0.546,7.553,7.553,0,0,0,2.623-4.036C707.785,65.264,706.466,64.837,704.61,65.333Zm55.371-12.375c0,1.225-.019,2.521-0.037,3.9a40.122,40.122,0,0,1-.255,4.051,17.842,17.842,0,0,1-.779,3.643,5.859,5.859,0,0,1-1.631,2.6,7.425,7.425,0,0,1-3.1,1.56,12.125,12.125,0,0,1-5.394-.368,18.717,18.717,0,0,1-2.935-.981,14.255,14.255,0,0,1-2.142-1.255,14.8,14.8,0,0,1-1.679-1.363,15.238,15.238,0,0,1-1.351-1.5,9.731,9.731,0,0,1-1.631-2.959,17.686,17.686,0,0,1-.779-3.4,31.025,31.025,0,0,1-.255-3.509c-0.018-1.166-.025-2.261-0.025-3.3s0.007-2.128.025-3.293a29.682,29.682,0,0,1,.255-3.45,14.832,14.832,0,0,1,.779-3.2,7.578,7.578,0,0,1,1.631-2.61,9.726,9.726,0,0,1,3.03-2.176,9.389,9.389,0,0,1,2.142-.694,15.921,15.921,0,0,1,2.935-.253,12.188,12.188,0,0,1,5.394,1.025,10.977,10.977,0,0,1,3.1,2.522,9.021,9.021,0,0,1,1.631,3.13,20.92,20.92,0,0,1,.779,3.858q0.228,2.062.255,4.13C759.962,50.437,759.981,51.736,759.981,52.958Z" transform="translate(-628 -34.406)"/>
</svg>
