<?xml version="1.0" encoding="utf-8"?>
<!-- Generator: Adobe Illustrator 22.0.0, SVG Export Plug-In . SVG Version: 6.00 Build 0)  -->
<svg version="1.1" id="Layer_1" xmlns="http://www.w3.org/2000/svg" xmlns:xlink="http://www.w3.org/1999/xlink" x="0px" y="0px"
	 viewBox="0 0 40 40" style="enable-background:new 0 0 40 40;" xml:space="preserve">
<style type="text/css">
	.st0{fill:#2A2A2A;}
</style>
<path class="st0" d="M22.2,18c-0.1,0.4-0.3,0.8-0.6,1.1c0,0.4,0,0.6,0,0.6c0.1,0,0.2,0,0.4,0c0.2,0,0.4,0,0.6,0l4.2-4.2
	c0.2-1.1,0-2.1,0-2.2c-0.4,0.1-0.9,0.2-1.2,0.3l-3.2,3.2C22.3,17.5,22.3,18,22.2,18z"/>
<path class="st0" d="M19,20.2l-3,3c0,0.1,0.1,0.1,0.1,0.2c0.5,0.5,1,0.9,1.7,1.1l2.4-2.4C20,21.4,19.6,20.8,19,20.2z"/>
<path class="st0" d="M14,25.2L13,26.1c0.1,0.7,0.2,1.6,0.6,2.5l2.7-2.7C15.6,25.6,14.8,25.3,14,25.2z"/>
<path class="st0" d="M20.8-0.1c-11,0-20,9-20,20c0,11,9,20,20,20c11,0,20-9,20-20C40.8,8.9,31.8-0.1,20.8-0.1z M20.8,37.8
	c-4.5,0-8.7-1.7-11.8-4.5l3.3-3.3c-0.4-0.8-0.6-1.6-0.8-2.3l-4,4c-2.8-3.1-4.5-7.3-4.5-11.8c0-9.8,8-17.8,17.8-17.8
	c4.5,0,8.7,1.7,11.8,4.5l-5.1,5.1c0.1,0,0.2,0.1,0.3,0.2c0.4,0.3,0.7,0.7,0.7,1.2c0,0.1,0,0.3,0.1,0.6l5.5-5.5
	c2.8,3.1,4.5,7.3,4.5,11.8C38.6,29.8,30.6,37.8,20.8,37.8z"/>
<path class="st0" d="M28.7,27.1c0-0.1-0.1-0.2-0.1-0.3c-0.1-0.1-0.2-0.1-0.3-0.1c-7.8,0.9-7.2,7.6-7.2,7.7c0,0.2,0.1,0.3,0.3,0.3
	c0.4,0,0.8,0.1,1.2,0.1c1.8,0,3.3-0.6,4.3-1.7C28.9,30.8,28.7,27.2,28.7,27.1z"/>
<path class="st0" d="M13,24.7c-0.1,0-0.2,0-0.3,0.1c-0.1,0.1-0.1,0.2-0.1,0.3c0,0.2-0.1,3.7,2,5.9c1,1.1,2.4,1.6,4.1,1.6
	c0,0,0,0,0,0c0.5,0,1,0,1.5-0.1c0.2,0,0.3-0.2,0.3-0.3C20.6,32,20.8,25.2,13,24.7z"/>
<path class="st0" d="M14.6,18c-0.1,0-0.2,0-0.3,0.1c-0.1,0.1-0.1,0.2-0.1,0.3c0,0.1-0.2,3.3,1.7,5.3c0.9,1,2.2,1.5,3.7,1.5
	c0,0,0,0,0,0c0.4,0,0.7,0,1.1-0.1c0.2,0,0.3-0.2,0.3-0.3C21,24.6,21.4,18.6,14.6,18z"/>
<path class="st0" d="M21.4,26.9c0,0.2,0.2,0.3,0.3,0.3c0.2,0,0.5,0,0.7,0c1.7,0,3-0.5,4-1.6c1.8-2.1,1.5-5.3,1.4-5.4
	c0-0.1-0.1-0.2-0.1-0.2c-0.1-0.1-0.2-0.1-0.3-0.1C20.7,20.9,21.4,26.8,21.4,26.9z"/>
<path class="st0" d="M21.3,19.7c0,0.2,0.2,0.3,0.3,0.3c0.1,0,0.2,0,0.4,0c1.7,0,3-0.5,3.9-1.6c1.7-2,1.2-5.1,1.2-5.2
	c0-0.1-0.1-0.2-0.1-0.2c-0.1-0.1-0.2-0.1-0.3-0.1C20.4,14.2,21.3,19.7,21.3,19.7z"/>
<path class="st0" d="M22.1,5.2C22,5,21.8,5,21.7,5.2c-0.1,0.1-2.2,1.9-2.2,4.3c-0.1,2.4,1.9,4.3,2,4.3c0.1,0.1,0.2,0.1,0.2,0.1
	c0.1,0,0.2,0,0.2-0.1c0.1-0.1,2.2-1.9,2.2-4.3C24.2,7.1,22.2,5.2,22.1,5.2z M21.3,9.2c-0.5-0.1-0.8-0.7-0.7-1.4
	c0.1-0.7,0.7-1.1,1.2-1c0.5,0.1,0.8,0.7,0.7,1.4C22.3,8.9,21.8,9.3,21.3,9.2z"/>
<path class="st0" d="M15.5,10.8c-0.1,0-0.2,0-0.3,0.1c-0.1,0.1-0.1,0.1-0.2,0.2c0,0.1-0.5,3.3,1.1,5.3c0.9,1.1,2.3,1.6,4,1.6h0
	c0.1,0,0.1,0,0.2,0c0.2,0,0.3-0.1,0.3-0.3C20.8,17.7,21.8,12.2,15.5,10.8z M17.1,14c-0.4,0.2-1-0.1-1.2-0.6
	c-0.3-0.5-0.1-1.1,0.3-1.3c0.4-0.2,1,0.1,1.2,0.6C17.6,13.2,17.5,13.8,17.1,14z"/>
</svg>
