<?xml version="1.0" encoding="utf-8"?>
<!-- Generator: Adobe Illustrator 22.0.0, SVG Export Plug-In . SVG Version: 6.00 Build 0)  -->
<svg version="1.1" id="Layer_1" xmlns="http://www.w3.org/2000/svg" xmlns:xlink="http://www.w3.org/1999/xlink" x="0px" y="0px"
	 viewBox="0 0 660 660" style="enable-background:new 0 0 660 660;" xml:space="preserve">
<style type="text/css">
	.st0{fill:#494949;}
	.st1{fill:#F2F2F2;}
	.st2{fill:#F2F2F2;stroke:#494949;stroke-width:4;stroke-miterlimit:22.9256;}
	.st3{fill:#363F40;}
	.st4{fill:#009B53;}
	.st5{fill:#FFFFFF;}
	.st6{font-family:'DINPro-CondensedBlack';}
	.st7{font-size:2.382px;}
	.st8{font-size:1.0558px;}
</style>
<g>
	<rect x="172.6" y="384" class="st0" width="314.8" height="64"/>
	<g>
		<g>
			<g>
				<g>
					<path class="st1" d="M255.3,365.6c-3.3,0-6.1-2.7-6.1-6.1V278c0-3.3,2.7-6.1,6.1-6.1h114.1c3.3,0,6.1,2.7,6.1,6.1v81.5
						c0,3.3-2.7,6.1-6.1,6.1H255.3z"/>
					<path class="st0" d="M369.4,274c2.2,0,4.1,1.8,4.1,4.1v81.5c0,2.2-1.8,4.1-4.1,4.1H255.3c-2.2,0-4.1-1.8-4.1-4.1V278
						c0-2.2,1.8-4.1,4.1-4.1H369.4 M369.4,270H255.3c-4.5,0-8.1,3.6-8.1,8.1v81.5c0,4.5,3.6,8.1,8.1,8.1h114.1
						c4.5,0,8.1-3.6,8.1-8.1V278C377.5,273.6,373.9,270,369.4,270L369.4,270z"/>
				</g>
			</g>
			<g>
				<line class="st2" x1="326.6" y1="365.2" x2="330.7" y2="385.6"/>
			</g>
			<g>
				<line class="st2" x1="294.1" y1="385.6" x2="298.2" y2="365.2"/>
			</g>
			<g>
				<line class="st2" x1="285.9" y1="386" x2="338.9" y2="386"/>
			</g>
			<g>
				<rect x="310.4" y="355.5" class="st3" width="4.1" height="4.1"/>
			</g>
			<g>
				<path class="st4" d="M259.4,347.3h105.9v-65.2H259.4V347.3z"/>
			</g>
			<circle class="st5" cx="312.4" cy="314.7" r="25.7"/>
			<text transform="matrix(1 0 0 1 300.6256 325.7594)" class="st4 st6 st7">E</text>
			<text transform="matrix(1 0 0 1 301.9381 325.7594)" class="st4 st6 st7">A</text>
			<text transform="matrix(1 0 0 1 303.3776 325.7594)" class="st4 st6 st7">T </text>
			<text transform="matrix(1 0 0 1 305.193 325.7594)" class="st4 st6 st7">R</text>
			<text transform="matrix(1 0 0 1 306.7174 325.7594)" class="st4 st6 st7">I</text>
			<text transform="matrix(1 0 0 1 307.6413 325.7594)" class="st4 st6 st7">G</text>
			<text transform="matrix(1 0 0 1 309.109 325.7594)" class="st4 st6 st7">H</text>
			<text transform="matrix(1 0 0 1 310.652 325.7594)" class="st4 st6 st7">T</text>
			<text transform="matrix(1 0 0 1 311.8669 325.7594)" class="st4 st6 st7">. </text>
			<text transform="matrix(1 0 0 1 313.2819 325.7594)" class="st4 st6 st7">D</text>
			<text transform="matrix(1 0 0 1 314.7936 325.7594)" class="st4 st6 st7">O </text>
			<text transform="matrix(1 0 0 1 316.7614 325.7594)" class="st4 st6 st7">R</text>
			<text transform="matrix(1 0 0 1 318.2858 325.7594)" class="st4 st6 st7">I</text>
			<text transform="matrix(1 0 0 1 319.2116 325.7594)" class="st4 st6 st7">G</text>
			<text transform="matrix(1 0 0 1 320.6774 325.7594)" class="st4 st6 st7">H</text>
			<text transform="matrix(1 0 0 1 322.2213 325.7594)" class="st4 st6 st7">T</text>
			<text transform="matrix(1 0 0 1 323.4362 325.7594)" class="st4 st6 st7">.</text>
			<path class="st4" d="M322.3,309.6c0-0.2,0-0.4,0-0.6c0-0.2,0-0.4,0-0.6c0-0.2,0-0.3-0.1-0.5c0-0.1-0.1-0.3-0.1-0.3
				c0-0.1-0.1-0.1-0.2-0.2c-0.1-0.1-0.2-0.1-0.3-0.1c-0.1,0-0.2,0-0.3,0.1c-0.1,0-0.1,0.1-0.2,0.2c0,0.1-0.1,0.2-0.1,0.3
				c0,0.1,0,0.3-0.1,0.5c0,0.2,0,0.4,0,0.5c0,0.2,0,0.4,0,0.6c0,0.2,0,0.4,0,0.6c0,0.2,0,0.4,0,0.6c0,0.2,0,0.3,0.1,0.5
				c0,0.1,0.1,0.3,0.1,0.3c0,0.1,0.1,0.2,0.2,0.2c0.1,0.1,0.2,0.1,0.3,0.1c0.1,0,0.2,0,0.3,0c0.1,0,0.1-0.1,0.2-0.2
				c0-0.1,0.1-0.2,0.1-0.3c0-0.1,0-0.3,0.1-0.5c0-0.2,0-0.4,0-0.6C322.3,310,322.3,309.8,322.3,309.6 M326.6,321.7v-6h-1.5v3l-1.9-3
				h-1.3v6h1.5v-3l1.9,3H326.6z M320.1,321.7v-1.3h-2.6v-1.1h2.2V318h-2.2v-1h2.6v-1.3H316v6H320.1z M314.2,321.7v-1.3h-2.6v-1.1
				h2.2V318h-2.2v-1h2.6v-1.3h-4.1v6H314.2z M306.8,317.6c0,0.2-0.1,0.3-0.2,0.4c-0.1,0.1-0.3,0.2-0.5,0.2h-0.8V317h0.8
				c0.2,0,0.4,0.1,0.5,0.2C306.7,317.3,306.8,317.5,306.8,317.6 M308.6,321.7l-1.3-2.5c0.1-0.1,0.2-0.1,0.4-0.2
				c0.1-0.1,0.2-0.2,0.3-0.3c0.1-0.1,0.2-0.3,0.2-0.4c0.1-0.2,0.1-0.4,0.1-0.6c0-0.2,0-0.5-0.1-0.7c-0.1-0.2-0.2-0.4-0.4-0.6
				c-0.2-0.2-0.4-0.3-0.6-0.4c-0.3-0.1-0.6-0.2-0.9-0.2h-2.4v6h1.5v-2.2h0.5l1.1,2.2H308.6z M302.1,319.1v-0.8h-2.3v1.2h0.8v0.1
				c0,0.1,0,0.2-0.1,0.3c0,0.1-0.1,0.2-0.2,0.3c-0.1,0.1-0.1,0.1-0.2,0.2c-0.1,0-0.2,0.1-0.4,0.1c-0.1,0-0.3,0-0.4-0.1
				c-0.1,0-0.2-0.1-0.2-0.2c0,0-0.1-0.1-0.1-0.2c0-0.1-0.1-0.1-0.1-0.2c0-0.1,0-0.2,0-0.4c0-0.2,0-0.4,0-0.7c0-0.3,0-0.5,0-0.7
				c0-0.2,0-0.3,0-0.4c0-0.1,0-0.2,0.1-0.2c0-0.1,0.1-0.1,0.1-0.2c0.1-0.1,0.1-0.1,0.2-0.2c0.1-0.1,0.2-0.1,0.4-0.1
				c0.2,0,0.3,0,0.5,0.1c0.1,0.1,0.2,0.2,0.4,0.3l1-1c-0.1-0.1-0.3-0.3-0.4-0.3c-0.1-0.1-0.3-0.2-0.4-0.2c-0.1-0.1-0.3-0.1-0.5-0.1
				c-0.2,0-0.4,0-0.6,0c-0.4,0-0.7,0.1-0.9,0.2c-0.3,0.1-0.5,0.3-0.7,0.5c-0.2,0.2-0.3,0.3-0.4,0.5c-0.1,0.2-0.1,0.4-0.2,0.6
				c0,0.2-0.1,0.4-0.1,0.6c0,0.2,0,0.4,0,0.7c0,0.2,0,0.4,0,0.7c0,0.2,0,0.4,0.1,0.6c0,0.2,0.1,0.4,0.2,0.6c0.1,0.2,0.2,0.4,0.4,0.5
				c0.2,0.2,0.5,0.4,0.7,0.5c0.3,0.1,0.6,0.2,0.9,0.2c0.4,0,0.7-0.1,1-0.2c0.3-0.1,0.5-0.3,0.8-0.5c0.1-0.1,0.2-0.2,0.3-0.4
				c0.1-0.1,0.1-0.3,0.2-0.4c0-0.2,0.1-0.3,0.1-0.5C302.1,319.5,302.1,319.3,302.1,319.1 M303,312.6v-1.3v-1.3
				c-0.4,0.1-0.8,0.1-1.2,0.2v1.4v1.4c-0.5,0.2-1,0.3-1.5,0.5v-3.6v-3.6c0.5,0,1,0,1.5,0v1.4v1.4c0.4,0,0.8-0.1,1.2-0.1v-1.3v-1.3
				c0.5,0,1,0,1.5,0v3v3C303.9,312.4,303.4,312.5,303,312.6 M306,311.9V309v-2.9c1.1,0,2.2,0,3.4,0v1c-0.6,0-1.3,0-1.9,0v1.2
				c0.5,0,1.1,0,1.6-0.1v1c-0.5,0-1.1,0.1-1.6,0.1v1.3c0.6-0.1,1.3-0.1,1.9-0.1v1C308.2,311.6,307.1,311.7,306,311.9 M310.7,311.5
				v-2.6v-2.6h1.5v2.2v2.2c0.6,0,1.3,0,1.9,0.1v1C312.9,311.5,311.8,311.4,310.7,311.5 M315.3,311.6v-2.7v-2.7c0.5,0,1,0,1.5,0v2.3
				v2.3c0.6,0.1,1.3,0.2,1.9,0.3v1.1C317.6,311.9,316.4,311.8,315.3,311.6 M314.8,313.8c-0.2,0-0.4,0-0.5,0c0,0-0.1,0-0.1-0.1
				c0,0,0-0.1,0.1-0.1c0.2,0,0.4,0,0.7,0c1,0,2.4-0.1,2.9-0.4l0,0c0,0,0,0,0.1,0c0.1,0,0.1,0.1,0.1,0.1c0,0,0,0.1,0,0.1
				c0.1,0,0.1,0,0.2,0l0,0c0.1,0,0.1,0.1,0.1,0.1c0,0,0,0,0,0c0,0-0.1,0.1-0.1,0.1l0,0c0,0-0.1,0-0.2,0c0,0,0,0.1,0,0.1
				c0,0.1-0.1,0.1-0.1,0.1c0,0,0,0-0.1,0C317.3,313.9,315.7,313.8,314.8,313.8 M309.8,313.8c-0.1,0-0.3,0-0.5,0
				c-1,0-2.6,0.1-3.1,0.4c0,0,0,0-0.1,0c-0.1,0-0.1-0.1-0.1-0.1l0,0l0,0c0,0,0-0.1,0-0.1c-0.1,0-0.1,0-0.2,0l0,0
				c-0.1,0-0.1-0.1-0.1-0.1c0,0,0,0,0,0c0,0,0.1-0.1,0.1-0.1l0,0c0,0,0.1,0,0.2,0c0,0,0-0.1,0-0.1l0,0c0,0,0.1-0.1,0.1-0.1
				c0,0,0,0,0.1,0l0,0c0.5,0.3,1.9,0.3,2.9,0.4c0.3,0,0.5,0,0.7,0C309.8,313.7,309.9,313.7,309.8,313.8
				C309.9,313.8,309.8,313.8,309.8,313.8 M312.8,312.3c-0.1,0-0.2,0.1-0.2,0.1c-0.3,0.1-0.5,0.3-0.7,0.5c-0.1,0.2-0.2,0.4-0.1,0.6
				c0.4-0.3,1-0.8,1.2-0.9c-0.4,0.4-1.3,1.1-1.9,1.6c0,0,0,0,0,0c0.1-0.2,0.2-0.2,0.4-0.4c0.1-0.2,0.2-0.4,0.1-0.6
				c0-0.1-0.1-0.3-0.2-0.4c-0.2-0.1-0.3,0-0.4,0.2c0,0.1-0.1,0.1-0.1,0.2c-0.1,0.2,0,0.5,0.1,0.7c0.1-0.2,0.2-0.5,0.2-0.8
				c0,0.4-0.2,1.1-0.5,1.5c0,0,0,0.1,0.1,0.1c0.1-0.1,0.2-0.1,0.3-0.1c0.4-0.2,0.6,0.1,1,0.2c0.2,0,0.3-0.1,0.5-0.1
				c0.1-0.1,0.3-0.2,0.2-0.4c0-0.1-0.2-0.2-0.3-0.3c-0.2-0.1-0.4-0.1-0.5,0c-0.1,0-0.2,0.1-0.4,0.2c-0.1,0-0.1,0.1-0.2,0.2
				c0.4-0.1,0.8-0.1,1.2,0c-0.7-0.1-1.2,0-1.5,0.1c-0.1,0-0.1,0,0,0c0.1-0.1,0.3-0.3,0.3-0.3c0,0,0.1-0.1,0.1-0.1
				c0.3-0.3,0.5-0.1,0.9-0.2c0.1,0,0.1-0.1,0.2-0.1c0.2-0.2,0.5-0.5,0.5-0.8C313.4,312.3,313.1,312.2,312.8,312.3 M323.8,309.8
				c0,0.2,0,0.5,0,0.8c0,0.3,0,0.5-0.1,0.8c0,0.3-0.1,0.5-0.2,0.7c-0.1,0.2-0.2,0.4-0.3,0.5c-0.2,0.1-0.4,0.3-0.6,0.3
				c-0.2,0.1-0.6,0-1-0.1c-0.2-0.1-0.4-0.1-0.5-0.2c-0.2-0.1-0.3-0.2-0.4-0.3c-0.1-0.1-0.2-0.2-0.3-0.3c-0.1-0.1-0.2-0.2-0.3-0.3
				c-0.1-0.2-0.3-0.4-0.3-0.6c-0.1-0.2-0.1-0.4-0.2-0.7c0-0.2,0-0.5-0.1-0.7c0-0.2,0-0.5,0-0.7c0-0.2,0-0.4,0-0.7
				c0-0.2,0-0.5,0.1-0.7c0-0.2,0.1-0.4,0.2-0.6c0.1-0.2,0.2-0.4,0.3-0.5c0.1-0.1,0.2-0.2,0.3-0.2c0.1-0.1,0.2-0.1,0.3-0.2
				c0.1-0.1,0.3-0.1,0.4-0.1c0.2,0,0.3-0.1,0.5-0.1c0.4,0,0.7,0.1,1,0.2c0.2,0.1,0.5,0.3,0.6,0.5c0.1,0.2,0.3,0.4,0.3,0.6
				c0.1,0.2,0.1,0.5,0.2,0.8c0,0.3,0,0.6,0.1,0.8C323.8,309.3,323.8,309.6,323.8,309.8"/>
			<g>
				<g>
					<g>
						<g>
							<path class="st1" d="M367.3,385.3c-4.1,0-7.5-3.4-7.5-7.5v-71.8c0-4.1,3.4-7.5,7.5-7.5h35.9c4.1,0,7.5,3.4,7.5,7.5v71.8
								c0,4.1-3.4,7.5-7.5,7.5H367.3z"/>
							<path class="st0" d="M403.2,300.4c3,0,5.5,2.5,5.5,5.5v71.8c0,3-2.5,5.5-5.5,5.5h-35.9c-3,0-5.5-2.5-5.5-5.5v-71.8
								c0-3,2.5-5.5,5.5-5.5H403.2 M403.2,296.4h-35.9c-5.3,0-9.5,4.3-9.5,9.5v71.8c0,5.3,4.3,9.5,9.5,9.5h35.9
								c5.3,0,9.5-4.3,9.5-9.5v-71.8C412.7,300.7,408.5,296.4,403.2,296.4L403.2,296.4z"/>
						</g>
					</g>
					<g>
						<path class="st4" d="M367.3,372.2h35.9v-58h-35.9V372.2z"/>
					</g>
					<g>
						<rect x="382.5" y="377.7" class="st3" width="5.5" height="2.8"/>
					</g>
					<g>
						<rect x="375.6" y="304.5" class="st3" width="2.8" height="2.8"/>
					</g>
					<g>
						<rect x="381.1" y="304.5" class="st3" width="13.8" height="2.8"/>
					</g>
				</g>
			</g>
			<circle class="st5" cx="385.2" cy="340.4" r="11.4"/>
			<text transform="matrix(1 0 0 1 380.0338 345.3434)" class="st4 st6 st8">E</text>
			<text transform="matrix(1 0 0 1 380.6149 345.3434)" class="st4 st6 st8">A</text>
			<text transform="matrix(1 0 0 1 381.2526 345.3434)" class="st4 st6 st8">T </text>
			<text transform="matrix(1 0 0 1 382.0563 345.3434)" class="st4 st6 st8">R</text>
			<text transform="matrix(1 0 0 1 382.7321 345.3434)" class="st4 st6 st8">I</text>
			<text transform="matrix(1 0 0 1 383.1422 345.3434)" class="st4 st6 st8">G</text>
			<text transform="matrix(1 0 0 1 383.7926 345.3434)" class="st4 st6 st8">H</text>
			<text transform="matrix(1 0 0 1 384.4762 345.3434)" class="st4 st6 st8">T</text>
			<text transform="matrix(1 0 0 1 385.0163 345.3434)" class="st4 st6 st8">. </text>
			<text transform="matrix(1 0 0 1 385.6422 345.3434)" class="st4 st6 st8">D</text>
			<text transform="matrix(1 0 0 1 386.3141 345.3434)" class="st4 st6 st8">O </text>
			<text transform="matrix(1 0 0 1 387.1852 345.3434)" class="st4 st6 st8">R</text>
			<text transform="matrix(1 0 0 1 387.861 345.3434)" class="st4 st6 st8">I</text>
			<text transform="matrix(1 0 0 1 388.2711 345.3434)" class="st4 st6 st8">G</text>
			<text transform="matrix(1 0 0 1 388.9206 345.3434)" class="st4 st6 st8">H</text>
			<text transform="matrix(1 0 0 1 389.6051 345.3434)" class="st4 st6 st8">T</text>
			<text transform="matrix(1 0 0 1 390.1442 345.3434)" class="st4 st6 st8">.</text>
			<path class="st4" d="M389.7,338.2c0-0.1,0-0.2,0-0.3c0-0.1,0-0.2,0-0.3c0-0.1,0-0.2,0-0.2c0-0.1,0-0.1,0-0.1c0,0,0-0.1-0.1-0.1
				c0,0-0.1,0-0.1,0c-0.1,0-0.1,0-0.1,0c0,0-0.1,0-0.1,0.1c0,0,0,0.1,0,0.1c0,0.1,0,0.1,0,0.2c0,0.1,0,0.2,0,0.2c0,0.1,0,0.2,0,0.3
				c0,0.1,0,0.2,0,0.3c0,0.1,0,0.2,0,0.2c0,0.1,0,0.1,0,0.2c0,0.1,0,0.1,0,0.1c0,0,0,0.1,0.1,0.1c0,0,0.1,0,0.1,0.1
				c0.1,0,0.1,0,0.1,0c0,0,0.1,0,0.1-0.1c0,0,0-0.1,0-0.1s0-0.1,0-0.2c0-0.1,0-0.2,0-0.3C389.7,338.4,389.7,338.3,389.7,338.2
				 M391.6,343.5v-2.7h-0.7v1.3l-0.9-1.3h-0.6v2.7h0.7v-1.3l0.9,1.3H391.6z M388.7,343.5V343h-1.2v-0.5h1v-0.6h-1v-0.4h1.2v-0.6
				h-1.8v2.7H388.7z M386,343.5V343h-1.2v-0.5h1v-0.6h-1v-0.4h1.2v-0.6h-1.8v2.7H386z M382.8,341.7c0,0.1,0,0.1-0.1,0.2
				c-0.1,0.1-0.1,0.1-0.2,0.1h-0.4v-0.5h0.4c0.1,0,0.2,0,0.2,0.1C382.7,341.6,382.8,341.7,382.8,341.7 M383.6,343.5l-0.6-1.1
				c0.1,0,0.1-0.1,0.2-0.1c0.1,0,0.1-0.1,0.1-0.1c0-0.1,0.1-0.1,0.1-0.2c0-0.1,0-0.2,0-0.2c0-0.1,0-0.2-0.1-0.3s-0.1-0.2-0.2-0.3
				c-0.1-0.1-0.2-0.1-0.3-0.2c-0.1,0-0.2-0.1-0.4-0.1h-1.1v2.7h0.7v-1h0.2l0.5,1H383.6z M380.7,342.4V342h-1v0.5h0.4v0
				c0,0,0,0.1,0,0.2c0,0.1,0,0.1-0.1,0.1c0,0-0.1,0.1-0.1,0.1c0,0-0.1,0-0.2,0c-0.1,0-0.1,0-0.2,0c0,0-0.1,0-0.1-0.1c0,0,0,0,0-0.1
				c0,0,0-0.1,0-0.1c0,0,0-0.1,0-0.2c0-0.1,0-0.2,0-0.3c0-0.1,0-0.2,0-0.3c0-0.1,0-0.1,0-0.2c0,0,0-0.1,0-0.1c0,0,0,0,0-0.1
				c0,0,0.1-0.1,0.1-0.1c0,0,0.1,0,0.2,0c0.1,0,0.2,0,0.2,0c0.1,0,0.1,0.1,0.2,0.1l0.4-0.4c-0.1-0.1-0.1-0.1-0.2-0.2
				c-0.1,0-0.1-0.1-0.2-0.1c-0.1,0-0.1,0-0.2-0.1c-0.1,0-0.2,0-0.3,0c-0.2,0-0.3,0-0.4,0.1c-0.1,0.1-0.2,0.1-0.3,0.2
				c-0.1,0.1-0.1,0.1-0.2,0.2c0,0.1-0.1,0.2-0.1,0.3c0,0.1,0,0.2,0,0.3c0,0.1,0,0.2,0,0.3c0,0.1,0,0.2,0,0.3c0,0.1,0,0.2,0,0.3
				c0,0.1,0,0.2,0.1,0.3c0,0.1,0.1,0.2,0.2,0.2c0.1,0.1,0.2,0.2,0.3,0.2c0.1,0.1,0.3,0.1,0.4,0.1c0.2,0,0.3,0,0.4-0.1
				c0.1-0.1,0.2-0.1,0.3-0.2c0.1-0.1,0.1-0.1,0.1-0.2c0-0.1,0.1-0.1,0.1-0.2c0-0.1,0-0.2,0-0.2C380.7,342.6,380.7,342.5,380.7,342.4
				 M381.1,339.5v-0.6v-0.6c-0.2,0-0.4,0.1-0.5,0.1v0.6v0.6c-0.2,0.1-0.4,0.1-0.6,0.2v-1.6v-1.6c0.2,0,0.4,0,0.6,0v0.6v0.6
				c0.2,0,0.4,0,0.5-0.1v-0.6v-0.6c0.2,0,0.4,0,0.6,0v1.3v1.3C381.5,339.4,381.3,339.5,381.1,339.5 M382.4,339.2v-1.3v-1.3
				c0.5,0,1,0,1.5,0v0.4c-0.3,0-0.6,0-0.8,0v0.6c0.2,0,0.5,0,0.7,0v0.4c-0.2,0-0.5,0-0.7,0v0.6c0.3,0,0.6,0,0.8-0.1v0.4
				C383.4,339.1,382.9,339.1,382.4,339.2 M384.5,339v-1.2v-1.2h0.6v1v1c0.3,0,0.6,0,0.8,0v0.4C385.5,339,385,339,384.5,339
				 M386.5,339.1v-1.2v-1.2c0.2,0,0.4,0,0.6,0v1v1c0.3,0,0.6,0.1,0.8,0.1v0.5C387.5,339.2,387,339.1,386.5,339.1 M386.3,340
				c-0.1,0-0.2,0-0.2,0c0,0,0,0,0,0c0,0,0,0,0,0C386.2,340,386.3,340,386.3,340c0.5-0.1,1.2-0.1,1.4-0.2l0,0c0,0,0,0,0,0
				c0,0,0.1,0,0.1,0.1c0,0,0,0,0,0.1c0,0,0,0,0.1,0l0,0c0,0,0.1,0,0.1,0.1c0,0,0,0,0,0c0,0,0,0-0.1,0.1l0,0c0,0,0,0-0.1,0
				c0,0,0,0,0,0.1c0,0,0,0-0.1,0.1c0,0,0,0,0,0C387.4,340.1,386.7,340.1,386.3,340 M384.1,340c-0.1,0-0.1,0-0.2,0
				c-0.4,0-1.1,0-1.4,0.2c0,0,0,0,0,0c0,0,0,0-0.1-0.1l0,0l0,0c0,0,0,0,0-0.1c0,0-0.1,0-0.1,0l0,0c0,0-0.1,0-0.1-0.1c0,0,0,0,0,0
				c0,0,0,0,0.1-0.1l0,0c0,0,0,0,0.1,0c0,0,0,0,0-0.1l0,0c0,0,0,0,0.1-0.1c0,0,0,0,0,0l0,0c0.2,0.1,0.8,0.2,1.3,0.2
				C383.9,340,384,340,384.1,340C384.1,340,384.1,340,384.1,340C384.1,340,384.1,340,384.1,340 M385.4,339.4c0,0-0.1,0-0.1,0
				c-0.1,0-0.2,0.1-0.3,0.2c0,0.1-0.1,0.2-0.1,0.3c0.2-0.2,0.4-0.3,0.6-0.4c-0.2,0.2-0.6,0.5-0.8,0.7c0,0,0,0,0,0
				c0-0.1,0.1-0.1,0.2-0.2c0.1-0.1,0.1-0.2,0.1-0.3c0-0.1-0.1-0.1-0.1-0.2c-0.1-0.1-0.1,0-0.2,0.1c0,0,0,0.1,0,0.1
				c0,0.1,0,0.2,0,0.3c0-0.1,0.1-0.2,0.1-0.3c0,0.2-0.1,0.5-0.2,0.7c0,0,0,0,0,0c0,0,0.1,0,0.1-0.1c0.2-0.1,0.3,0.1,0.5,0.1
				c0.1,0,0.2,0,0.2-0.1c0.1,0,0.1-0.1,0.1-0.2c0-0.1-0.1-0.1-0.1-0.1c-0.1,0-0.2,0-0.2,0c-0.1,0-0.1,0-0.2,0.1c0,0-0.1,0-0.1,0.1
				c0.2,0,0.3-0.1,0.5,0c-0.3,0-0.5,0-0.7,0.1c0,0,0,0,0,0c0,0,0.1-0.1,0.1-0.1c0,0,0,0,0.1-0.1c0.1-0.1,0.2,0,0.4-0.1
				c0,0,0.1,0,0.1,0c0.1-0.1,0.2-0.2,0.2-0.4C385.7,339.4,385.6,339.3,385.4,339.4 M390.3,338.3c0,0.1,0,0.2,0,0.3
				c0,0.1,0,0.2,0,0.4c0,0.1,0,0.2-0.1,0.3c0,0.1-0.1,0.2-0.1,0.2c-0.1,0.1-0.2,0.1-0.3,0.1c-0.1,0-0.3,0-0.4,0
				c-0.1,0-0.2-0.1-0.2-0.1c-0.1,0-0.1-0.1-0.2-0.1c-0.1,0-0.1-0.1-0.1-0.1c0,0-0.1-0.1-0.1-0.1c-0.1-0.1-0.1-0.2-0.1-0.3
				c0-0.1-0.1-0.2-0.1-0.3c0-0.1,0-0.2,0-0.3c0-0.1,0-0.2,0-0.3c0-0.1,0-0.2,0-0.3c0-0.1,0-0.2,0-0.3c0-0.1,0-0.2,0.1-0.3
				c0-0.1,0.1-0.2,0.1-0.2c0,0,0.1-0.1,0.1-0.1c0,0,0.1-0.1,0.1-0.1c0.1,0,0.1,0,0.2-0.1c0.1,0,0.2,0,0.2,0c0.2,0,0.3,0,0.4,0.1
				c0.1,0.1,0.2,0.1,0.3,0.2c0.1,0.1,0.1,0.2,0.1,0.3c0,0.1,0.1,0.2,0.1,0.3c0,0.1,0,0.2,0,0.4C390.3,338.1,390.3,338.2,390.3,338.3
				"/>
		</g>
	</g>
</g>
</svg>
