<?xml version="1.0" encoding="utf-8"?>
<!-- Generator: Adobe Illustrator 22.0.0, SVG Export Plug-In . SVG Version: 6.00 Build 0)  -->
<svg version="1.1" id="Layer_1" xmlns="http://www.w3.org/2000/svg" xmlns:xlink="http://www.w3.org/1999/xlink" x="0px" y="0px"
	 viewBox="0 0 40 40" style="enable-background:new 0 0 40 40;" xml:space="preserve">
<style type="text/css">
	.st0{fill:#2A2A2A;}
</style>
<g>
	<path class="st0" d="M20,0C9,0,0,9,0,20c0,11,9,20,20,20c11,0,20-9,20-20C40,9,31,0,20,0z M20,37.8c-4.5,0-8.7-1.7-11.8-4.5
		l4.4-4.4c0,0-1.7-0.7-1.7-1.4c-0.8,0.5-4.3,4.3-4.3,4.3C3.9,28.7,2.2,24.5,2.2,20c0-9.8,8-17.8,17.8-17.8c4.5,0,8.7,1.7,11.8,4.5
		l-5.6,5.6l0.4,0.7c0.4,0.3,0.1,1.6-0.2,2.2l6.9-6.9c2.8,3.1,4.5,7.3,4.5,11.8C37.8,29.8,29.8,37.8,20,37.8z"/>
	<path class="st0" d="M28.3,22.6l-4.2-4.2h0v-2.6h0.1c0.8,0,1.4-0.6,1.4-1.4c0-0.8-0.6-1.4-1.4-1.4h-7.5c-0.8,0-1.4,0.6-1.4,1.4
		c0,0.8,0.6,1.4,1.4,1.4h0.1v2.6l-4.3,4.2c0,0,0,0,0,0l0,0h0c-0.4,0.5-0.7,1.1-0.7,1.8v1.2c0,1.4,1.1,2.5,2.5,2.5h12.3
		c1.4,0,2.5-1.1,2.5-2.5v-1.2C29.1,23.7,28.8,23,28.3,22.6z M17.2,23.1c-0.5,0.7-1.3,0.9-1.9,0.5c-0.5-0.4-0.6-1.3-0.1-1.9
		c0.5-0.7,1.3-0.9,1.9-0.5C17.7,21.5,17.7,22.4,17.2,23.1z"/>
	<path class="st0" d="M20.4,10.2c0-0.8-0.6-1.4-1.4-1.4c-0.8,0-1.4,0.6-1.4,1.4c0,0.8,0.6,1.4,1.4,1.4C19.8,11.7,20.4,11,20.4,10.2z
		"/>
	<path class="st0" d="M22.2,7.3c0-0.5-0.4-0.9-0.9-0.9c-0.5,0-0.9,0.4-0.9,0.9c0,0.5,0.4,0.9,0.9,0.9C21.8,8.3,22.2,7.9,22.2,7.3z"
		/>
	<path class="st0" d="M19.4,5.8c0-0.4-0.3-0.7-0.7-0.7c-0.4,0-0.7,0.3-0.7,0.7c0,0.4,0.3,0.7,0.7,0.7C19.1,6.6,19.4,6.2,19.4,5.8z"
		/>
</g>
</svg>
