<?xml version="1.0" encoding="utf-8"?>
<!-- Generator: Adobe Illustrator 22.0.0, SVG Export Plug-In . SVG Version: 6.00 Build 0)  -->
<svg version="1.1" id="Layer_1" xmlns="http://www.w3.org/2000/svg" xmlns:xlink="http://www.w3.org/1999/xlink" x="0px" y="0px"
	 viewBox="0 0 40 40" style="enable-background:new 0 0 40 40;" xml:space="preserve">
<style type="text/css">
	.st0{fill:#2A2A2A;}
</style>
<path class="st0" d="M20,0C9,0,0,9,0,20c0,11,9,20,20,20c11,0,20-9,20-20C40,9,31,0,20,0z M20,37.8c-4.5,0-8.7-1.7-11.8-4.5l5.7-5.7
	L12,26.5l-5.3,5.3C3.9,28.7,2.2,24.5,2.2,20c0-9.8,8-17.8,17.8-17.8c4.5,0,8.7,1.7,11.8,4.5l-5.6,5.6l0.7,0.4l1.3,0.7l5.2-5.2
	c2.8,3.1,4.5,7.3,4.5,11.8C37.8,29.8,29.8,37.8,20,37.8z"/>
<path class="st0" d="M20,10.4l7.9,4.5L20,19.5l-7.9-4.5L20,10.4z M11.5,25v-8.9l7.9,4.5v9l-7.8-4.5C11.5,25.1,11.5,25,11.5,25z
	 M20.6,29.6v-9l7.9-4.5v9L20.6,29.6z"/>
</svg>
