<?xml version="1.0" encoding="utf-8"?>
<!-- Generator: Adobe Illustrator 22.0.0, SVG Export Plug-In . SVG Version: 6.00 Build 0)  -->
<svg version="1.1" id="Layer_1" xmlns="http://www.w3.org/2000/svg" xmlns:xlink="http://www.w3.org/1999/xlink" x="0px" y="0px"
	 viewBox="0 0 40 40" style="enable-background:new 0 0 40 40;" xml:space="preserve">
<style type="text/css">
	.st0{fill:#2A2A2A;}
</style>
<path class="st0" d="M20,0C9,0,0,9,0,20c0,11,9,20,20,20c11,0,20-9,20-20C40,9,31,0,20,0z M20,37.8c-4.5,0-8.7-1.7-11.8-4.5l4.3-4.3
	V26l-5.8,5.8C3.9,28.7,2.2,24.5,2.2,20c0-9.8,8-17.8,17.8-17.8c4.5,0,8.7,1.7,11.8,4.5L26,12.5l0.5,0.5c0.4,0.3,0.6,0.8,0.8,1.2l6-6
	c2.8,3.1,4.5,7.3,4.5,11.8C37.8,29.8,29.8,37.8,20,37.8z"/>
<path class="st0" d="M25.5,14l-3-3h0V9.2h0.1c0.5,0,1-0.4,1-1c0-0.5-0.4-1-1-1h-5.3c-0.5,0-1,0.4-1,1c0,0.5,0.4,1,1,1h0.1v1.9l-3,3
	c0,0,0,0,0,0l0,0h0c-0.3,0.3-0.5,0.8-0.5,1.2V31c0,1,0.8,1.8,1.8,1.8h8.6c1,0,1.8-0.8,1.8-1.8V15.3C26.1,14.8,25.9,14.4,25.5,14z
	 M18.3,15c-0.5,0.7-1.3,0.9-1.9,0.5c-0.5-0.4-0.6-1.3-0.1-1.9c0.5-0.7,1.3-0.9,1.9-0.5C18.7,13.4,18.8,14.3,18.3,15z"/>
</svg>
