<?xml version="1.0" encoding="utf-8"?>
<!-- Generator: Adobe Illustrator 22.0.0, SVG Export Plug-In . SVG Version: 6.00 Build 0)  -->
<svg version="1.1" id="Layer_1" xmlns="http://www.w3.org/2000/svg" xmlns:xlink="http://www.w3.org/1999/xlink" x="0px" y="0px"
	 viewBox="0 0 844.2 660" style="enable-background:new 0 0 844.2 660;" xml:space="preserve">
<style type="text/css">
	.st0{fill-rule:evenodd;clip-rule:evenodd;fill:none;stroke:#999999;stroke-width:2;stroke-miterlimit:22.9256;}
	.st1{fill:none;stroke:#999999;stroke-width:2;stroke-miterlimit:22.9256;}
	.st2{fill-rule:evenodd;clip-rule:evenodd;fill:#009B53;}
	.st3{fill:#F09B67;stroke:#494949;stroke-miterlimit:10;}
	.st4{fill:#FFFFFF;}
	.st5{fill:#F0F1EF;}
	.st6{fill:none;stroke:#494949;stroke-miterlimit:10;}
	.st7{fill:#FBE18D;stroke:#494949;stroke-miterlimit:10;}
	.st8{fill:#BCD7E5;stroke:#494949;stroke-miterlimit:10;}
	.st9{fill:#494949;}
	.st10{fill:#BCD7E5;}
	.st11{fill:#009B53;}
	.st12{font-family:'DINPro-CondensedBlack';}
	.st13{font-size:0.8463px;}
	.st14{fill:#FFFFFF;stroke:#494949;stroke-width:4;stroke-miterlimit:22.9256;}
	.st15{fill:#FD8678;}
	.st16{fill:#D0EFE9;}
	.st17{fill:none;stroke:#494949;stroke-width:4;stroke-miterlimit:22.9256;}
	.st18{fill:none;stroke:#494949;stroke-width:7;stroke-miterlimit:22.9256;}
	.st19{fill:none;stroke:#494949;stroke-width:4;stroke-linejoin:bevel;stroke-miterlimit:22.9256;}
	.st20{fill:#FFF200;}
	.st21{fill-rule:evenodd;clip-rule:evenodd;fill:#F5BB41;}
	.st22{fill-rule:evenodd;clip-rule:evenodd;}
	.st23{fill:#231F20;}
	.st24{fill-rule:evenodd;clip-rule:evenodd;fill:none;stroke:#494949;stroke-width:4;stroke-miterlimit:22.9256;}
	.st25{font-size:1.4px;}
</style>
<g>
	<g>
		<g>
			<line class="st0" x1="537" y1="400.3" x2="537" y2="384.9"/>
			<path class="st0" d="M521.6,383.2c2.6,4.1,7,7.3,11.4,8"/>
			<path class="st0" d="M545.8,348.4c-2.8-1.6-6.1-2.3-8.9-1.8c-0.5,0.1-2.6,0.6-4.3,1.1"/>
			<path class="st0" d="M537,391.3c3.1-0.1,6.1-1,8.7-2.4"/>
			<line class="st0" x1="500.9" y1="376.2" x2="489.8" y2="369.4"/>
			<line class="st0" x1="500.9" y1="366.5" x2="510" y2="361"/>
			<line class="st0" x1="500.9" y1="358.8" x2="494.2" y2="354.7"/>
			<path class="st0" d="M494,385.5c-9.9-1.6-17.7-6.9-19.7-14.3c-4.8-14.4-4.7-22.2-1.2-28.2c0.6-1,1.2-1.9,1.9-2.8
				c1.6-2.4,3.1-4.6,3.2-7.6c0.3-5.5,4.9-9.8,8.9-12.7c14.5-10.6,34.2-2.4,41.1,14c3.2,7.6-1.3,13.4,1.5,16.7
				c3.3,3.8,2.4,12,1.3,16.5c-2.6,10.8-18.6,19-29.7,19"/>
			<line class="st0" x1="500.9" y1="400.2" x2="500.9" y2="349.4"/>
		</g>
		<g>
			<line class="st1" x1="669.9" y1="400.6" x2="540.2" y2="400.6"/>
			<polyline class="st1" points="545.8,400.6 545.8,271 624.8,271 624.8,400.6 			"/>
			<rect x="562.7" y="287.9" class="st1" width="16.9" height="16.9"/>
			<rect x="590.9" y="287.9" class="st1" width="16.9" height="16.9"/>
			<rect x="562.7" y="316.1" class="st1" width="16.9" height="16.9"/>
			<rect x="590.9" y="316.1" class="st1" width="16.9" height="16.9"/>
			<rect x="636" y="338.6" class="st1" width="16.9" height="16.9"/>
			<rect x="636" y="366.8" class="st1" width="16.9" height="16.9"/>
			<rect x="562.7" y="344.3" class="st1" width="16.9" height="16.9"/>
			<rect x="590.9" y="344.3" class="st1" width="16.9" height="16.9"/>
			<polyline class="st1" points="574,400.6 574,378.1 596.6,378.1 596.6,400.6 			"/>
			<polyline class="st1" points="624.8,321.7 664.2,321.7 664.2,400.6 			"/>
		</g>
		<g>
			<rect x="318" y="301" class="st2" width="36.6" height="36.6"/>
			<g>
				<g>
					<g>
						<rect x="210.2" y="395.1" class="st3" width="19.3" height="4.5"/>
						<rect x="210.2" y="380.9" class="st3" width="19.3" height="3.5"/>
						<rect x="210.2" y="384.4" class="st4" width="19.3" height="10.7"/>
						<g>
							<rect x="217.5" y="349.4" class="st5" width="5.7" height="13.4"/>
						</g>
						<g>
							<path class="st6" d="M208.4,366.5c0.4-0.2,0.9-0.5,1.4-0.7c2.5-1,5.2-1.3,7.3-1.5c3.1-0.2,6.1-0.1,9,0.3
								c2.2,0.3,4.4,0.8,6.3,1.9"/>
						</g>
						<g>
							<g>
								<path class="st6" d="M210.8,375h-1.7"/>
							</g>
							<g>
								<path class="st6" d="M219.5,375h-1.7"/>
							</g>
							<g>
								<path class="st7" d="M214.5,372.6v-1.2h-0.4v1.2c-1.9,0-3.3,0.7-3.3,1.5h3.6h3.5C217.9,373.3,216.4,372.6,214.5,372.6z"/>
							</g>
							<g>
								<g>
									<g>
										<g>
											<path class="st7" d="M210.8,374.1v3.5c0,1.2,0.9,2.2,2,2.2h3c1.1,0,2-1,2-2.2v-3.5"/>
										</g>
									</g>
								</g>
							</g>
						</g>
						<g>
							<g>
								<polyline class="st8" points="223.1,374.7 221.5,379.7 224.9,379.7 224.9,379.7 228.3,379.7 226.6,374.7 								"/>
							</g>
							<g>
								<path class="st8" d="M225,373.9v-0.6h-0.2v0.6c-0.9,0-1.7,0.3-1.7,0.7h1.8h1.7C226.6,374.3,225.9,374,225,373.9z"/>
							</g>
							<g>
								<polyline class="st6" points="226.5,374.5 227.5,374.5 227.5,371.8 223.7,371.8 								"/>
							</g>
						</g>
						<path class="st6" d="M208.7,380.7H231"/>
						<path class="st9" d="M217.8,383.3c-0.3,0-0.6-0.3-0.6-0.6s0.3-0.6,0.6-0.6c0.3,0,0.6,0.3,0.6,0.6S218.1,383.3,217.8,383.3z"/>
						<path class="st9" d="M215.7,383.3c-0.3,0-0.6-0.3-0.6-0.6s0.3-0.6,0.6-0.6c0.3,0,0.6,0.3,0.6,0.6S216.1,383.3,215.7,383.3z"/>
						<path class="st9" d="M222.1,383.3c-0.3,0-0.6-0.3-0.6-0.6s0.3-0.6,0.6-0.6c0.3,0,0.6,0.3,0.6,0.6S222.4,383.3,222.1,383.3z"/>
						<path class="st9" d="M223.8,383.3c-0.3,0-0.6-0.3-0.6-0.6s0.3-0.6,0.6-0.6c0.3,0,0.6,0.3,0.6,0.6S224.1,383.3,223.8,383.3z"/>
						<rect x="212.3" y="387.6" class="st10" width="15" height="6"/>
						<g>
							<path class="st6" d="M226.6,385.9h-13.6H226.6z"/>
						</g>
						<g>
							<path class="st6" d="M221.8,396.9h-3.9H221.8z"/>
						</g>
					</g>
					<line class="st3" x1="210.2" y1="399.6" x2="210.2" y2="380.9"/>
				</g>
				<line class="st3" x1="229.5" y1="399.6" x2="229.5" y2="380.9"/>
				<g>
					<g>
						<circle class="st11" cx="299.9" cy="325.6" r="9.1"/>
					</g>
					<text transform="matrix(1 0 0 1 295.7077 329.4968)" class="st4 st12 st13">E</text>
					<text transform="matrix(1 0 0 1 296.1765 329.4968)" class="st4 st12 st13">A</text>
					<text transform="matrix(1 0 0 1 296.6872 329.4968)" class="st4 st12 st13">T </text>
					<text transform="matrix(1 0 0 1 297.3298 329.4968)" class="st4 st12 st13">R</text>
					<text transform="matrix(1 0 0 1 297.8737 329.4968)" class="st4 st12 st13">I</text>
					<text transform="matrix(1 0 0 1 298.2019 329.4968)" class="st4 st12 st13">G</text>
					<text transform="matrix(1 0 0 1 298.7224 329.4968)" class="st4 st12 st13">H</text>
					<text transform="matrix(1 0 0 1 299.2722 329.4968)" class="st4 st12 st13">T</text>
					<text transform="matrix(1 0 0 1 299.7029 329.4968)" class="st4 st12 st13">. </text>
					<text transform="matrix(1 0 0 1 300.2048 329.4968)" class="st4 st12 st13">D</text>
					<text transform="matrix(1 0 0 1 300.7429 329.4968)" class="st4 st12 st13">O </text>
					<text transform="matrix(1 0 0 1 301.4411 329.4968)" class="st4 st12 st13">R</text>
					<text transform="matrix(1 0 0 1 301.9831 329.4968)" class="st4 st12 st13">I</text>
					<text transform="matrix(1 0 0 1 302.3112 329.4968)" class="st4 st12 st13">G</text>
					<text transform="matrix(1 0 0 1 302.8318 329.4968)" class="st4 st12 st13">H</text>
					<text transform="matrix(1 0 0 1 303.3816 329.4968)" class="st4 st12 st13">T</text>
					<text transform="matrix(1 0 0 1 303.8122 329.4968)" class="st4 st12 st13">.</text>
					<path class="st4" d="M303.4,323.8c0-0.1,0-0.1,0-0.2c0-0.1,0-0.1,0-0.2c0-0.1,0-0.1,0-0.2c0-0.1,0-0.1,0-0.1c0,0,0-0.1-0.1-0.1
						c0,0-0.1,0-0.1,0c0,0-0.1,0-0.1,0c0,0,0,0-0.1,0.1c0,0,0,0.1,0,0.1c0,0,0,0.1,0,0.2c0,0.1,0,0.1,0,0.2c0,0.1,0,0.1,0,0.2
						c0,0.1,0,0.1,0,0.2c0,0.1,0,0.1,0,0.2c0,0.1,0,0.1,0,0.2c0,0,0,0.1,0,0.1c0,0,0,0.1,0.1,0.1c0,0,0.1,0,0.1,0.1c0,0,0.1,0,0.1,0
						c0,0,0,0,0.1-0.1c0,0,0-0.1,0-0.1c0,0,0-0.1,0-0.2c0-0.1,0-0.1,0-0.2C303.4,323.9,303.4,323.8,303.4,323.8 M304.9,328.1v-2.1
						h-0.5v1.1l-0.7-1.1h-0.5v2.1h0.5V327l0.7,1.1H304.9z M302.6,328.1v-0.5h-0.9v-0.4h0.8v-0.5h-0.8v-0.4h0.9v-0.5h-1.5v2.1H302.6z
						 M300.5,328.1v-0.5h-0.9v-0.4h0.8v-0.5h-0.8v-0.4h0.9v-0.5h-1.5v2.1H300.5z M297.9,326.6c0,0.1,0,0.1-0.1,0.2
						c0,0-0.1,0.1-0.2,0.1h-0.3v-0.4h0.3c0.1,0,0.1,0,0.2,0.1C297.9,326.5,297.9,326.5,297.9,326.6 M298.5,328.1l-0.5-0.9
						c0,0,0.1,0,0.1-0.1c0,0,0.1-0.1,0.1-0.1c0,0,0.1-0.1,0.1-0.2c0-0.1,0-0.1,0-0.2c0-0.1,0-0.2,0-0.3c0-0.1-0.1-0.2-0.1-0.2
						c-0.1-0.1-0.1-0.1-0.2-0.2c-0.1,0-0.2-0.1-0.3-0.1h-0.8v2.1h0.5v-0.8h0.2l0.4,0.8H298.5z M296.2,327.1v-0.3h-0.8v0.4h0.3v0
						c0,0,0,0.1,0,0.1c0,0,0,0.1-0.1,0.1c0,0-0.1,0-0.1,0.1c0,0-0.1,0-0.1,0c0,0-0.1,0-0.1,0c0,0-0.1,0-0.1-0.1c0,0,0,0,0-0.1
						c0,0,0,0,0-0.1c0,0,0-0.1,0-0.1c0-0.1,0-0.1,0-0.2c0-0.1,0-0.2,0-0.2c0-0.1,0-0.1,0-0.1c0,0,0-0.1,0-0.1c0,0,0,0,0-0.1
						c0,0,0,0,0.1-0.1s0.1,0,0.1,0c0.1,0,0.1,0,0.2,0c0,0,0.1,0.1,0.1,0.1l0.4-0.4c0,0-0.1-0.1-0.1-0.1c0,0-0.1-0.1-0.1-0.1
						c-0.1,0-0.1,0-0.2,0c-0.1,0-0.1,0-0.2,0c-0.1,0-0.2,0-0.3,0.1s-0.2,0.1-0.3,0.2c-0.1,0.1-0.1,0.1-0.1,0.2
						c0,0.1-0.1,0.1-0.1,0.2c0,0.1,0,0.1,0,0.2s0,0.2,0,0.2c0,0.1,0,0.2,0,0.2c0,0.1,0,0.2,0,0.2c0,0.1,0,0.1,0.1,0.2
						c0,0.1,0.1,0.1,0.1,0.2c0.1,0.1,0.2,0.1,0.3,0.2s0.2,0.1,0.3,0.1c0.1,0,0.2,0,0.3-0.1s0.2-0.1,0.3-0.2c0,0,0.1-0.1,0.1-0.1
						s0-0.1,0.1-0.2s0-0.1,0-0.2C296.2,327.3,296.2,327.2,296.2,327.1 M296.5,324.8v-0.5v-0.5c-0.1,0-0.3,0-0.4,0.1v0.5v0.5
						c-0.2,0.1-0.3,0.1-0.5,0.2v-1.3v-1.3c0.2,0,0.3,0,0.5,0v0.5v0.5c0.1,0,0.3,0,0.4-0.1V323v-0.5c0.2,0,0.3,0,0.5,0v1.1v1.1
						C296.9,324.7,296.7,324.8,296.5,324.8 M297.6,324.6v-1v-1c0.4,0,0.8,0,1.2,0v0.3c-0.2,0-0.5,0-0.7,0v0.4c0.2,0,0.4,0,0.6,0v0.3
						c-0.2,0-0.4,0-0.6,0v0.5c0.2,0,0.5,0,0.7-0.1v0.3C298.4,324.5,298,324.5,297.6,324.6 M299.3,324.4v-0.9v-0.9h0.5v0.8v0.8
						c0.2,0,0.5,0,0.7,0v0.3C300.1,324.4,299.7,324.4,299.3,324.4 M300.9,324.5v-1v-1c0.2,0,0.3,0,0.5,0v0.8v0.8
						c0.2,0,0.5,0.1,0.7,0.1v0.4C301.7,324.6,301.3,324.5,300.9,324.5 M300.7,325.2c-0.1,0-0.1,0-0.2,0c0,0,0,0,0,0c0,0,0,0,0,0
						C300.6,325.2,300.7,325.2,300.7,325.2c0.4-0.1,0.9-0.1,1.1-0.2l0,0c0,0,0,0,0,0c0,0,0,0,0,0.1c0,0,0,0,0,0c0,0,0,0,0.1,0l0,0
						c0,0,0,0,0,0.1c0,0,0,0,0,0c0,0,0,0,0,0.1l0,0c0,0,0,0-0.1,0c0,0,0,0,0,0c0,0,0,0,0,0.1c0,0,0,0,0,0
						C301.6,325.3,301.1,325.3,300.7,325.2 M299,325.2c0,0-0.1,0-0.2,0c-0.3,0-0.9,0-1.1,0.1c0,0,0,0,0,0c0,0,0,0,0-0.1l0,0h0
						c0,0,0,0,0,0c0,0,0,0-0.1,0l0,0c0,0,0,0,0-0.1c0,0,0,0,0,0c0,0,0,0,0-0.1l0,0c0,0,0,0,0.1,0c0,0,0,0,0,0l0,0c0,0,0,0,0,0
						c0,0,0,0,0,0l0,0c0.2,0.1,0.7,0.1,1,0.1C298.8,325.2,298.9,325.2,299,325.2C299,325.2,299,325.2,299,325.2
						C299,325.2,299,325.2,299,325.2 M300,324.7C300,324.7,300,324.7,300,324.7c-0.2,0.1-0.3,0.1-0.3,0.2c0,0.1-0.1,0.2,0,0.2
						c0.1-0.1,0.3-0.3,0.4-0.3c-0.1,0.1-0.5,0.4-0.7,0.6c0,0,0,0,0,0c0-0.1,0.1-0.1,0.1-0.1c0-0.1,0.1-0.1,0-0.2c0,0,0-0.1-0.1-0.1
						c-0.1,0-0.1,0-0.1,0.1c0,0,0,0.1,0,0.1c0,0.1,0,0.2,0,0.3c0-0.1,0.1-0.2,0.1-0.3c0,0.1-0.1,0.4-0.2,0.5c0,0,0,0,0,0
						c0,0,0.1,0,0.1-0.1c0.1-0.1,0.2,0.1,0.4,0.1c0.1,0,0.1,0,0.2,0c0,0,0.1-0.1,0.1-0.1c0,0-0.1-0.1-0.1-0.1c-0.1,0-0.1,0-0.2,0
						c0,0-0.1,0-0.1,0.1c0,0,0,0-0.1,0.1c0.1,0,0.3,0,0.4,0c-0.3,0-0.4,0-0.5,0c0,0,0,0,0,0c0,0,0.1-0.1,0.1-0.1c0,0,0,0,0,0
						c0.1-0.1,0.2,0,0.3-0.1c0,0,0,0,0.1,0c0.1-0.1,0.2-0.2,0.2-0.3C300.3,324.7,300.2,324.7,300,324.7 M303.9,323.8
						c0,0.1,0,0.2,0,0.3c0,0.1,0,0.2,0,0.3c0,0.1,0,0.2-0.1,0.3c0,0.1-0.1,0.1-0.1,0.2c-0.1,0.1-0.1,0.1-0.2,0.1c-0.1,0-0.2,0-0.3,0
						c-0.1,0-0.1,0-0.2-0.1c-0.1,0-0.1-0.1-0.2-0.1c0,0-0.1-0.1-0.1-0.1c0,0-0.1-0.1-0.1-0.1c0-0.1-0.1-0.1-0.1-0.2
						c0-0.1,0-0.2-0.1-0.2c0-0.1,0-0.2,0-0.3c0-0.1,0-0.2,0-0.2c0-0.1,0-0.2,0-0.2c0-0.1,0-0.2,0-0.2c0-0.1,0-0.2,0.1-0.2
						c0-0.1,0.1-0.1,0.1-0.2c0,0,0.1-0.1,0.1-0.1c0,0,0.1,0,0.1-0.1c0,0,0.1,0,0.2,0c0.1,0,0.1,0,0.2,0c0.1,0,0.3,0,0.3,0.1
						c0.1,0,0.2,0.1,0.2,0.2c0.1,0.1,0.1,0.1,0.1,0.2c0,0.1,0,0.2,0.1,0.3c0,0.1,0,0.2,0,0.3C303.9,323.7,303.9,323.8,303.9,323.8"
						/>
				</g>
				<path class="st14" d="M180,326.8v74.3h11.2v-52.3c0-0.8,0.7-1.5,1.5-1.5h75.8c0.8,0,1.5,0.7,1.5,1.5v52.3h11.5v-74.6L180,326.8z
					"/>
				<line class="st6" x1="247.2" y1="357.3" x2="247.2" y2="401.1"/>
				<line class="st14" x1="310.1" y1="312.3" x2="284.2" y2="312.3"/>
				<line class="st14" x1="299.9" y1="317.1" x2="299.9" y2="312.3"/>
				<line class="st6" x1="191.6" y1="356.8" x2="270" y2="356.8"/>
				<path class="st15" d="M186.7,340.8c-6.9,0-12.4-5.6-12.4-12.4v-25.9c0-0.8,0.7-1.5,1.5-1.5h21.9c0.8,0,1.5,0.7,1.5,1.5v25.9
					C199.2,335.2,193.6,340.8,186.7,340.8z"/>
				<path class="st16" d="M208.6,340.8c-6.9,0-12.4-5.6-12.4-12.4v-25.9c0-0.8,0.7-1.5,1.5-1.5h21.9c0.8,0,1.5,0.7,1.5,1.5v25.9
					C221.1,335.2,215.5,340.8,208.6,340.8z"/>
				<path class="st15" d="M230.5,340.8c-6.9,0-12.4-5.6-12.4-12.4v-25.9c0-0.8,0.7-1.5,1.5-1.5h21.9c0.8,0,1.5,0.7,1.5,1.5v25.9
					C243,335.2,237.4,340.8,230.5,340.8z"/>
				<path class="st16" d="M252.4,340.8c-6.9,0-12.4-5.6-12.4-12.4v-25.9c0-0.8,0.7-1.5,1.5-1.5h21.9c0.8,0,1.5,0.7,1.5,1.5v25.9
					C264.8,335.2,259.3,340.8,252.4,340.8z"/>
				<path class="st15" d="M274.3,340.8c-6.9,0-12.4-5.6-12.4-12.4v-25.9c0-0.8,0.7-1.5,1.5-1.5h21.9c0.8,0,1.5,0.7,1.5,1.5v25.9
					C286.7,335.2,281.1,340.8,274.3,340.8z"/>
			</g>
			<g>
				<line class="st17" x1="387.1" y1="389" x2="396.1" y2="389"/>
				<g>
					<polygon class="st11" points="380,350.3 376.2,337.5 416.7,327.9 418.9,334.5 386.1,373 					"/>
					<circle class="st18" cx="435.6" cy="373" r="26.1"/>
					<circle class="st18" cx="342.6" cy="373" r="26.1"/>
					<circle class="st9" cx="386.3" cy="373" r="8.8"/>
					<circle class="st9" cx="342.6" cy="373" r="6.4"/>
					<polygon class="st17" points="380,350.3 376.2,337.5 416.7,327.9 418.9,334.5 386.1,373 					"/>
					<polygon class="st19" points="386.1,373 342.6,373 380,350.3 					"/>
					<polyline class="st17" points="435.6,373 429.3,365.4 413.7,319 416.7,311 428,310.7 					"/>
					<line class="st17" x1="372.6" y1="325.1" x2="391.1" y2="388.1"/>
					<line class="st17" x1="363.8" y1="325.1" x2="380.8" y2="325.1"/>
					<polygon class="st20" points="396.8,337.8 390.4,347.5 394,347.5 391,357.9 398.3,347.5 395.1,347.5 					"/>
				</g>
			</g>
			<g>
				<path class="st21" d="M400.2,262.1c6,0,10.9,4.9,10.9,10.9c0,6-4.9,10.9-10.9,10.9c-6,0-10.9-4.9-10.9-10.9
					C389.3,267,394.2,262.1,400.2,262.1L400.2,262.1z"/>
				<path class="st2" d="M400.2,287.1c-7.8,0-14.1-6.3-14.1-14.1c0-7.8,6.3-14.1,14.1-14.1l0,0c7.8,0,14.1,6.3,14.1,14.1h-14.1
					L400.2,287.1z"/>
				<path class="st2" d="M405,300l-7.6-11.2l0,0c-3.4-5.8-12.9-6.6-16.3-0.6L366.4,314l17.8,5.7l9.4-16.1c0.4-0.8,1.6-0.8,2,0l4.7,7
					"/>
				<path class="st21" d="M400.2,310.4c1,1.5,2.6,2.3,4.3,2.2l23.2,0c2.7,0,4.9-2.2,4.9-4.9c0-2.7-2.2-4.9-4.9-4.9l-20.7,0L405,300"
					/>
				<path class="st22" d="M366.4,314c-2.6,4.7-0.6,10.4,3.9,13.1l15.7,9.4l11.6-8.8l-13.4-8"/>
				<path class="st21" d="M385.9,336.4l6.9,4.1l-11.2,26.1l13,3.8l12.6-30.8c1-2.9-0.2-6.3-2.9-7.9l-6.7-4"/>
				<path class="st23" d="M381.6,366.6c-1,3.6,1,7.3,4.6,8.4c3.6,1,7.3-1,8.4-4.6L381.6,366.6z"/>
			</g>
			<line class="st24" x1="376.2" y1="337.5" x2="327" y2="337.5"/>
			<text transform="matrix(1 0 0 1 329.5261 324.9441)" class="st4 st12 st25">E</text>
			<text transform="matrix(1 0 0 1 330.3015 324.9441)" class="st4 st12 st25">A</text>
			<text transform="matrix(1 0 0 1 331.1462 324.9441)" class="st4 st12 st25">T </text>
			<text transform="matrix(1 0 0 1 332.2097 324.9441)" class="st4 st12 st25">R</text>
			<text transform="matrix(1 0 0 1 333.1091 324.9441)" class="st4 st12 st25">I</text>
			<text transform="matrix(1 0 0 1 333.6521 324.9441)" class="st4 st12 st25">G</text>
			<text transform="matrix(1 0 0 1 334.5124 324.9441)" class="st4 st12 st25">H</text>
			<text transform="matrix(1 0 0 1 335.4226 324.9441)" class="st4 st12 st25">T</text>
			<text transform="matrix(1 0 0 1 336.1345 324.9441)" class="st4 st12 st25">. </text>
			<text transform="matrix(1 0 0 1 336.9655 324.9441)" class="st4 st12 st25">D</text>
			<text transform="matrix(1 0 0 1 337.8552 324.9441)" class="st4 st12 st25">O </text>
			<text transform="matrix(1 0 0 1 339.0105 324.9441)" class="st4 st12 st25">R</text>
			<text transform="matrix(1 0 0 1 339.907 324.9441)" class="st4 st12 st25">I</text>
			<text transform="matrix(1 0 0 1 340.4499 324.9441)" class="st4 st12 st25">G</text>
			<text transform="matrix(1 0 0 1 341.3112 324.9441)" class="st4 st12 st25">H</text>
			<text transform="matrix(1 0 0 1 342.2204 324.9441)" class="st4 st12 st25">T</text>
			<text transform="matrix(1 0 0 1 342.9333 324.9441)" class="st4 st12 st25">.</text>
			<path class="st4" d="M342.3,315.5c0-0.1,0-0.2,0-0.4c0-0.1,0-0.2,0-0.3c0-0.1,0-0.2,0-0.3c0-0.1,0-0.1-0.1-0.2
				c0,0-0.1-0.1-0.1-0.1c0,0-0.1,0-0.2-0.1c-0.1,0-0.1,0-0.2,0c0,0-0.1,0.1-0.1,0.1c0,0,0,0.1-0.1,0.2c0,0.1,0,0.2,0,0.3
				c0,0.1,0,0.2,0,0.3c0,0.1,0,0.2,0,0.3c0,0.1,0,0.2,0,0.3c0,0.1,0,0.2,0,0.3c0,0.1,0,0.2,0,0.3c0,0.1,0,0.1,0.1,0.2
				c0,0,0.1,0.1,0.1,0.1c0,0,0.1,0.1,0.2,0.1c0.1,0,0.1,0,0.2,0c0,0,0.1,0,0.1-0.1c0,0,0-0.1,0.1-0.2c0-0.1,0-0.2,0-0.3
				c0-0.1,0-0.2,0-0.3C342.3,315.7,342.3,315.6,342.3,315.5 M344.8,322.6V319h-0.9v1.8l-1.1-1.8H342v3.5h0.9v-1.8l1.1,1.8H344.8z
				 M341,322.6v-0.8h-1.5v-0.6h1.3v-0.8h-1.3v-0.6h1.5V319h-2.4v3.5H341z M337.5,322.6v-0.8H336v-0.6h1.3v-0.8H336v-0.6h1.5V319
				h-2.4v3.5H337.5z M333.1,320.2c0,0.1,0,0.2-0.1,0.2c-0.1,0.1-0.2,0.1-0.3,0.1h-0.5v-0.7h0.5c0.1,0,0.2,0,0.3,0.1
				C333.1,320,333.1,320.1,333.1,320.2 M334.2,322.6l-0.8-1.5c0.1,0,0.1-0.1,0.2-0.1c0.1-0.1,0.1-0.1,0.2-0.2
				c0.1-0.1,0.1-0.2,0.1-0.3c0-0.1,0-0.2,0-0.3c0-0.1,0-0.3-0.1-0.4s-0.1-0.3-0.2-0.4c-0.1-0.1-0.2-0.2-0.4-0.3
				c-0.2-0.1-0.3-0.1-0.5-0.1h-1.4v3.5h0.9v-1.3h0.3l0.6,1.3H334.2z M330.4,321v-0.5H329v0.7h0.5v0c0,0.1,0,0.1,0,0.2
				s-0.1,0.1-0.1,0.2c0,0-0.1,0.1-0.1,0.1c-0.1,0-0.1,0-0.2,0c-0.1,0-0.1,0-0.2,0c-0.1,0-0.1-0.1-0.1-0.1c0,0,0-0.1-0.1-0.1
				c0,0,0-0.1,0-0.1c0-0.1,0-0.1,0-0.2c0-0.1,0-0.2,0-0.4c0-0.2,0-0.3,0-0.4c0-0.1,0-0.2,0-0.2c0-0.1,0-0.1,0-0.1c0,0,0-0.1,0.1-0.1
				c0,0,0.1-0.1,0.1-0.1c0.1,0,0.1,0,0.2,0c0.1,0,0.2,0,0.3,0.1c0.1,0,0.1,0.1,0.2,0.2l0.6-0.6c-0.1-0.1-0.2-0.1-0.2-0.2
				c-0.1-0.1-0.2-0.1-0.2-0.1c-0.1,0-0.2-0.1-0.3-0.1c-0.1,0-0.2,0-0.3,0c-0.2,0-0.4,0-0.6,0.1c-0.2,0.1-0.3,0.2-0.4,0.3
				c-0.1,0.1-0.2,0.2-0.2,0.3c0,0.1-0.1,0.2-0.1,0.3c0,0.1,0,0.2,0,0.4c0,0.1,0,0.3,0,0.4s0,0.3,0,0.4c0,0.1,0,0.3,0,0.4
				c0,0.1,0.1,0.2,0.1,0.3c0,0.1,0.1,0.2,0.2,0.3c0.1,0.1,0.3,0.2,0.4,0.3c0.2,0.1,0.3,0.1,0.6,0.1c0.2,0,0.4,0,0.6-0.1
				c0.2-0.1,0.3-0.2,0.4-0.3c0.1-0.1,0.1-0.1,0.2-0.2c0-0.1,0.1-0.2,0.1-0.3c0-0.1,0-0.2,0.1-0.3C330.4,321.3,330.4,321.1,330.4,321
				 M330.9,317.2v-0.8v-0.8c-0.2,0-0.5,0.1-0.7,0.1v0.8v0.8c-0.3,0.1-0.6,0.2-0.9,0.3v-2.1v-2.1c0.3,0,0.6,0,0.9,0v0.8v0.8
				c0.2,0,0.5-0.1,0.7-0.1v-0.8v-0.8c0.3,0,0.6,0,0.9,0v1.8v1.8C331.5,317.1,331.2,317.2,330.9,317.2 M332.7,316.8v-1.7v-1.7
				c0.7,0,1.3,0,2,0v0.6c-0.4,0-0.7,0-1.1,0v0.7c0.3,0,0.6,0,1,0v0.6c-0.3,0-0.6,0-1,0.1v0.8c0.4,0,0.7-0.1,1.1-0.1v0.6
				C334,316.6,333.3,316.7,332.7,316.8 M335.4,316.5V315v-1.6h0.9v1.3v1.3c0.4,0,0.7,0,1.1,0v0.6
				C336.8,316.5,336.1,316.5,335.4,316.5 M338.2,316.6V315v-1.6c0.3,0,0.6,0,0.9,0v1.4v1.4c0.4,0,0.7,0.1,1.1,0.1v0.6
				C339.5,316.8,338.8,316.7,338.2,316.6 M337.8,317.9c-0.1,0-0.2,0-0.3,0c0,0,0,0,0,0c0,0,0,0,0,0c0.1,0,0.2,0,0.4,0
				c0.6,0,1.4-0.1,1.7-0.2l0,0c0,0,0,0,0,0c0,0,0.1,0.1,0.1,0.1c0,0,0,0,0,0.1c0,0,0.1,0,0.1,0l0,0c0,0,0.1,0.1,0.1,0.1c0,0,0,0,0,0
				c0,0,0,0.1-0.1,0.1l0,0c0,0-0.1,0-0.1,0c0,0,0,0,0,0.1c0,0,0,0.1-0.1,0.1c0,0,0,0,0,0C339.4,318,338.4,317.9,337.8,317.9
				 M334.9,317.9c-0.1,0-0.2,0-0.3,0c-0.6,0-1.5,0-1.8,0.2c0,0,0,0,0,0c0,0-0.1-0.1-0.1-0.1l0,0l0,0c0,0,0,0,0-0.1c0,0-0.1,0-0.1,0
				l0,0c0,0-0.1-0.1-0.1-0.1c0,0,0,0,0,0c0,0,0-0.1,0.1-0.1l0,0c0,0,0.1,0,0.1,0c0,0,0,0,0-0.1l0,0c0,0,0-0.1,0.1-0.1c0,0,0,0,0,0
				l0,0c0.3,0.2,1.1,0.2,1.7,0.2C334.7,317.8,334.8,317.8,334.9,317.9C334.9,317.8,335,317.9,334.9,317.9
				C335,317.9,334.9,317.9,334.9,317.9 M336.7,317c0,0-0.1,0-0.1,0c-0.2,0.1-0.3,0.2-0.4,0.3c0,0.1-0.1,0.3-0.1,0.4
				c0.2-0.2,0.6-0.5,0.7-0.6c-0.2,0.2-0.8,0.7-1.1,0.9c0,0,0,0,0,0c0.1-0.1,0.1-0.1,0.2-0.2c0.1-0.1,0.1-0.2,0.1-0.3
				c0-0.1-0.1-0.2-0.1-0.2c-0.1-0.1-0.2,0-0.2,0.1c0,0,0,0.1-0.1,0.1c0,0.1,0,0.3,0.1,0.4c0-0.1,0.1-0.3,0.1-0.5
				c0,0.2-0.1,0.6-0.3,0.9c0,0,0,0.1,0.1,0c0.1,0,0.1-0.1,0.2-0.1c0.2-0.1,0.4,0.1,0.6,0.1c0.1,0,0.2,0,0.3-0.1
				c0.1,0,0.2-0.1,0.1-0.2c0-0.1-0.1-0.1-0.2-0.2c-0.1,0-0.2,0-0.3,0c-0.1,0-0.1,0.1-0.2,0.1c0,0-0.1,0.1-0.1,0.1
				c0.2,0,0.5-0.1,0.7,0c-0.4-0.1-0.7,0-0.9,0.1c0,0-0.1,0,0,0c0,0,0.2-0.2,0.2-0.2c0,0,0,0,0.1-0.1c0.2-0.2,0.3,0,0.5-0.1
				c0,0,0.1,0,0.1-0.1c0.1-0.1,0.3-0.3,0.3-0.5C337,317,336.9,317,336.7,317 M343.1,315.6c0,0.1,0,0.3,0,0.5c0,0.2,0,0.3,0,0.5
				c0,0.2,0,0.3-0.1,0.4c0,0.1-0.1,0.2-0.2,0.3c-0.1,0.1-0.2,0.1-0.4,0.2c-0.1,0-0.3,0-0.6,0c-0.1,0-0.2-0.1-0.3-0.1
				c-0.1,0-0.2-0.1-0.3-0.1c-0.1-0.1-0.1-0.1-0.2-0.2c-0.1-0.1-0.1-0.1-0.2-0.2c-0.1-0.1-0.1-0.2-0.2-0.3c0-0.1-0.1-0.3-0.1-0.4
				c0-0.1,0-0.3,0-0.4c0-0.1,0-0.3,0-0.4c0-0.1,0-0.3,0-0.4c0-0.1,0-0.3,0-0.4c0-0.1,0-0.3,0.1-0.4c0-0.1,0.1-0.2,0.2-0.3
				c0-0.1,0.1-0.1,0.2-0.1c0.1,0,0.1-0.1,0.2-0.1c0.1,0,0.2-0.1,0.3-0.1c0.1,0,0.2,0,0.3,0c0.2,0,0.4,0,0.6,0.1
				c0.1,0.1,0.3,0.2,0.4,0.3c0.1,0.1,0.1,0.2,0.2,0.4c0,0.1,0.1,0.3,0.1,0.5c0,0.2,0,0.3,0,0.5C343.1,315.3,343.1,315.4,343.1,315.6
				"/>
		</g>
	</g>
	<rect x="130.4" y="399.1" class="st9" width="583.3" height="64"/>
</g>
</svg>
