<?xml version="1.0" encoding="utf-8"?>
<!-- Generator: Adobe Illustrator 22.0.0, SVG Export Plug-In . SVG Version: 6.00 Build 0)  -->
<svg version="1.1" id="Layer_1" xmlns="http://www.w3.org/2000/svg" xmlns:xlink="http://www.w3.org/1999/xlink" x="0px" y="0px"
	 viewBox="0 0 660 660" style="enable-background:new 0 0 660 660;" xml:space="preserve">
<style type="text/css">
	.st0{fill-rule:evenodd;clip-rule:evenodd;fill:none;stroke:#999999;stroke-width:2;stroke-miterlimit:22.9256;}
	.st1{fill-rule:evenodd;clip-rule:evenodd;fill:#ED1C24;}
	.st2{fill:#ED1C24;}
	.st3{fill-rule:evenodd;clip-rule:evenodd;fill:none;stroke:#494949;stroke-width:4;stroke-miterlimit:22.9256;}
	.st4{fill:#494949;}
	.st5{fill-rule:evenodd;clip-rule:evenodd;fill:#43413F;}
	.st6{fill-rule:evenodd;clip-rule:evenodd;fill:none;stroke:#000000;stroke-width:1.1339;stroke-miterlimit:22.9256;}
	.st7{fill-rule:evenodd;clip-rule:evenodd;fill:#D9E021;}
	.st8{fill:#F5BB41;}
</style>
<g>
	<line class="st0" x1="469" y1="408.2" x2="469" y2="392.8"/>
	<path class="st0" d="M453.6,391.1c2.6,4.1,7,7.3,11.4,8"/>
	<path class="st0" d="M469,399.2c7.1-0.2,14-4.8,15.5-9.5c3.4-9.2,3.7-14.2,1.8-18c-1.1-2.2-2.7-4-2.6-6.7c0-7.1-8.5-11.8-14.7-10.7
		c-0.5,0.1-2.6,0.6-4.3,1.1"/>
	<line class="st0" x1="432.9" y1="384.1" x2="421.7" y2="377.2"/>
	<line class="st0" x1="432.9" y1="374.4" x2="442" y2="368.8"/>
	<line class="st0" x1="432.9" y1="366.7" x2="426.2" y2="362.6"/>
	<path class="st0" d="M426,393.4c-9.9-1.6-17.7-6.9-19.7-14.3c-4.8-14.4-4.7-22.2-1.2-28.2c0.6-1,1.2-1.9,1.9-2.8
		c1.6-2.4,3.1-4.6,3.2-7.6c0.3-5.5,4.9-9.8,8.9-12.7c14.5-10.6,34.2-2.4,41.1,14c3.2,7.6-1.3,13.4,1.5,16.7c3.3,3.8,2.4,12,1.3,16.5
		c-2.6,10.8-18.6,19-29.7,19"/>
	<line class="st0" x1="432.9" y1="408.1" x2="432.9" y2="357.2"/>
	<polygon class="st1" points="334.2,356.4 334.2,329.6 372,329.6 372,335.6 342,335.6 342,355 	"/>
	<g>
		<path class="st2" d="M372.1,357.3c0,0,1.5,10.5-4.7,10.5c0,0,0,0,0,0c3.6,4.9,5.9,10.8,6.2,17.3h41v-27.8L372.1,357.3z"/>
	</g>
	<line class="st3" x1="406.6" y1="361.9" x2="406.6" y2="373"/>
	<line class="st3" x1="400.6" y1="361.9" x2="400.6" y2="373"/>
	<line class="st3" x1="394.7" y1="361.9" x2="394.7" y2="373"/>
	<path class="st3" d="M388.8,357.3v-17.2c0.4-1.5,1.7-2.5,4.2-2.5"/>
	<polyline class="st3" points="367.7,385 414.6,385 414.6,357.2 372.1,357.3 372,329.6 334.2,329.6 334.2,356.4 	"/>
	<rect x="172.6" y="407" class="st4" width="314.8" height="64"/>
	<path class="st5" d="M403.2,377.6c-8.4,0-15.2,6.8-15.2,15.2c0,8.4,6.8,15.2,15.2,15.2c8.4,0,15.2-6.8,15.2-15.2
		C418.3,384.4,411.5,377.6,403.2,377.6z M403.2,399.1c-3.4,0-6.2-2.8-6.2-6.2c0-3.4,2.8-6.2,6.2-6.2c3.4,0,6.2,2.8,6.2,6.2
		C409.4,396.3,406.6,399.1,403.2,399.1z"/>
	<path class="st5" d="M342.1,365.2c-11.8,0-21.4,9.6-21.4,21.4c0,11.8,9.6,21.4,21.4,21.4c11.8,0,21.4-9.6,21.4-21.4
		C363.5,374.8,353.9,365.2,342.1,365.2z M342.1,395.4c-4.9,0-8.8-3.9-8.8-8.8c0-4.9,3.9-8.8,8.8-8.8c4.9,0,8.8,3.9,8.8,8.8
		C350.9,391.5,347,395.4,342.1,395.4z"/>
	<g>
		<line class="st6" x1="309.5" y1="292.1" x2="317.4" y2="292.1"/>
		<line class="st3" x1="301.1" y1="338.1" x2="271.2" y2="408.8"/>
		<line class="st3" x1="313.2" y1="339.7" x2="313.2" y2="408.4"/>
		<line class="st3" x1="325.4" y1="338.1" x2="327.9" y2="344.1"/>
		<path class="st7" d="M322.3,281.9l14.1-23.8c4.3,2.9,8,6.6,10.9,10.9l-23.8,14.1L322.3,281.9z"/>
		<path class="st7" d="M323.4,301.2l23.8,14.1c-2.9,4.3-6.6,8-10.9,10.9l-14.1-23.8L323.4,301.2z"/>
		<path class="st7" d="M314,305.8l6.9,26.8c-2.5,0.5-5.1,0.7-7.7,0.7c-2.6,0-5.2-0.2-7.7-0.7l6.9-26.8H314z"/>
		<path class="st7" d="M304.1,302.4l-14.1,23.8c-4.3-2.9-8-6.6-10.9-10.9l23.8-14.1L304.1,302.4z"/>
		<path class="st7" d="M299.6,293l-26.8,6.9c-0.5-2.5-0.7-5.1-0.7-7.7c0-2.6,0.2-5.2,0.7-7.7l26.8,6.9V293z"/>
		<path class="st7" d="M303,283.1L279.2,269c2.9-4.3,6.6-8,10.9-10.9l14.1,23.8L303,283.1z"/>
		<path class="st7" d="M312.4,278.5l-6.9-26.8c2.5-0.5,5.1-0.7,7.7-0.7c2.6,0,5.2,0.3,7.7,0.7l-6.9,26.8H312.4z"/>
	</g>
	<path class="st7" d="M326.9,291.3l26.8-6.9c0.5,2.5,0.7,5.1,0.7,7.7c0,2.6-0.2,5.2-0.7,7.7l-26.8-6.9V291.3z"/>
	<path class="st3" d="M373.6,385c-0.8-16.7-14.6-30-31.5-30c-5.5,0-10.8,1.4-15.3,3.9l2.8,6"/>
	<line class="st3" x1="372" y1="357.3" x2="372" y2="363.3"/>
	<g>
		<path class="st8" d="M192.1,332.8l-0.3-4c0.8-0.1,3.1-0.9,3.5-1.4c0.3-0.5,0.1-2.7,0.1-3.6l0-0.4l4-0.2l0,0.4
			c0.1,2.1,0.3,4.4-0.7,6C197.3,331.7,193,332.7,192.1,332.8z"/>
		<path class="st8" d="M189.7,332.8c-1-0.1-5.3-1.1-6.6-3.2c-1-1.6-0.8-3.9-0.7-5.9l0-0.5l4,0.2l0,0.5c-0.1,0.9-0.2,3.1,0.1,3.6
			c0.4,0.5,2.7,1.3,3.5,1.3L189.7,332.8z"/>
		<rect x="183.1" y="310.4" class="st8" width="4" height="9.5"/>
		<rect x="188.9" y="308.8" class="st8" width="4" height="8.1"/>
		<rect x="194.6" y="310.4" class="st8" width="4" height="9.5"/>
		<line class="st3" x1="190.9" y1="353.6" x2="190.9" y2="408.1"/>
		<rect x="188.9" y="319.2" class="st8" width="4" height="8.1"/>
		<path class="st8" d="M192.1,340.8l-0.3-4c0.8-0.1,3-0.9,3.5-1.4c0.3-0.5,0.1-2.7,0.1-3.6l0-0.4l4-0.2l0,0.4c0.1,2.1,0.3,4.4-0.7,6
			C197.3,339.8,193,340.8,192.1,340.8z"/>
		<path class="st8" d="M189.7,340.8c-1-0.1-5.3-1.1-6.6-3.2c-1-1.6-0.8-3.9-0.7-5.9l0-0.4l4,0.2l0,0.5c-0.1,0.9-0.2,3.1,0.1,3.6
			c0.4,0.5,2.7,1.3,3.5,1.3L189.7,340.8z"/>
		<path class="st8" d="M192.1,348.9l-0.3-4c0.8-0.1,3-0.9,3.5-1.4c0.3-0.5,0.1-2.7,0.1-3.6l0-0.4l4-0.2l0,0.4c0.1,2.1,0.3,4.4-0.7,6
			C197.3,347.8,193,348.8,192.1,348.9z"/>
		<path class="st8" d="M189.7,348.9c-1-0.1-5.3-1.1-6.6-3.2c-1-1.6-0.8-3.9-0.7-5.9l0-0.4l4,0.2l0,0.5c-0.1,0.9-0.2,3.1,0.1,3.6
			c0.4,0.5,2.7,1.3,3.5,1.3L189.7,348.9z"/>
		<path class="st8" d="M192.1,356.9l-0.3-4c0.8-0.1,3-0.9,3.5-1.4c0.3-0.5,0.1-2.7,0.1-3.6l0-0.4l4-0.2l0,0.4c0.1,2.1,0.3,4.4-0.7,6
			C197.3,355.9,193,356.9,192.1,356.9z"/>
		<path class="st8" d="M189.7,356.9c-1-0.1-5.3-1.1-6.6-3.2c-1-1.6-0.8-3.9-0.7-5.9l0-0.5l4,0.2l0,0.5c-0.1,0.9-0.2,3.1,0.1,3.6
			c0.4,0.5,2.7,1.3,3.5,1.3L189.7,356.9z"/>
		<path class="st3" d="M201.3,373.3c-6.6,4.2-9.3,8.7-10.4,16.9"/>
		<path class="st3" d="M178.7,363.7c7.7,5.7,10.8,11.7,12.1,22.8"/>
		<path class="st8" d="M222.3,323.9l-0.3-4c0.9-0.1,3.6-1,4.1-1.6c0.4-0.6,0.2-3.1,0.1-4.1l0-0.5l4-0.2l0,0.5
			c0.1,2.3,0.3,4.8-0.8,6.5C228.1,322.6,223.6,323.8,222.3,323.9z"/>
		<path class="st8" d="M219.7,323.9c-1.3-0.1-5.8-1.3-7.2-3.5c-1-1.7-0.9-4.2-0.8-6.5l0-0.5l4,0.2l0,0.5c-0.1,1.1-0.2,3.6,0.2,4.2
			c0.5,0.6,3.2,1.6,4,1.6L219.7,323.9z"/>
		<rect x="212.6" y="299.2" class="st8" width="4" height="10.6"/>
		<rect x="219" y="297.4" class="st8" width="4" height="9"/>
		<rect x="225.4" y="299.2" class="st8" width="4" height="10.6"/>
		<line class="st3" x1="221" y1="347.3" x2="221" y2="408.1"/>
		<rect x="219" y="308.9" class="st8" width="4" height="9"/>
		<path class="st8" d="M222.3,332.9l-0.3-4c0.9-0.1,3.6-1,4.1-1.6c0.4-0.6,0.2-3.1,0.1-4.1l0-0.5l4-0.2l0,0.5
			c0.1,2.3,0.3,4.8-0.8,6.5C228.1,331.7,223.4,332.8,222.3,332.9z"/>
		<path class="st8" d="M219.7,332.9c-1.1-0.1-5.7-1.2-7.2-3.5c-1-1.7-0.9-4.2-0.8-6.5l0-0.5l4,0.2l0,0.5c-0.1,1.1-0.2,3.6,0.2,4.2
			c0.5,0.6,3.2,1.6,4,1.6L219.7,332.9z"/>
		<path class="st8" d="M222.3,341.9l-0.3-4c0.9-0.1,3.6-1,4.1-1.6c0.4-0.6,0.2-3.1,0.1-4.1l0-0.5l4-0.2l0,0.5
			c0.1,2.3,0.3,4.8-0.8,6.5C228.1,340.6,223.6,341.8,222.3,341.9z"/>
		<path class="st8" d="M219.7,341.9c-1.3-0.1-5.8-1.3-7.2-3.5c-1-1.7-0.9-4.2-0.8-6.5l0-0.5l4,0.2l0,0.5c-0.1,1.1-0.2,3.6,0.2,4.2
			c0.5,0.6,3.2,1.6,4,1.6L219.7,341.9z"/>
		<path class="st8" d="M222.3,350.8l-0.3-4c0.9-0.1,3.6-1,4.1-1.6c0.4-0.6,0.2-3.1,0.1-4.1l0-0.5l4-0.2l0,0.5
			c0.1,2.3,0.3,4.8-0.8,6.5C228.1,349.7,223.4,350.8,222.3,350.8z"/>
		<path class="st8" d="M219.7,350.8c-1.1-0.1-5.7-1.2-7.2-3.5c-1-1.7-0.9-4.2-0.8-6.5l0-0.5l4,0.2l0,0.5c-0.1,1.1-0.2,3.6,0.2,4.2
			c0.5,0.6,3.2,1.6,4,1.6L219.7,350.8z"/>
		<path class="st3" d="M232.6,369.4c-7.4,4.7-10.4,9.7-11.6,18.9"/>
		<path class="st3" d="M207.5,358.6c8.6,6.4,12.1,13,13.5,25.4"/>
		<path class="st8" d="M254,332.8l-0.3-4c0.8-0.1,3.1-0.9,3.5-1.4c0.3-0.5,0.1-2.6,0.1-3.6l0-0.4l4-0.2l0,0.4c0.1,2.1,0.3,4.4-0.7,6
			C259.2,331.7,254.9,332.7,254,332.8z"/>
		<path class="st8" d="M251.6,332.8c-1-0.1-5.3-1.1-6.6-3.2c-1-1.6-0.8-3.9-0.7-6l0-0.4l4,0.2l0,0.4c-0.1,0.9-0.2,3.1,0.1,3.6
			c0.4,0.5,2.7,1.3,3.5,1.4L251.6,332.8z"/>
		<rect x="245" y="310.4" class="st8" width="4" height="9.5"/>
		<rect x="250.8" y="308.8" class="st8" width="4" height="8.1"/>
		<rect x="256.5" y="310.4" class="st8" width="4" height="9.5"/>
		<line class="st3" x1="252.8" y1="353.6" x2="252.8" y2="408.1"/>
		<rect x="250.8" y="319.2" class="st8" width="4" height="8.1"/>
		<path class="st8" d="M253.9,340.8l-0.3-4c0.8-0.1,3.1-0.9,3.5-1.4c0.3-0.5,0.1-2.7,0.1-3.6l0-0.4l4-0.2l0,0.4
			c0.1,2.1,0.3,4.4-0.7,6C259.2,339.8,254.9,340.8,253.9,340.8z"/>
		<path class="st8" d="M251.6,340.8c-1-0.1-5.3-1.1-6.6-3.2c-1-1.6-0.8-3.9-0.7-6l0-0.4l4,0.2l0,0.4c-0.1,0.9-0.2,3.1,0.1,3.6
			c0.4,0.5,2.7,1.3,3.5,1.4L251.6,340.8z"/>
		<path class="st8" d="M253.9,348.9l-0.3-4c0.8-0.1,3.1-0.9,3.5-1.4c0.3-0.5,0.1-2.7,0.1-3.6l0-0.4l4-0.2l0,0.4
			c0.1,2.1,0.3,4.4-0.7,6C259.2,347.8,254.9,348.8,253.9,348.9z"/>
		<path class="st8" d="M251.6,348.9c-1-0.1-5.3-1.1-6.6-3.2c-1-1.6-0.8-3.9-0.7-6l0-0.4l4,0.2l0,0.4c-0.1,0.9-0.2,3.1,0.1,3.6
			c0.4,0.5,2.7,1.3,3.5,1.3L251.6,348.9z"/>
		<path class="st8" d="M253.9,356.9l-0.3-4c0.8-0.1,3.1-0.9,3.5-1.4c0.3-0.5,0.1-2.7,0.1-3.6l0-0.4l4-0.2l0,0.4
			c0.1,2.1,0.3,4.4-0.7,6C259.2,355.9,254.9,356.9,253.9,356.9z"/>
		<path class="st8" d="M251.6,356.9c-1-0.1-5.3-1.1-6.6-3.2c-1-1.6-0.8-3.9-0.7-6l0-0.4l4,0.2l0,0.4c-0.1,0.9-0.2,3.1,0.1,3.6
			c0.4,0.5,2.7,1.3,3.5,1.4L251.6,356.9z"/>
		<path class="st3" d="M263.2,373.3c-6.6,4.2-9.3,8.7-10.4,16.9"/>
		<path class="st3" d="M240.6,363.7c7.7,5.7,10.8,11.7,12.1,22.8"/>
	</g>
</g>
</svg>
