<?xml version="1.0" encoding="utf-8"?>
<!-- Generator: Adobe Illustrator 22.0.0, SVG Export Plug-In . SVG Version: 6.00 Build 0)  -->
<svg version="1.1" id="Layer_1" xmlns="http://www.w3.org/2000/svg" xmlns:xlink="http://www.w3.org/1999/xlink" x="0px" y="0px"
	 viewBox="0 0 319.8 341.9" style="enable-background:new 0 0 319.8 341.9;" xml:space="preserve">
<style type="text/css">
	.st0{fill:#008C42;}
</style>
<path class="st0" d="M202.4,153.1c0-0.8,0-1.7,0-2.5c0-0.8,0-1.6-0.1-2.4c-0.1-0.7-0.1-1.4-0.3-2c-0.1-0.6-0.3-1-0.4-1.4
	c-0.2-0.3-0.4-0.6-0.7-0.8c-0.3-0.2-0.8-0.3-1.3-0.4c-0.6,0-1,0.1-1.3,0.2c-0.3,0.2-0.5,0.4-0.7,0.7c-0.2,0.3-0.3,0.7-0.4,1.3
	c-0.1,0.5-0.2,1.2-0.3,1.9c-0.1,0.7-0.1,1.4-0.1,2.2c0,0.8,0,1.6,0,2.4c0,0.8,0,1.6,0,2.4c0,0.8,0,1.6,0.1,2.3
	c0.1,0.7,0.1,1.4,0.3,1.9c0.1,0.6,0.3,1,0.4,1.4c0.2,0.3,0.4,0.6,0.7,0.9c0.3,0.3,0.7,0.5,1.3,0.6c0.6,0.1,1,0.1,1.3,0
	c0.3-0.1,0.6-0.3,0.7-0.6c0.2-0.3,0.3-0.7,0.4-1.3c0.1-0.6,0.2-1.2,0.3-1.9c0.1-0.7,0.1-1.5,0.1-2.4
	C202.4,154.8,202.4,153.9,202.4,153.1 M220,203v-24.9h-6.1v12.5l-8-12.5h-5.4V203h6.1v-12.5l8,12.5H220z M193.1,203v-5.5h-10.8v-4.4
	h9.2v-5.5h-9.2v-4.2h10.8v-5.5h-16.9V203H193.1z M168.7,203v-5.5h-10.8v-4.4h9.2v-5.5h-9.2v-4.2h10.8v-5.5h-16.9V203H168.7z
	 M138.1,186.1c0,0.7-0.2,1.2-0.7,1.8c-0.5,0.5-1.1,0.8-2,0.8H132v-5h3.5c0.8,0,1.5,0.3,2,0.8C137.9,184.9,138.1,185.4,138.1,186.1z
	 M145.6,203l-5.4-10.4c0.5-0.3,1-0.6,1.5-1c0.5-0.4,0.9-0.8,1.3-1.4c0.4-0.5,0.7-1.2,0.9-1.9c0.2-0.7,0.4-1.5,0.4-2.3
	c0-1-0.2-2-0.5-3c-0.4-1-0.9-1.8-1.6-2.6c-0.7-0.7-1.6-1.3-2.7-1.8c-1.1-0.5-2.3-0.7-3.7-0.7h-9.9V203h6.1v-9.3h2.1l4.4,9.3H145.6z
	 M118.8,192v-3.4h-9.5v5.1h3.4v0.3c0,0.4-0.1,0.9-0.2,1.4c-0.1,0.5-0.4,1-0.7,1.3c-0.3,0.3-0.6,0.5-1,0.7c-0.4,0.2-0.9,0.3-1.5,0.3
	c-0.6,0-1-0.1-1.5-0.3c-0.4-0.2-0.7-0.4-1-0.8c-0.1-0.2-0.3-0.4-0.4-0.6c-0.1-0.2-0.2-0.6-0.3-1c-0.1-0.4-0.1-1-0.2-1.7
	c0-0.7-0.1-1.6-0.1-2.8s0-2.1,0.1-2.8c0-0.7,0.1-1.3,0.2-1.7c0.1-0.4,0.2-0.8,0.3-1c0.1-0.2,0.2-0.4,0.4-0.6c0.2-0.3,0.6-0.6,1-0.8
	c0.4-0.2,0.9-0.3,1.5-0.3c0.8,0,1.4,0.1,1.9,0.4c0.5,0.3,1,0.7,1.6,1.3l4.2-4.2c-0.6-0.6-1.1-1-1.6-1.4c-0.5-0.4-1.1-0.7-1.7-1
	s-1.2-0.4-2-0.5c-0.7-0.1-1.5-0.2-2.4-0.2c-1.5,0-2.8,0.2-3.9,0.7c-1.1,0.5-2.1,1.2-3,2.1c-0.7,0.7-1.2,1.4-1.5,2.1
	c-0.3,0.8-0.6,1.6-0.8,2.4c-0.2,0.8-0.2,1.7-0.2,2.6c0,0.9,0,1.8,0,2.7c0,0.9,0,1.8,0,2.7c0,0.9,0.1,1.8,0.2,2.6
	c0.2,0.8,0.4,1.6,0.8,2.4c0.4,0.8,0.9,1.5,1.5,2.1c0.9,0.9,1.9,1.6,3,2.1s2.4,0.7,3.9,0.7c1.5,0,2.8-0.2,4-0.7
	c1.1-0.5,2.2-1.2,3.1-2.2c0.5-0.5,0.9-1,1.2-1.6c0.3-0.5,0.6-1.2,0.8-1.8c0.2-0.7,0.3-1.4,0.4-2.2C118.7,193.9,118.8,193,118.8,192z
	 M122.4,165.5c0-1.9,0-3.7,0-5.6c0-1.9,0-3.7,0-5.6c-1.7,0.3-3.3,0.6-5,0.9c0,2,0,3.9,0,5.9c0,2,0,3.9,0,5.9c-2,0.7-4,1.4-6,2.1
	c0-5,0-10,0-15c0-5,0-10,0-15c2,0,4,0,6,0c0,1.9,0,3.8,0,5.6c0,1.9,0,3.8,0,5.6c1.7-0.2,3.3-0.4,5-0.6c0-1.8,0-3.6,0-5.3
	c0-1.8,0-3.6,0-5.3c2,0,4,0,6,0c0,4.2,0,8.4,0,12.6c0,4.2,0,8.4,0,12.6C126.4,164.5,124.4,165,122.4,165.5z M134.9,162.6
	c0-3.9,0-7.9,0-11.8c0-3.9,0-7.9,0-11.8c4.6,0,9.2,0,13.9,0c0,1.3,0,2.6,0,4c-2.6,0-5.2,0.1-7.9,0.1c0,1.7,0,3.4,0,5.2
	c2.3-0.1,4.5-0.2,6.8-0.3c0,1.3,0,2.7,0,4c-2.3,0.1-4.5,0.3-6.8,0.4c0,1.8,0,3.6,0,5.3c2.6-0.2,5.2-0.4,7.9-0.6c0,1.3,0,2.6,0,4
	C144.2,161.4,139.5,161.9,134.9,162.6z M154.3,160.7c0-3.6,0-7.3,0-10.9c0-3.6,0-7.3,0-10.9c2,0,4,0,6,0c0,3,0,5.9,0,8.9
	c0,3,0,5.9,0,8.9c2.6,0.1,5.2,0.1,7.9,0.3c0,1.3,0,2.6,0,4C163.6,160.7,159,160.6,154.3,160.7z M173.4,161.4c0-3.8,0-7.5,0-11.3
	c0-3.8,0-7.5,0-11.3c2,0,4,0,6,0c0,3.2,0,6.4,0,9.5s0,6.4,0,9.5c2.6,0.3,5.2,0.7,7.9,1.1c0,1.5,0,2.9,0,4.4
	C182.6,162.6,178,162,173.4,161.4z M171.1,170.4c-0.8,0-1.5,0-2-0.1c-0.1,0-0.2-0.1-0.2-0.2c0-0.1,0.1-0.2,0.2-0.2
	c0.8-0.1,1.8-0.1,2.9-0.1c4.1-0.2,9.9-0.4,11.9-1.6l0,0c0.1,0,0.2,0,0.2,0c0.3,0.2,0.5,0.4,0.6,0.6c0.1,0.2,0.1,0.3,0.1,0.5
	c0.2,0,0.5,0.1,0.6,0.2l0,0c0.3,0.2,0.5,0.4,0.6,0.6c0,0,0,0.1,0,0.1c-0.1,0.2-0.3,0.4-0.6,0.6v0c-0.2,0.1-0.4,0.2-0.6,0.2
	c0,0.2,0,0.3-0.1,0.5c-0.1,0.2-0.3,0.4-0.6,0.6c-0.1,0.1-0.2,0.1-0.2,0C181.8,170.7,175.2,170.5,171.1,170.4z M150.7,170.3
	c-0.5,0-1.2,0-2,0.1c-4,0.1-10.7,0.3-12.7,1.6c-0.1,0-0.2,0-0.3,0c-0.3-0.2-0.5-0.4-0.6-0.6v0h0c-0.1-0.2-0.1-0.3-0.1-0.5
	c-0.3,0-0.5-0.1-0.6-0.2l0,0c-0.3-0.2-0.5-0.4-0.6-0.6c0,0,0-0.1,0-0.1c0.1-0.2,0.3-0.4,0.6-0.6l0,0c0.2-0.1,0.4-0.2,0.6-0.2
	c0-0.2,0-0.3,0.1-0.5l0,0c0.1-0.2,0.3-0.4,0.6-0.6c0.1,0,0.2,0,0.2,0v0c1.9,1.2,7.7,1.4,11.9,1.6c1.1,0,2.1,0.1,2.9,0.1
	c0.1,0,0.2,0.1,0.2,0.2C150.9,170.2,150.8,170.3,150.7,170.3z M162.9,164.3c-0.4,0.1-0.7,0.2-1,0.3c-1.1,0.4-2.2,1.1-2.8,2.2
	c-0.3,0.6-0.7,1.8-0.5,2.6c1.5-1.4,4-3.2,5.1-3.9c-1.7,1.5-5.4,4.6-7.7,6.5c-0.1,0.1-0.1-0.1-0.1-0.2c0.4-0.9,1-1,1.5-1.7
	c0.6-0.7,0.8-1.6,0.5-2.4c-0.1-0.5-0.5-1.2-0.9-1.6c-0.7-0.5-1.2,0.2-1.5,0.6c-0.1,0.2-0.3,0.6-0.4,0.9c-0.2,0.9-0.1,2.3,0.4,2.9
	c0.3-0.9,0.7-2.2,0.9-3.2c0.1,1.5-0.7,4.4-2,6.1c0,0.1,0.2,0.4,0.4,0.3c0.4-0.2,0.8-0.4,1.3-0.6c1.6-0.7,2.6,0.6,4.2,0.7
	c0.8,0,1.4-0.2,1.9-0.5c0.5-0.3,1.2-0.8,1-1.5c-0.2-0.6-0.7-0.9-1.4-1.1c-0.7-0.2-1.5-0.2-2.2-0.1c-0.6,0.1-1,0.4-1.5,0.7
	c-0.3,0.2-0.5,0.4-0.7,0.6c1.7-0.3,3.2-0.5,5,0.1c-3-0.4-5,0.2-6.2,0.5c-0.3,0.1-0.4,0.1-0.1-0.2c0.3-0.3,1.3-1.2,1.4-1.3
	c0.2-0.2,0.3-0.3,0.5-0.5c1.3-1.1,2.2-0.2,3.8-0.9c0.3-0.1,0.5-0.3,0.8-0.5c1-0.7,1.9-2.1,2.2-3.3
	C165.5,164.2,164.5,163.8,162.9,164.3z M208.4,154c0,1,0,2.1,0,3.2c0,1.1-0.1,2.3-0.2,3.4c-0.1,1.1-0.3,2.1-0.6,3
	c-0.3,0.9-0.8,1.6-1.4,2.2c-0.7,0.6-1.6,1-2.6,1.3c-1,0.3-2.4,0.1-4.1-0.3c-0.8-0.2-1.6-0.5-2.3-0.8c-0.7-0.3-1.2-0.7-1.8-1
	c-0.5-0.4-1-0.7-1.4-1.1c-0.4-0.4-0.8-0.8-1.1-1.2c-0.6-0.7-1-1.5-1.4-2.4c-0.3-0.9-0.5-1.8-0.6-2.8c-0.1-1-0.2-1.9-0.2-2.9
	c0-1,0-1.9,0-2.7c0-0.9,0-1.8,0-2.7c0-1,0.1-1.9,0.2-2.9c0.1-0.9,0.3-1.8,0.6-2.7c0.3-0.8,0.8-1.5,1.4-2.2c0.3-0.4,0.7-0.7,1.1-1
	c0.4-0.3,0.9-0.6,1.4-0.8c0.5-0.2,1.1-0.4,1.8-0.6c0.7-0.1,1.4-0.2,2.3-0.2c1.7,0,3,0.3,4.1,0.8c1,0.6,1.9,1.3,2.6,2.1
	c0.6,0.7,1,1.6,1.4,2.6c0.3,1,0.5,2.1,0.6,3.2c0.1,1.1,0.2,2.3,0.2,3.4C208.4,151.9,208.4,153,208.4,154z"/>
</svg>
