<svg xmlns="http://www.w3.org/2000/svg" xmlns:xlink="http://www.w3.org/1999/xlink" preserveAspectRatio="xMidYMid" width="112.906" height="60.031" viewBox="0 0 112.906 60.031">
  <defs>
    <style>
      .cls-1 {
        fill: #fff;
        fill-rule: evenodd;
      }
    </style>
  </defs>
  <path d="M95.753,12.991 C95.753,12.204 95.748,11.885 95.734,11.096 C95.720,10.309 95.692,9.568 95.641,8.874 C95.589,8.182 95.510,7.562 95.406,7.010 C95.304,6.466 95.173,6.040 95.013,5.737 C94.854,5.437 94.628,5.184 94.329,4.974 C94.029,4.763 93.554,4.650 93.029,4.625 C92.504,4.601 92.680,4.673 92.399,4.851 C92.127,5.024 91.913,5.249 91.753,5.523 C91.594,5.796 91.467,6.185 91.359,6.692 C91.251,7.200 91.177,7.779 91.125,8.425 C91.073,9.077 91.045,9.772 91.031,10.515 C91.017,11.258 91.013,12.005 91.013,12.751 C91.013,13.500 91.017,13.211 91.031,13.960 C91.045,14.706 91.074,15.413 91.125,16.073 C91.177,16.736 91.252,17.335 91.359,17.871 C91.467,18.409 91.594,18.832 91.753,19.146 C91.913,19.464 92.126,19.745 92.399,19.993 C92.679,20.246 92.505,20.423 93.029,20.539 C93.554,20.655 94.029,20.651 94.329,20.522 C94.628,20.393 94.854,20.199 95.013,19.941 C95.173,19.682 95.303,19.289 95.406,18.771 C95.509,18.254 95.589,17.657 95.641,16.982 C95.692,16.302 95.720,15.572 95.734,14.789 C95.748,14.006 95.753,13.780 95.753,12.991 M112.904,59.975 L112.904,36.070 L107.036,36.070 L107.036,47.892 L99.760,36.070 L94.930,36.070 L94.930,59.975 L100.862,59.975 L100.862,47.762 L107.884,59.975 L112.904,59.975 ZM87.887,59.975 L87.887,54.075 L76.942,54.075 L76.942,49.973 L85.828,49.973 L85.828,45.121 L76.942,45.121 L76.942,41.998 L87.887,41.998 L87.887,36.070 L70.965,36.070 L70.965,59.975 L87.887,59.975 ZM64.873,59.975 L64.873,54.063 L53.931,54.063 L53.931,49.982 L62.918,49.982 L62.918,45.119 L53.931,45.119 L53.931,42.026 L64.873,42.026 L64.873,36.066 L47.924,36.066 L47.924,59.975 L64.873,59.975 ZM36.271,43.685 C36.271,44.292 36.054,44.835 35.621,45.312 C35.188,45.790 34.581,46.028 33.801,46.028 L29.905,46.028 L29.905,41.200 L33.801,41.200 C34.581,41.200 35.188,41.439 35.621,41.916 C36.054,42.394 36.271,43.077 36.271,43.685 ZM43.299,60.022 L38.295,49.748 C38.750,49.509 39.205,49.210 39.660,48.852 C40.115,48.495 40.521,48.066 40.878,47.566 C41.236,47.067 41.523,46.493 41.740,45.841 C41.956,45.190 42.065,44.474 42.065,43.693 C42.065,42.739 41.897,41.676 41.561,40.786 C41.225,39.896 40.722,39.104 40.050,38.409 C39.379,37.715 38.550,37.156 37.564,36.733 C36.579,36.310 35.447,36.098 34.169,36.098 L24.005,36.098 L24.005,60.022 L30.012,60.022 L30.012,50.789 L32.609,50.789 L36.703,60.022 L43.299,60.022 ZM18.007,49.522 L18.007,47.041 L8.988,47.041 L8.988,51.056 L12.429,51.056 L12.429,51.317 C12.429,51.707 12.364,52.246 12.234,52.745 C12.104,53.244 11.888,53.646 11.585,53.949 C11.324,54.231 11.021,54.453 10.675,54.616 C10.328,54.779 9.851,54.861 9.245,54.861 C8.725,54.861 7.939,54.768 7.560,54.584 C7.181,54.399 6.883,54.166 6.667,53.884 C6.537,53.711 6.417,53.515 6.309,53.298 C6.201,53.081 6.114,52.766 6.049,52.354 C5.984,51.942 5.930,51.405 5.887,50.743 C5.843,50.081 5.822,48.890 5.822,47.827 C5.822,46.764 5.843,45.997 5.887,45.336 C5.930,44.674 5.984,44.143 6.049,43.741 C6.114,43.339 6.201,43.030 6.309,42.813 C6.417,42.596 6.537,42.401 6.667,42.227 C6.883,41.945 7.181,41.707 7.560,41.511 C7.939,41.316 8.725,41.218 9.245,41.218 C9.981,41.218 10.577,41.354 11.032,41.625 C11.487,41.896 11.985,42.314 12.527,42.878 L16.394,39.005 C15.874,38.484 15.365,38.039 14.866,37.670 C14.368,37.301 13.843,37.003 13.290,36.775 C12.738,36.548 12.132,36.384 11.471,36.287 C10.810,36.189 10.068,36.140 9.245,36.140 C7.837,36.140 6.155,36.363 5.136,36.807 C4.118,37.253 3.187,37.898 2.342,38.744 C1.736,39.352 1.270,40.008 0.945,40.713 C0.620,41.419 0.387,42.162 0.246,42.943 C0.105,43.724 0.030,44.533 0.019,45.368 C0.008,46.204 0.003,46.959 0.003,47.827 C0.003,48.695 0.008,49.875 0.019,50.710 C0.030,51.546 0.105,52.354 0.246,53.136 C0.387,53.917 0.620,54.660 0.945,55.365 C1.270,56.070 1.736,56.727 2.342,57.334 C3.187,58.181 4.129,58.826 5.169,59.271 C6.209,59.716 7.880,59.939 9.245,59.939 C10.631,59.939 11.855,59.716 12.917,59.271 C13.978,58.826 14.866,58.159 15.732,57.269 C16.165,56.813 16.528,56.331 16.821,55.821 C17.113,55.311 17.346,54.747 17.519,54.128 C17.693,53.510 17.817,52.821 17.893,52.061 C17.969,51.302 18.007,50.456 18.007,49.522 ZM21.916,24.564 C21.916,22.840 21.916,21.116 21.916,19.392 C21.916,17.668 21.916,15.941 21.916,14.214 C20.370,14.480 17.488,14.743 15.951,15.006 C15.951,16.828 15.951,18.646 15.951,20.464 C15.951,22.282 15.951,24.098 15.951,25.916 C14.096,26.551 11.856,27.194 10.001,27.835 C10.001,23.175 10.001,18.514 10.001,13.854 C10.001,9.194 10.001,4.759 10.001,0.096 C11.856,0.090 14.096,0.084 15.951,0.076 C15.951,1.823 15.951,3.344 15.951,5.088 C15.951,6.829 15.951,8.579 15.951,10.320 C17.488,10.137 20.370,9.955 21.916,9.768 C21.916,8.116 21.916,6.458 21.916,4.802 C21.916,3.150 21.916,1.717 21.916,0.061 C23.772,0.055 25.982,0.050 27.847,0.044 C27.847,3.938 27.847,7.607 27.847,11.498 C27.847,15.389 27.847,19.280 27.847,23.171 C25.982,23.626 23.772,24.072 21.916,24.564 ZM32.977,22.365 C32.977,18.700 32.977,14.469 32.977,10.804 C32.977,7.139 32.977,3.698 32.977,0.030 C37.259,0.024 42.640,0.018 46.931,0.013 C46.931,1.245 46.931,3.084 46.931,4.317 C44.495,4.348 41.263,4.397 38.836,4.443 C38.836,6.041 38.836,6.238 38.836,7.836 C40.925,7.748 42.778,7.662 44.876,7.582 C44.876,8.817 44.876,10.612 44.876,11.844 C42.778,11.958 40.925,12.081 38.836,12.207 C38.836,13.865 38.836,15.242 38.836,16.897 C41.263,16.695 44.448,16.492 46.884,16.343 C46.884,17.575 46.884,19.649 46.884,20.878 C42.593,21.248 37.259,21.736 32.977,22.365 ZM50.985,20.786 C50.985,17.410 50.985,13.285 50.985,9.912 C50.985,6.535 50.985,3.387 50.985,0.010 C52.840,0.010 55.040,0.010 56.895,0.010 C56.895,2.772 56.895,5.308 56.895,8.073 C56.895,10.835 56.895,13.436 56.895,16.198 C59.322,16.249 62.505,16.307 64.942,16.436 C64.942,17.667 64.942,19.805 64.942,21.035 C60.650,20.820 55.267,20.714 50.985,20.786 ZM68.956,21.134 C68.956,17.640 68.956,13.771 68.956,10.278 C68.956,6.783 68.956,3.515 68.956,0.018 C70.811,0.021 73.083,0.024 74.939,0.027 C74.939,2.980 74.939,5.712 74.939,8.668 C74.939,11.624 74.939,14.578 74.939,17.534 C77.365,17.823 80.426,18.140 82.862,18.512 C82.862,19.878 82.862,21.620 82.862,22.986 C78.570,22.235 73.238,21.611 68.956,21.134 ZM67.726,29.659 C66.829,29.631 66.042,29.605 65.432,29.576 C65.299,29.576 65.186,29.473 65.177,29.336 C65.167,29.195 65.274,29.072 65.415,29.062 C66.280,29.005 67.417,28.961 68.690,28.913 C73.418,28.731 80.048,28.476 82.251,27.078 L82.251,27.078 C82.334,27.026 82.444,27.023 82.531,27.082 C82.868,27.307 83.065,27.516 83.175,27.757 C83.254,27.933 83.283,28.112 83.281,28.317 C83.561,28.352 83.802,28.431 84.000,28.533 L84.022,28.543 C84.369,28.728 84.589,28.995 84.659,29.225 C84.674,29.272 84.676,29.324 84.661,29.376 C84.594,29.608 84.373,29.878 84.022,30.065 L84.021,30.064 C83.819,30.171 83.571,30.256 83.281,30.291 C83.283,30.496 83.254,30.676 83.175,30.851 C83.066,31.091 82.870,31.299 82.537,31.522 C82.455,31.581 82.342,31.587 82.252,31.531 C79.912,30.048 72.348,29.807 67.726,29.659 ZM47.597,29.784 C46.986,29.813 46.197,29.839 45.297,29.867 C40.662,30.014 33.075,30.256 30.729,31.739 C30.638,31.796 30.525,31.789 30.442,31.730 C30.109,31.506 29.913,31.299 29.803,31.059 L29.802,31.058 L29.802,31.059 C29.723,30.884 29.694,30.705 29.696,30.499 C29.406,30.464 29.156,30.379 28.954,30.272 L28.954,30.273 C28.602,30.086 28.380,29.815 28.312,29.584 C28.297,29.532 28.299,29.481 28.315,29.433 C28.385,29.203 28.606,28.937 28.954,28.751 L28.976,28.741 C29.174,28.639 29.416,28.560 29.696,28.525 C29.694,28.320 29.723,28.140 29.802,27.966 L29.812,27.946 C29.923,27.713 30.121,27.509 30.449,27.290 C30.536,27.232 30.646,27.234 30.729,27.286 L30.730,27.286 C32.939,28.684 39.588,28.939 44.331,29.120 C45.607,29.169 46.748,29.213 47.614,29.271 C47.756,29.280 47.863,29.403 47.854,29.544 C47.845,29.680 47.732,29.784 47.597,29.784 ZM60.019,22.818 C59.646,22.916 59.290,23.046 58.982,23.164 C57.772,23.629 56.645,24.350 56.046,25.531 C55.707,26.198 55.334,27.436 55.528,28.267 C57.078,26.775 59.820,24.863 61.001,24.151 C59.228,25.770 55.202,29.005 52.816,31.077 C52.695,31.149 52.657,31.008 52.696,30.915 C53.080,30.002 53.722,29.888 54.327,29.170 C54.920,28.466 55.129,27.530 54.892,26.592 C54.747,26.019 54.395,25.273 53.941,24.919 C53.211,24.347 52.653,25.080 52.355,25.579 C52.199,25.840 52.020,26.200 51.940,26.528 C51.707,27.488 51.854,28.911 52.366,29.630 C52.707,28.661 53.134,27.341 53.367,26.270 C53.503,27.832 52.574,30.908 51.216,32.731 C51.232,32.882 51.422,33.105 51.647,33.056 C52.073,32.821 52.530,32.619 52.980,32.429 C54.675,31.712 55.750,33.083 57.499,33.184 C58.299,33.230 59.001,32.951 59.528,32.631 C60.066,32.304 60.782,31.801 60.561,31.096 C60.375,30.499 59.789,30.116 59.097,29.883 C58.344,29.630 57.499,29.630 56.745,29.807 C56.133,29.952 55.674,30.179 55.197,30.539 C54.923,30.746 54.672,30.947 54.436,31.202 C56.211,30.837 57.809,30.673 59.800,31.320 C56.613,30.867 54.430,31.516 53.228,31.878 C52.913,31.980 52.829,31.936 53.069,31.687 C53.421,31.322 54.405,30.393 54.555,30.267 C54.739,30.088 54.923,29.923 55.117,29.755 C56.481,28.576 57.448,29.532 59.175,28.764 C59.485,28.626 59.735,28.475 60.005,28.286 C61.089,27.531 62.001,26.035 62.324,24.752 C62.826,22.758 61.660,22.385 60.019,22.818 ZM101.651,13.852 C101.651,14.795 101.637,15.230 101.623,16.288 C101.609,17.345 101.543,18.388 101.426,19.407 C101.309,20.423 101.113,21.362 100.827,22.211 C100.542,23.057 100.123,23.734 99.571,24.215 C98.923,24.780 98.120,25.178 97.182,25.416 C96.236,25.656 94.594,25.555 93.029,25.133 C92.242,24.921 91.764,24.673 91.145,24.378 C90.527,24.084 89.985,23.761 89.496,23.412 C89.020,23.074 88.584,22.729 88.203,22.363 C87.825,22.000 87.486,21.610 87.162,21.205 C86.624,20.529 86.194,19.777 85.907,18.926 C85.623,18.087 85.424,17.210 85.307,16.307 C85.190,15.403 85.124,14.504 85.110,13.606 C85.097,12.708 85.092,12.897 85.092,12.099 C85.092,11.304 85.097,10.461 85.110,9.563 C85.124,8.668 85.190,7.783 85.307,6.907 C85.425,6.027 85.623,5.202 85.907,4.440 C86.195,3.667 86.620,2.999 87.162,2.430 C87.481,2.096 87.826,1.787 88.203,1.512 C88.585,1.232 89.017,0.980 89.496,0.754 C89.982,0.525 90.526,0.345 91.145,0.220 C91.763,0.094 92.242,0.025 93.029,0.025 C94.594,0.025 96.238,0.283 97.182,0.814 C98.122,1.344 98.929,1.983 99.571,2.756 C100.129,3.427 100.541,4.241 100.827,5.166 C101.112,6.090 101.310,7.084 101.426,8.136 C101.544,9.195 101.609,10.255 101.623,11.316 C101.637,12.379 101.651,12.910 101.651,13.852 Z" class="cls-1"/>
</svg>
