<svg xmlns="http://www.w3.org/2000/svg" width="31" height="28" viewBox="0 0 31 28">
  <metadata><?xpacket begin="﻿" id="W5M0MpCehiHzreSzNTczkc9d"?>
<x:xmpmeta xmlns:x="adobe:ns:meta/" x:xmptk="Adobe XMP Core 5.6-c140 79.160451, 2017/05/06-01:08:21        ">
   <rdf:RDF xmlns:rdf="http://www.w3.org/1999/02/22-rdf-syntax-ns#">
      <rdf:Description rdf:about=""/>
   </rdf:RDF>
</x:xmpmeta>
                                                                                                    
                                                                                                    
                                                                                                    
                                                                                                    
                                                                                                    
                                                                                                    
                                                                                                    
                                                                                                    
                                                                                                    
                                                                                                    
                                                                                                    
                                                                                                    
                                                                                                    
                                                                                                    
                                                                                                    
                                                                                                    
                                                                                                    
                                                                                                    
                                                                                                    
                                                                                                    
                           
<?xpacket end="w"?></metadata>
<defs>
    <style>
      .cls-1 {
        fill: #fff1d8;
      }

      .cls-1, .cls-2 {
        fill-rule: evenodd;
      }

      .cls-2 {
        fill: #644733;
      }
    </style>
  </defs>
  <path class="cls-1" d="M1122.21,557.272a7.331,7.331,0,0,0-6.46,4.532h0s-2.82-2.156-2.82-3.266v-1.692h3.41c1.02,0,3.02-1.7,3.02-2.75V553.4a3.353,3.353,0,0,0-.9-1.056l-1.4-1.715a2.594,2.594,0,0,0-2.95-1l-5.83,1.982a2.628,2.628,0,0,0-1.78,2.408v9.593c0,4.243,4.59,9.14,6.14,10.885a2.125,2.125,0,0,0,1.87,2h3.05c6.81,0,12.34-5.717,13.23-12.527h0a7.265,7.265,0,1,0-8.58-7.129v0.427m7.15,7.353a6.508,6.508,0,0,1-2.4-.323,0.5,0.5,0,1,1,.34-0.938,5.625,5.625,0,0,0,2.06.261,6.781,6.781,0,1,0-6.65-6.78,7.972,7.972,0,0,0,.92,3.148,0.5,0.5,0,0,1-.23.667,0.5,0.5,0,0,1-.67-0.235,8.9,8.9,0,0,1-1.02-3.58A7.646,7.646,0,1,1,1129.36,564.625ZM1117.56,577h-3.05a2.621,2.621,0,0,1-2.36-2.3l-0.14-.159c-1.8-2.008-6.01-6.71-6.01-10.93v-9.592a3.123,3.123,0,0,1,2.12-2.881l5.83-1.982a3.079,3.079,0,0,1,3.53,1.2l1.37,1.669a2.075,2.075,0,0,0,.31.312,1.532,1.532,0,0,1,.7,1.059V554.1c0,1.371-2.24,3.25-3.52,3.25h-2.91v1.192c0,0.516,1.36,1.9,2.62,2.868a0.5,0.5,0,1,1-.61.8c-0.7-.541-3.01-2.4-3.01-3.663v-2.192h3.91c0.8,0,2.52-1.535,2.52-2.25V553.4l-0.35-.3a2.331,2.331,0,0,1-.47-0.486l-1.36-1.67a2.126,2.126,0,0,0-2.41-.843l-5.83,1.982a2.144,2.144,0,0,0-1.44,1.935v9.592c0,3.838,4.03,8.34,5.76,10.263l0.38,0.433v0.19a1.638,1.638,0,0,0,1.37,1.5h3.05c6.25,0,11.84-5.311,12.73-12.092a0.5,0.5,0,0,1,.99.13C1130.31,571.429,1124.42,577,1117.56,577Zm-4.63-19.656h-1.43a0.5,0.5,0,0,1,0-1h1.43A0.5,0.5,0,0,1,1112.93,557.345Zm8.3,14.384a0.5,0.5,0,0,1,0-1,3.871,3.871,0,0,0,3.78-3.943,0.5,0.5,0,0,1,.5-0.5,0.5,0.5,0,0,1,.5.5A4.873,4.873,0,0,1,1121.23,571.729Zm-6.11-6.346a0.5,0.5,0,0,1-.5-0.5,7.953,7.953,0,0,1,7.58-8.111,0.5,0.5,0,0,1,.03,1,6.954,6.954,0,0,0-6.61,7.112A0.5,0.5,0,0,1,1115.12,565.383Z" transform="translate(-1106 -549)"/>
  <path id="Shape_18_copy" data-name="Shape 18 copy" class="cls-2" d="M1129.36,564.625a6.508,6.508,0,0,1-2.4-.323,0.5,0.5,0,1,1,.34-0.938,5.625,5.625,0,0,0,2.06.261,6.781,6.781,0,1,0-6.65-6.78,7.972,7.972,0,0,0,.92,3.148,0.5,0.5,0,0,1-.23.667,0.5,0.5,0,0,1-.67-0.235,8.9,8.9,0,0,1-1.02-3.58A7.646,7.646,0,1,1,1129.36,564.625ZM1117.56,577h-3.05a2.621,2.621,0,0,1-2.36-2.3l-0.14-.159c-1.8-2.008-6.01-6.71-6.01-10.93v-9.592a3.123,3.123,0,0,1,2.12-2.881l5.83-1.982a3.079,3.079,0,0,1,3.53,1.2l1.37,1.669a2.075,2.075,0,0,0,.31.312,1.532,1.532,0,0,1,.7,1.059V554.1c0,1.371-2.24,3.25-3.52,3.25h-2.91v1.192c0,0.516,1.36,1.9,2.62,2.868a0.5,0.5,0,1,1-.61.8c-0.7-.541-3.01-2.4-3.01-3.663v-2.192h3.91c0.8,0,2.52-1.535,2.52-2.25V553.4l-0.35-.3a2.331,2.331,0,0,1-.47-0.486l-1.36-1.67a2.126,2.126,0,0,0-2.41-.843l-5.83,1.982a2.144,2.144,0,0,0-1.44,1.935v9.592c0,3.838,4.03,8.34,5.76,10.263l0.38,0.433v0.19a1.638,1.638,0,0,0,1.37,1.5h3.05c6.25,0,11.84-5.311,12.73-12.092a0.5,0.5,0,0,1,.99.13C1130.31,571.429,1124.42,577,1117.56,577Zm-4.63-19.656h-1.43a0.5,0.5,0,0,1,0-1h1.43A0.5,0.5,0,0,1,1112.93,557.345Zm8.3,14.384a0.5,0.5,0,0,1,0-1,3.871,3.871,0,0,0,3.78-3.943,0.5,0.5,0,0,1,.5-0.5,0.5,0.5,0,0,1,.5.5A4.873,4.873,0,0,1,1121.23,571.729Zm-6.11-6.346a0.5,0.5,0,0,1-.5-0.5,7.953,7.953,0,0,1,7.58-8.111,0.5,0.5,0,0,1,.03,1,6.954,6.954,0,0,0-6.61,7.112A0.5,0.5,0,0,1,1115.12,565.383Zm-3.55-8.092a0.5,0.5,0,0,1,0-1c2.09,0,2.78-.768,2.78-2.942a0.5,0.5,0,0,1,1,0C1115.35,556.074,1114.21,557.291,1111.57,557.291Z" transform="translate(-1106 -549)"/>
</svg>
