<svg xmlns="http://www.w3.org/2000/svg" xmlns:xlink="http://www.w3.org/1999/xlink" preserveAspectRatio="xMidYMid" width="37.969" height="35.97" viewBox="0 0 37.969 35.97">
  <defs>
    <style>
      .cls-1 {
        fill: #009c54;
        fill-rule: evenodd;
      }
    </style>
  </defs>
  <path d="M29.775,0.536 C28.513,0.874 27.307,1.314 26.266,1.718 C22.172,3.306 18.360,5.772 16.332,9.806 C15.185,12.086 13.921,16.316 14.580,19.155 C19.824,14.056 29.101,7.525 33.097,5.092 C27.097,10.622 13.475,21.676 5.404,28.756 C4.992,29.002 4.866,28.522 4.998,28.204 C6.295,25.082 8.470,24.693 10.517,22.239 C12.523,19.836 13.230,16.634 12.428,13.433 C11.937,11.474 10.745,8.925 9.210,7.713 C6.738,5.762 4.852,8.266 3.843,9.971 C3.314,10.863 2.710,12.092 2.440,13.213 C1.652,16.492 2.148,21.355 3.880,23.811 C5.034,20.502 6.480,15.990 7.267,12.332 C7.728,17.669 4.583,28.179 -0.011,34.409 C0.045,34.923 0.688,35.685 1.447,35.519 C2.890,34.715 4.434,34.027 5.959,33.375 C11.692,30.925 15.329,35.610 21.248,35.954 C23.954,36.112 26.329,35.160 28.114,34.064 C29.934,32.948 32.355,31.230 31.610,28.822 C30.979,26.783 28.995,25.473 26.654,24.678 C24.106,23.813 21.248,23.811 18.695,24.418 C16.626,24.910 15.072,25.690 13.461,26.918 C12.533,27.626 11.683,28.313 10.884,29.185 C16.889,27.935 22.297,27.375 29.034,29.587 C18.252,28.038 10.866,30.258 6.798,31.494 C5.731,31.839 5.447,31.692 6.258,30.842 C7.450,29.592 10.779,26.421 11.288,25.987 C11.910,25.379 12.530,24.815 13.189,24.240 C17.803,20.212 21.075,23.478 26.919,20.854 C27.968,20.383 28.813,19.865 29.729,19.219 C33.395,16.639 36.480,11.531 37.575,7.145 C39.273,0.332 35.328,-0.946 29.775,0.536 Z" class="cls-1"/>
</svg>
