<svg xmlns="http://www.w3.org/2000/svg" width="26" height="26" viewBox="0 0 26 26">
  <metadata><?xpacket begin="﻿" id="W5M0MpCehiHzreSzNTczkc9d"?>
<x:xmpmeta xmlns:x="adobe:ns:meta/" x:xmptk="Adobe XMP Core 5.6-c140 79.160451, 2017/05/06-01:08:21        ">
   <rdf:RDF xmlns:rdf="http://www.w3.org/1999/02/22-rdf-syntax-ns#">
      <rdf:Description rdf:about=""/>
   </rdf:RDF>
</x:xmpmeta>
                                                                                                    
                                                                                                    
                                                                                                    
                                                                                                    
                                                                                                    
                                                                                                    
                                                                                                    
                                                                                                    
                                                                                                    
                                                                                                    
                                                                                                    
                                                                                                    
                                                                                                    
                                                                                                    
                                                                                                    
                                                                                                    
                                                                                                    
                                                                                                    
                                                                                                    
                                                                                                    
                           
<?xpacket end="w"?></metadata>
<defs>
    <style>
      .cls-1 {
        fill: #fff1d8;
      }

      .cls-2 {
        fill: #fff;
      }

      .cls-2, .cls-3 {
        fill-rule: evenodd;
      }

      .cls-3 {
        fill: #684b37;
      }
    </style>
  </defs>
  <rect class="cls-1" x="1" y="1" width="25" height="25" rx="2" ry="2"/>
  <path id="Shape_19_copy_2" data-name="Shape 19 copy 2" class="cls-2" d="M950,553.42a15.1,15.1,0,0,0-7.738,2.124l3.258,5.044a9.021,9.021,0,0,1,8.96,0l3.258-5.044A15.1,15.1,0,0,0,950,553.42Z" transform="translate(-937 -550)"/>
  <path id="Shape_19_copy" data-name="Shape 19 copy" class="cls-3" d="M959.5,576h-20a2.5,2.5,0,0,1-2.5-2.5v-21a2.5,2.5,0,0,1,2.5-2.5h20a2.5,2.5,0,0,1,2.5,2.5v21A2.5,2.5,0,0,1,959.5,576Zm-20-25a1.5,1.5,0,0,0-1.5,1.5v21a1.5,1.5,0,0,0,1.5,1.5h20a1.5,1.5,0,0,0,1.5-1.5v-21a1.5,1.5,0,0,0-1.5-1.5h-20Zm14.138,10.295-0.414-.246a6.858,6.858,0,0,0-7.449,0l-0.414.246-3.8-5.884,0.446-.265a14.119,14.119,0,0,1,14.988,0l0.445,0.265Zm-10.67-5.547,2.718,4.207a7.715,7.715,0,0,1,7.628,0l2.717-4.207A12.969,12.969,0,0,0,942.968,555.748Zm4.782,3.866-1.19-2.976,0.928-.371,1.191,2.976ZM950,572.187h-1V562.116h1v10.071Zm-0.5.645-5.316-4.328,0.632-.775,4.684,3.814,4.685-3.814,0.63,0.775Z" transform="translate(-937 -550)"/>
</svg>
