<svg xmlns="http://www.w3.org/2000/svg" xmlns:xlink="http://www.w3.org/1999/xlink" preserveAspectRatio="xMidYMid" width="39.125" height="35.157" viewBox="0 0 39.125 35.157">
  <defs>
    <style>
      .cls-1 {
        fill: #3c4246;
        fill-rule: evenodd;
      }
    </style>
  </defs>
  <path d="M39.132,23.272 C39.132,23.352 39.123,23.432 39.107,23.510 C38.590,29.989 30.025,35.159 19.570,35.159 C9.115,35.159 0.550,29.989 0.033,23.510 C0.017,23.432 0.008,23.352 0.008,23.272 C0.008,23.232 0.015,23.193 0.019,23.154 C0.016,23.066 0.008,22.979 0.008,22.891 C0.008,22.711 0.119,22.557 0.276,22.492 C0.870,21.645 2.464,20.917 5.044,20.320 C5.276,20.268 5.508,20.411 5.562,20.643 C5.615,20.875 5.471,21.107 5.239,21.161 C2.195,21.865 1.007,22.668 0.883,23.183 C0.887,23.258 0.887,23.334 0.893,23.409 C1.044,23.904 2.004,24.455 3.664,24.961 C3.719,23.049 5.288,21.509 7.214,21.509 C7.353,21.509 7.489,21.520 7.625,21.535 C6.630,20.718 5.795,19.899 5.161,19.221 C4.331,18.331 4.331,16.938 5.161,16.049 C7.035,14.043 10.603,10.849 14.891,10.078 C14.932,10.024 14.985,9.978 15.051,9.947 L15.782,9.607 C18.273,8.445 23.248,9.155 26.155,10.518 C26.421,10.643 26.599,10.891 26.630,11.183 C26.661,11.475 26.541,11.755 26.307,11.933 L24.951,12.966 C26.087,13.799 27.063,14.686 27.837,15.466 C28.565,14.541 30.462,12.407 32.487,12.365 L32.545,12.364 L32.601,12.378 C32.747,12.415 32.870,12.512 32.948,12.651 C33.284,13.261 32.593,15.757 31.923,17.829 L33.776,20.367 C33.867,20.314 33.978,20.293 34.088,20.319 C36.673,20.915 38.269,21.645 38.864,22.492 C39.021,22.557 39.132,22.711 39.132,22.891 C39.132,22.979 39.124,23.066 39.121,23.154 C39.125,23.193 39.132,23.232 39.132,23.272 ZM1.144,24.820 C2.652,30.193 10.338,34.296 19.570,34.296 C28.802,34.296 36.488,30.193 37.996,24.820 C35.137,26.623 27.315,27.558 19.570,27.558 C11.825,27.558 4.003,26.623 1.144,24.820 ZM28.211,20.718 C27.781,19.922 27.088,19.530 26.094,19.530 C25.065,19.530 24.141,20.103 23.682,21.025 C23.607,21.176 23.454,21.264 23.296,21.264 C23.231,21.264 23.166,21.250 23.104,21.219 C22.891,21.113 22.804,20.854 22.910,20.640 C23.071,20.316 23.277,20.027 23.516,19.774 C23.100,18.780 22.118,18.120 21.034,18.120 C19.550,18.120 18.342,19.328 18.342,20.812 C18.342,21.116 18.394,21.414 18.493,21.698 C18.699,21.791 18.801,22.029 18.719,22.243 C18.634,22.466 18.385,22.578 18.162,22.493 C17.857,22.376 17.535,22.317 17.204,22.317 C15.720,22.317 14.513,23.524 14.513,25.009 C14.513,25.544 14.553,25.804 14.779,26.199 C14.847,26.319 14.850,26.456 14.802,26.575 C16.292,26.651 17.882,26.695 19.570,26.695 C21.374,26.695 23.070,26.646 24.648,26.559 C24.652,26.330 24.676,26.106 24.722,25.889 C24.682,25.831 24.654,25.762 24.647,25.687 C24.572,24.922 24.203,24.231 23.609,23.743 C23.015,23.255 22.266,23.029 21.501,23.102 C20.307,23.219 19.300,24.078 18.997,25.238 C18.936,25.469 18.700,25.605 18.470,25.547 C18.239,25.486 18.101,25.250 18.162,25.020 C18.556,23.511 19.865,22.396 21.417,22.244 C22.411,22.145 23.385,22.442 24.157,23.076 C24.663,23.492 25.040,24.022 25.269,24.616 C25.732,23.943 26.421,23.439 27.225,23.209 C27.224,23.197 27.221,23.186 27.221,23.173 C27.221,22.221 27.600,21.357 28.211,20.718 ZM25.513,26.507 C27.484,26.377 29.254,26.185 30.806,25.954 C30.505,24.770 29.444,23.933 28.199,23.933 C26.755,23.933 25.576,25.077 25.513,26.507 ZM7.214,22.371 C5.730,22.371 4.522,23.579 4.522,25.063 C4.522,25.110 4.513,25.154 4.499,25.196 C6.739,25.781 9.956,26.281 13.977,26.528 C13.705,26.015 13.650,25.603 13.650,25.009 C13.650,24.759 13.677,24.514 13.726,24.278 C13.411,24.052 13.050,23.892 12.666,23.819 C11.516,23.601 10.365,24.142 9.802,25.167 C9.724,25.310 9.576,25.391 9.423,25.391 C9.353,25.391 9.282,25.374 9.216,25.338 C9.007,25.223 8.931,24.960 9.046,24.752 C9.213,24.447 9.422,24.176 9.660,23.940 C9.224,22.993 8.270,22.371 7.214,22.371 ZM25.743,11.278 C23.577,10.276 20.203,9.662 17.800,9.958 C20.183,10.193 22.372,11.215 24.210,12.446 L25.743,11.278 ZM30.965,17.982 L31.034,17.772 C31.599,16.046 32.148,13.996 32.190,13.257 C30.575,13.512 28.993,15.382 28.440,16.097 C29.086,16.826 29.211,17.879 28.746,18.739 C28.632,18.949 28.371,19.027 28.161,18.913 C27.952,18.800 27.874,18.538 27.987,18.329 C28.286,17.776 28.198,17.097 27.769,16.638 C27.705,16.570 27.639,16.499 27.571,16.428 C27.569,16.426 27.567,16.425 27.566,16.423 C26.690,15.506 25.481,14.377 24.037,13.369 C23.999,13.351 23.965,13.327 23.933,13.298 C21.916,11.909 19.448,10.769 16.780,10.769 C11.989,10.769 7.839,14.446 5.792,16.638 C5.270,17.197 5.270,18.073 5.792,18.631 C6.982,19.905 8.897,21.692 11.263,22.968 C11.285,22.980 11.305,22.994 11.324,23.009 C11.592,22.944 11.869,22.910 12.151,22.910 C15.639,18.045 13.728,15.174 13.708,15.145 C13.573,14.949 13.621,14.681 13.817,14.545 C14.013,14.408 14.281,14.457 14.417,14.652 C14.511,14.787 16.593,17.907 13.114,23.040 C13.434,23.129 13.740,23.263 14.022,23.436 C14.604,22.264 15.810,21.454 17.204,21.454 C17.317,21.454 17.430,21.460 17.541,21.470 C17.501,21.254 17.479,21.034 17.479,20.812 C17.479,18.852 19.074,17.257 21.034,17.257 C22.379,17.257 23.604,18.027 24.203,19.208 C24.758,18.860 25.408,18.667 26.094,18.667 C27.346,18.667 28.303,19.183 28.892,20.164 C29.439,19.820 30.084,19.618 30.776,19.618 C31.389,19.618 31.974,19.780 32.487,20.063 L30.965,17.982 ZM31.205,22.775 C31.788,22.386 32.469,22.181 33.173,22.181 C33.208,22.181 33.243,22.184 33.279,22.186 C32.879,21.177 31.888,20.481 30.776,20.481 C29.324,20.481 28.141,21.637 28.089,23.076 C28.126,23.074 28.162,23.070 28.199,23.070 C29.870,23.070 31.289,24.214 31.659,25.819 C33.307,25.543 34.673,25.221 35.726,24.882 C35.364,23.789 34.347,23.044 33.173,23.044 C32.640,23.044 32.124,23.199 31.683,23.493 C31.485,23.625 31.217,23.572 31.085,23.373 C30.953,23.175 31.007,22.907 31.205,22.775 ZM33.986,21.182 C33.948,21.255 33.893,21.314 33.831,21.363 C34.010,21.663 34.145,21.991 34.230,22.342 C35.305,22.674 36.170,23.499 36.539,24.593 C37.545,24.196 38.132,23.786 38.247,23.409 C38.253,23.334 38.253,23.258 38.257,23.183 C38.135,22.673 36.965,21.880 33.986,21.182 ZM11.006,16.572 C10.911,16.572 10.816,16.541 10.736,16.477 C10.351,16.169 10.042,16.387 9.956,16.462 C9.778,16.616 9.506,16.601 9.349,16.426 C9.192,16.251 9.202,15.983 9.376,15.824 C9.685,15.538 10.479,15.166 11.275,15.804 C11.461,15.953 11.492,16.224 11.343,16.410 C11.257,16.517 11.132,16.572 11.006,16.572 ZM26.543,2.746 C26.290,2.933 26.154,3.242 26.186,3.555 C26.210,3.792 26.038,4.003 25.801,4.028 C25.786,4.030 25.771,4.030 25.756,4.030 C25.538,4.030 25.350,3.865 25.328,3.643 C25.264,3.029 25.534,2.419 26.030,2.052 L26.991,1.342 C27.182,1.200 27.453,1.241 27.594,1.432 C27.736,1.624 27.695,1.894 27.504,2.036 L26.543,2.746 ZM26.078,5.840 C26.220,6.032 26.179,6.302 25.988,6.443 L24.809,7.315 C24.732,7.372 24.642,7.399 24.553,7.399 C24.421,7.399 24.290,7.339 24.206,7.224 C24.064,7.032 24.105,6.763 24.296,6.621 L25.475,5.750 C25.666,5.608 25.937,5.648 26.078,5.840 ZM22.116,1.498 C21.925,1.639 21.800,1.846 21.765,2.081 C21.730,2.317 21.788,2.552 21.930,2.743 C22.504,3.520 22.339,4.620 21.562,5.195 L20.383,6.066 C20.306,6.123 20.216,6.151 20.127,6.151 C19.994,6.151 19.864,6.090 19.779,5.975 C19.638,5.784 19.678,5.514 19.870,5.372 L21.049,4.501 C21.444,4.209 21.528,3.651 21.236,3.255 C20.957,2.879 20.842,2.417 20.912,1.954 C20.981,1.490 21.227,1.082 21.604,0.804 L22.565,0.093 C22.756,-0.048 23.026,-0.008 23.168,0.184 C23.310,0.376 23.269,0.646 23.077,0.787 L22.116,1.498 ZM16.725,2.746 C16.533,2.888 16.408,3.095 16.373,3.330 C16.338,3.565 16.396,3.800 16.538,3.991 C17.112,4.769 16.947,5.869 16.170,6.443 L14.991,7.315 C14.914,7.372 14.824,7.399 14.735,7.399 C14.603,7.399 14.472,7.339 14.388,7.224 C14.246,7.032 14.286,6.763 14.478,6.621 L15.657,5.750 C15.848,5.608 15.973,5.401 16.008,5.166 C16.044,4.931 15.985,4.696 15.844,4.504 C15.269,3.727 15.434,2.627 16.212,2.052 L17.173,1.342 C17.364,1.200 17.635,1.241 17.776,1.432 C17.918,1.624 17.877,1.894 17.686,2.036 L16.725,2.746 Z" class="cls-1"/>
</svg>
