<svg xmlns="http://www.w3.org/2000/svg" xmlns:xlink="http://www.w3.org/1999/xlink" preserveAspectRatio="xMidYMid" width="60" height="60" viewBox="0 0 60 60">
  <defs>
    <style>
      .cls-1 {
        fill: #f65556;
      }

      .cls-2, .cls-3 {
        fill: #fff;
        fill-rule: evenodd;
      }

      .cls-2 {
        stroke: #fcfcfc;
        stroke-width: 1px;
      }
    </style>
  </defs>
  <circle cx="30.094" cy="30.125" r="30" class="cls-1"/>
  <path d="M8.103,50.660 L50.529,8.233 L51.943,9.647 L9.517,52.074 L8.103,50.660 Z" class="cls-2"/>
  <path d="M44.000,45.985 L34.000,45.985 L26.000,45.985 L16.000,45.985 C15.447,45.985 15.000,45.537 15.000,44.985 L15.000,24.985 C15.000,24.693 15.128,24.415 15.350,24.226 L29.350,12.226 C29.723,11.904 30.277,11.904 30.650,12.226 L38.019,18.542 L38.019,15.578 C38.019,15.026 38.467,14.578 39.019,14.578 C39.572,14.578 40.019,15.026 40.019,15.578 L40.019,20.256 L44.650,24.226 C44.873,24.415 45.000,24.693 45.000,24.985 L45.000,44.985 C45.000,45.537 44.553,45.985 44.000,45.985 ZM27.000,43.985 L33.000,43.985 L33.000,35.985 L27.000,35.985 L27.000,43.985 ZM43.000,25.445 L38.460,21.553 C38.390,21.504 38.325,21.454 38.269,21.390 L30.000,14.302 L17.000,25.445 L17.000,43.985 L25.000,43.985 L25.000,34.985 C25.000,34.432 25.447,33.985 26.000,33.985 L34.000,33.985 C34.553,33.985 35.000,34.432 35.000,34.985 L35.000,43.985 L43.000,43.985 L43.000,25.445 ZM30.000,31.137 C27.243,31.137 25.000,28.894 25.000,26.137 C25.000,23.380 27.243,21.137 30.000,21.137 C32.758,21.137 35.000,23.380 35.000,26.137 C35.000,28.894 32.758,31.137 30.000,31.137 ZM30.000,23.137 C28.346,23.137 27.000,24.483 27.000,26.137 C27.000,27.791 28.346,29.137 30.000,29.137 C31.654,29.137 33.000,27.791 33.000,26.137 C33.000,24.483 31.654,23.137 30.000,23.137 Z" class="cls-3"/>
</svg>
