<svg xmlns="http://www.w3.org/2000/svg" xmlns:xlink="http://www.w3.org/1999/xlink" preserveAspectRatio="xMidYMid" width="125" height="168.937" viewBox="0 0 125 168.937">
  <defs>
    <style>
      .cls-1 {
        fill: #fa0707;
        fill-rule: evenodd;
      }
    </style>
  </defs>
  <path d="M62.583,0.003 C62.583,0.003 62.583,0.003 62.582,0.003 C57.380,0.003 52.332,0.649 47.503,1.848 C47.330,1.891 47.155,1.924 46.984,1.970 C46.687,2.046 46.397,2.138 46.101,2.220 C19.627,9.450 0.158,33.656 0.158,62.426 C0.158,62.496 0.163,62.565 0.163,62.634 C0.109,62.739 0.054,62.842 -0.005,62.967 C-0.005,66.433 0.443,70.045 1.199,73.739 C1.975,77.973 3.175,82.059 4.760,85.951 C19.314,125.229 62.395,168.936 62.395,168.936 C62.395,168.936 101.713,129.157 117.919,91.309 C122.437,82.669 125.005,72.852 125.005,62.426 C125.005,27.949 97.057,0.003 62.583,0.003 ZM91.594,82.141 C92.250,82.797 92.250,83.871 91.594,84.527 L84.687,91.434 C84.032,92.089 82.957,92.089 82.302,91.434 L62.585,71.719 L42.868,91.434 C42.212,92.089 41.138,92.089 40.483,91.434 L33.576,84.530 C32.920,83.875 32.920,82.800 33.576,82.145 L53.294,62.426 L33.576,42.711 C32.920,42.056 32.920,40.981 33.576,40.326 L40.483,33.419 C41.138,32.763 42.212,32.763 42.868,33.419 L62.586,53.134 L82.302,33.419 C82.957,32.763 84.032,32.763 84.687,33.419 L91.594,40.326 C92.250,40.981 92.250,42.056 91.594,42.711 L71.877,62.426 L91.594,82.141 Z" class="cls-1"/>
</svg>
