<svg xmlns="http://www.w3.org/2000/svg" xmlns:xlink="http://www.w3.org/1999/xlink" preserveAspectRatio="xMidYMid" width="19.5" height="25.5" viewBox="0 0 19.5 25.5">
  <defs>
    <style>
      .cls-1 {
        fill: #2a2a2a;
        fill-rule: evenodd;
      }
    </style>
  </defs>
  <path d="M19.060,25.428 C18.962,25.472 18.860,25.492 18.757,25.492 C18.574,25.492 18.393,25.425 18.252,25.296 L15.755,23.017 L13.460,25.277 C13.180,25.552 12.737,25.563 12.442,25.309 L9.757,22.977 L7.072,25.309 C6.776,25.563 6.333,25.552 6.055,25.277 L3.760,23.017 L1.263,25.296 C1.042,25.495 0.726,25.550 0.455,25.428 C0.183,25.309 0.007,25.040 0.007,24.742 L0.007,0.742 C0.007,0.445 0.183,0.176 0.455,0.056 C0.724,-0.062 1.044,-0.012 1.263,0.189 L3.760,2.467 L6.055,0.208 C6.333,-0.068 6.776,-0.082 7.072,0.176 L9.757,2.508 L12.442,0.176 C12.737,-0.082 13.180,-0.068 13.460,0.208 L15.755,2.467 L18.252,0.189 C18.470,-0.012 18.788,-0.063 19.060,0.056 C19.332,0.176 19.507,0.445 19.507,0.742 L19.507,24.742 C19.507,25.040 19.332,25.309 19.060,25.428 ZM18.007,2.442 L16.241,4.054 C15.948,4.322 15.493,4.314 15.210,4.035 L12.902,1.763 L10.249,4.067 C9.967,4.311 9.547,4.311 9.266,4.067 L6.613,1.763 L4.304,4.035 C4.021,4.315 3.568,4.324 3.273,4.054 L1.507,2.442 L1.507,23.042 L3.273,21.430 C3.566,21.159 4.020,21.170 4.304,21.449 L6.613,23.721 L9.266,21.417 C9.406,21.296 9.582,21.234 9.757,21.234 C9.932,21.234 10.108,21.296 10.249,21.417 L12.902,23.721 L15.210,21.449 C15.494,21.171 15.949,21.161 16.241,21.430 L18.007,23.042 L18.007,2.442 ZM14.257,17.946 L5.257,17.946 C4.843,17.946 4.507,17.610 4.507,17.196 C4.507,16.781 4.843,16.445 5.257,16.445 L14.257,16.445 C14.672,16.445 15.007,16.781 15.007,17.196 C15.007,17.610 14.672,17.946 14.257,17.946 ZM14.257,13.446 L5.257,13.446 C4.843,13.446 4.507,13.110 4.507,12.696 C4.507,12.281 4.843,11.946 5.257,11.946 L14.257,11.946 C14.672,11.946 15.007,12.281 15.007,12.696 C15.007,13.110 14.672,13.446 14.257,13.446 ZM14.257,8.992 L5.257,8.992 C4.843,8.992 4.507,8.657 4.507,8.242 C4.507,7.828 4.843,7.492 5.257,7.492 L14.257,7.492 C14.672,7.492 15.007,7.828 15.007,8.242 C15.007,8.657 14.672,8.992 14.257,8.992 Z" class="cls-1"/>
</svg>
