<svg xmlns="http://www.w3.org/2000/svg" xmlns:xlink="http://www.w3.org/1999/xlink" preserveAspectRatio="xMidYMid" width="24" height="24" viewBox="0 0 24 24">
  <defs>
    <style>
      .cls-1 {
        fill: #2a2a2a;
        fill-rule: evenodd;
      }
    </style>
  </defs>
  <path d="M24.007,23.242 C24.007,23.657 23.672,23.992 23.257,23.992 L0.757,23.992 C0.343,23.992 0.007,23.657 0.007,23.242 C0.007,17.429 3.692,12.522 8.707,10.994 C7.083,9.919 6.007,8.081 6.007,5.992 C6.007,2.684 8.699,-0.008 12.007,-0.008 C15.316,-0.008 18.007,2.684 18.007,5.992 C18.007,8.081 16.932,9.919 15.308,10.994 C20.323,12.523 24.007,17.430 24.007,23.242 ZM16.507,5.992 C16.507,3.510 14.489,1.492 12.007,1.492 C9.526,1.492 7.507,3.510 7.507,5.992 C7.507,8.473 9.526,10.492 12.007,10.492 C14.489,10.492 16.507,8.473 16.507,5.992 ZM12.007,11.992 C6.453,11.992 1.892,16.637 1.531,22.492 L22.484,22.492 C22.122,16.637 17.562,11.992 12.007,11.992 Z" class="cls-1"/>
</svg>
