<svg xmlns="http://www.w3.org/2000/svg" xmlns:xlink="http://www.w3.org/1999/xlink" preserveAspectRatio="xMidYMid" width="25.531" height="23.969" viewBox="0 0 25.531 23.969">
  <defs>
    <style>
      .cls-1 {
        fill: #fff;
        stroke: #2a2a2a;
        stroke-width: 1.5px;
        fill-rule: evenodd;
      }
    </style>
  </defs>
  <path d="M12.756,23.228 C12.555,23.228 12.356,23.177 12.179,23.080 C11.979,22.969 7.244,20.332 4.238,16.265 C2.730,14.222 0.283,10.235 0.839,6.482 C1.117,4.601 2.090,3.070 3.733,1.933 C6.470,0.033 9.773,0.480 12.081,2.940 C12.326,3.201 12.552,3.478 12.758,3.768 C12.964,3.479 13.190,3.202 13.436,2.940 C15.740,0.484 19.042,0.030 21.785,1.936 C23.426,3.074 24.398,4.606 24.677,6.488 C25.229,10.247 22.783,14.229 21.275,16.267 C18.281,20.316 13.535,22.967 13.335,23.078 C13.157,23.177 12.957,23.228 12.756,23.228 Z" class="cls-1"/>
</svg>
