<svg xmlns="http://www.w3.org/2000/svg" xmlns:xlink="http://www.w3.org/1999/xlink" preserveAspectRatio="xMidYMid" width="23.718" height="24" viewBox="0 0 23.718 24">
  <defs>
    <style>
      .cls-1 {
        fill: #2a2a2a;
        fill-rule: evenodd;
      }
    </style>
  </defs>
  <path d="M20.967,10.480 C18.239,13.809 15.354,14.580 13.270,14.580 C12.033,14.580 11.088,14.312 10.611,14.142 L4.798,19.902 C5.603,19.600 6.555,19.279 7.612,18.970 C8.256,17.883 9.841,15.812 12.691,15.498 C16.320,15.102 19.484,16.778 19.987,18.064 C20.193,18.593 20.093,19.349 19.710,20.135 C19.341,20.897 18.164,22.765 15.230,23.653 C14.465,23.885 13.758,23.985 13.109,23.985 C9.748,23.985 7.928,21.322 7.427,20.462 C4.425,21.391 2.469,22.393 2.444,22.405 C2.343,22.458 2.234,22.483 2.127,22.483 C1.924,22.483 1.743,22.375 1.611,22.213 C1.602,22.209 1.593,22.211 1.584,22.207 C1.239,22.049 1.087,21.642 1.244,21.297 C1.257,21.269 2.306,18.934 2.984,16.250 C1.957,15.508 -0.427,13.430 0.071,10.482 C0.649,7.063 2.488,4.575 3.648,4.364 C4.115,4.277 4.653,4.470 5.166,4.901 C5.608,5.274 7.048,6.736 7.019,9.896 C6.979,14.132 5.105,15.864 4.367,16.383 C4.116,17.412 3.815,18.390 3.524,19.230 L9.803,13.009 C9.554,11.381 9.112,6.345 12.553,3.373 C16.438,0.015 21.191,-0.605 22.635,0.456 C23.161,0.844 23.522,1.633 23.652,2.678 C23.767,3.600 23.915,6.887 20.967,10.480 ZM14.833,22.338 C17.301,21.591 18.239,20.016 18.467,19.552 C18.755,18.967 18.730,18.624 18.707,18.564 C18.488,18.004 16.059,16.503 12.842,16.864 C11.478,17.014 10.481,17.698 9.784,18.403 C14.050,17.417 15.433,17.689 15.576,17.724 C15.943,17.817 16.167,18.190 16.076,18.557 C15.986,18.920 15.616,19.145 15.259,19.060 C15.204,19.052 13.881,18.840 9.821,19.801 C9.462,19.886 9.128,19.979 8.789,20.070 C9.455,21.103 11.370,23.384 14.833,22.338 ZM3.301,9.760 C3.220,9.391 3.453,9.024 3.823,8.942 C4.189,8.857 4.558,9.090 4.642,9.459 C4.657,9.528 5.138,10.991 4.854,13.675 C5.274,12.836 5.629,11.624 5.645,9.883 C5.671,7.082 4.291,5.740 3.869,5.718 C3.404,5.857 1.918,7.798 1.425,10.712 C1.114,12.555 2.393,14.021 3.308,14.782 C3.312,14.757 3.319,14.733 3.323,14.708 C3.886,11.518 3.305,9.777 3.301,9.760 ZM22.289,2.848 C22.193,2.089 21.956,1.664 21.819,1.562 C21.138,1.058 17.084,1.272 13.450,4.413 C11.081,6.460 10.920,9.841 11.053,11.770 L18.125,4.764 C18.396,4.498 18.829,4.501 19.096,4.769 C19.363,5.039 19.360,5.474 19.090,5.741 L11.711,13.052 C13.246,13.426 16.619,13.618 19.905,9.610 C22.505,6.439 22.387,3.633 22.289,2.848 Z" class="cls-1"/>
</svg>
