<svg xmlns="http://www.w3.org/2000/svg" xmlns:xlink="http://www.w3.org/1999/xlink" preserveAspectRatio="xMidYMid" width="39.799" height="40.554" viewBox="0 0 77.656 79.13">
  <defs>
    <style>
      .cls-1 {
        fill: #5e5e5f;
        fill-rule: evenodd;
      }
    </style>
  </defs>
  <path d="M77.670,30.750 C77.670,30.752 77.670,30.754 77.670,30.757 C77.669,30.849 77.577,34.225 76.547,39.048 C76.586,39.196 76.597,39.353 76.564,39.513 C76.493,39.856 76.375,40.193 76.212,40.522 C74.173,49.001 69.300,60.989 57.667,68.027 L58.296,70.440 C58.494,71.199 58.371,71.995 57.959,72.623 C56.679,74.574 52.254,79.113 38.843,79.113 C25.432,79.113 21.007,74.574 19.727,72.623 C19.314,71.995 19.192,71.199 19.390,70.440 L20.019,68.027 C0.708,56.342 0.020,31.013 0.015,30.757 C0.015,30.753 0.016,30.751 0.016,30.748 C0.016,30.745 0.015,30.741 0.015,30.738 C0.015,28.948 1.653,27.353 4.883,25.997 C5.400,25.780 5.995,26.024 6.212,26.541 C6.429,27.057 6.186,27.652 5.669,27.868 C3.400,28.821 2.046,29.893 2.045,30.737 C2.045,30.738 2.045,30.738 2.045,30.740 C2.049,32.380 6.180,34.371 13.592,35.849 L7.469,23.742 C6.498,21.822 6.491,19.616 7.451,17.691 C8.411,15.766 10.177,14.444 12.295,14.065 C14.610,13.649 16.942,14.556 18.485,16.270 C18.640,15.855 18.836,15.453 19.073,15.071 C20.073,13.458 21.718,12.335 23.585,11.993 L23.797,11.954 C25.666,11.609 27.602,12.076 29.109,13.230 C29.466,13.503 29.792,13.809 30.084,14.142 C30.918,11.992 32.775,10.317 35.088,9.883 C37.202,9.484 39.323,10.095 40.904,11.554 C42.484,13.013 43.262,15.077 43.035,17.216 L42.353,23.663 C42.294,24.220 41.796,24.627 41.237,24.565 C40.680,24.506 40.276,24.007 40.335,23.449 L41.017,17.003 C41.175,15.508 40.632,14.065 39.527,13.046 C38.422,12.026 36.941,11.602 35.462,11.877 C33.119,12.318 31.446,14.610 31.654,17.096 L31.731,18.021 C31.731,18.021 31.731,18.022 31.732,18.023 C31.778,18.581 31.363,19.072 30.804,19.118 C30.249,19.165 29.755,18.750 29.708,18.191 L29.708,18.184 C29.594,16.846 28.944,15.659 27.876,14.843 C26.806,14.024 25.488,13.705 24.164,13.951 L23.952,13.990 C22.627,14.233 21.507,14.996 20.798,16.140 C20.099,17.267 19.908,18.644 20.272,19.918 L20.273,19.921 C20.273,19.922 20.273,19.922 20.273,19.922 C20.428,20.460 20.116,21.022 19.578,21.177 C19.040,21.335 18.477,21.021 18.322,20.482 L18.322,20.482 C18.322,20.480 18.321,20.479 18.320,20.476 L18.066,19.590 C17.378,17.191 15.000,15.644 12.653,16.063 C11.173,16.328 9.939,17.251 9.268,18.597 C8.597,19.943 8.602,21.483 9.280,22.826 L15.768,35.652 C15.868,35.851 15.894,36.065 15.862,36.269 C18.039,36.640 20.455,36.965 23.085,37.231 L19.358,24.753 C19.198,24.216 19.503,23.649 20.040,23.490 C20.578,23.328 21.143,23.634 21.304,24.172 L25.187,37.176 C25.213,37.261 25.223,37.346 25.226,37.431 C27.070,37.588 29.015,37.713 31.048,37.805 C30.998,37.696 30.965,37.577 30.956,37.450 L29.939,22.582 C29.901,22.023 30.324,21.538 30.883,21.500 C31.441,21.459 31.926,21.884 31.965,22.444 L32.982,37.313 C32.996,37.517 32.947,37.711 32.854,37.877 C33.589,37.902 34.338,37.921 35.096,37.937 C35.062,37.601 35.043,37.263 35.043,36.923 C35.043,31.375 39.557,26.861 45.105,26.861 C50.653,26.861 55.167,31.375 55.167,36.923 C55.167,37.004 55.161,37.085 55.160,37.166 C56.759,36.996 58.305,36.800 59.795,36.581 L63.329,24.294 L58.301,23.387 C57.749,23.288 57.382,22.759 57.482,22.207 C57.581,21.656 58.109,21.292 58.661,21.389 L63.893,22.332 L65.349,17.270 C65.835,15.582 65.582,13.759 64.655,12.268 C63.728,10.777 62.205,9.743 60.477,9.431 C58.750,9.118 56.962,9.556 55.572,10.630 C54.660,11.334 53.976,12.276 53.571,13.333 L57.917,14.117 C58.468,14.216 58.835,14.745 58.736,15.296 C58.647,15.787 58.219,16.131 57.738,16.131 C57.678,16.131 57.618,16.126 57.557,16.115 L53.155,15.322 L52.388,25.826 L55.560,26.399 C56.112,26.498 56.479,27.026 56.379,27.578 C56.291,28.069 55.863,28.413 55.381,28.413 C55.322,28.413 55.261,28.408 55.200,28.397 L51.219,27.678 C50.995,27.638 50.804,27.525 50.660,27.371 C50.421,27.169 50.277,26.861 50.302,26.524 L51.149,14.921 C51.328,12.595 52.488,10.447 54.331,9.023 C55.910,7.803 57.878,7.211 59.850,7.322 L61.193,0.812 C61.306,0.263 61.843,-0.090 62.392,0.022 C62.941,0.136 63.294,0.673 63.181,1.222 L62.156,6.191 L64.484,4.616 C64.948,4.302 65.579,4.423 65.893,4.887 C66.208,5.352 66.086,5.982 65.622,6.297 L62.928,8.120 C64.334,8.794 65.542,9.850 66.379,11.197 C67.608,13.174 67.944,15.592 67.300,17.830 L62.007,36.232 C71.350,34.628 75.633,32.305 75.640,30.742 C75.641,30.739 75.640,30.738 75.641,30.736 C75.638,29.743 73.624,28.043 67.950,26.518 C67.409,26.372 67.088,25.815 67.233,25.274 C67.379,24.733 67.936,24.415 68.477,24.557 C74.578,26.198 77.671,28.277 77.671,30.738 C77.671,30.742 77.670,30.745 77.670,30.750 ZM45.105,28.891 C40.676,28.891 37.073,32.494 37.073,36.923 C37.073,37.274 37.104,37.622 37.149,37.968 C37.701,37.973 38.254,37.978 38.817,37.978 C38.759,37.631 38.727,37.279 38.727,36.923 C38.727,33.407 41.588,30.545 45.105,30.545 C48.622,30.545 51.483,33.407 51.483,36.923 C51.483,37.116 51.471,37.308 51.454,37.499 C52.010,37.456 52.565,37.413 53.111,37.364 C53.119,37.217 53.137,37.071 53.137,36.923 C53.137,32.494 49.533,28.891 45.105,28.891 ZM40.757,36.923 C40.757,37.276 40.809,37.622 40.893,37.961 C43.794,37.928 46.639,37.822 49.388,37.647 C49.428,37.408 49.453,37.166 49.453,36.923 C49.453,34.525 47.502,32.575 45.105,32.575 C42.707,32.575 40.757,34.525 40.757,36.923 ZM60.559,38.524 C54.163,39.495 46.654,40.008 38.843,40.008 C23.530,40.008 8.078,38.000 2.348,34.130 C2.494,35.269 2.709,36.646 3.025,38.194 C3.195,38.325 3.326,38.506 3.386,38.729 C4.470,42.753 18.106,46.915 39.051,46.915 C46.390,46.915 53.380,46.392 59.265,45.405 C59.815,45.310 60.341,45.685 60.434,46.237 C60.527,46.790 60.153,47.314 59.601,47.406 C53.607,48.413 46.501,48.945 39.051,48.945 C25.349,48.945 10.260,46.944 4.120,42.624 C6.442,50.602 11.347,60.700 21.701,66.663 L22.372,67.049 L21.354,70.952 C21.301,71.154 21.328,71.362 21.424,71.509 C22.282,72.817 26.072,77.083 38.843,77.083 C51.613,77.083 55.404,72.817 56.262,71.509 C56.358,71.362 56.384,71.154 56.331,70.952 L55.314,67.049 L55.984,66.663 C66.016,60.886 70.933,51.226 73.341,43.375 C71.642,44.440 69.300,45.396 66.308,46.234 C66.217,46.259 66.125,46.271 66.034,46.271 C65.590,46.271 65.183,45.977 65.057,45.530 C64.906,44.990 65.221,44.429 65.761,44.278 C70.355,42.993 73.391,41.381 74.314,39.771 C74.824,37.593 75.140,35.671 75.334,34.164 C72.076,36.344 65.960,37.704 60.559,38.524 ZM47.453,23.859 C47.433,23.859 47.414,23.858 47.394,23.857 C46.720,23.819 46.039,23.785 45.351,23.754 C44.790,23.730 44.356,23.256 44.381,22.695 C44.406,22.135 44.881,21.703 45.440,21.726 C46.137,21.757 46.827,21.791 47.509,21.831 C48.069,21.862 48.497,22.342 48.465,22.901 C48.435,23.442 47.987,23.859 47.453,23.859 Z" class="cls-1"/>
</svg>
