<svg xmlns="http://www.w3.org/2000/svg" xmlns:xlink="http://www.w3.org/1999/xlink" preserveAspectRatio="xMidYMid" width="19.625" height="20" viewBox="0 0 19.625 20">
  <defs>
    <style>
      .cls-1 {
        fill: #5f5f5f;
        fill-rule: evenodd;
      }
    </style>
  </defs>
  <path d="M19.412,18.611 L12.630,11.457 C13.783,10.002 14.366,8.099 14.099,6.119 C13.577,2.254 10.008,-0.465 6.143,0.057 C4.271,0.310 2.609,1.276 1.464,2.779 C0.319,4.282 -0.172,6.140 0.081,8.012 C0.559,11.557 3.602,14.139 7.085,14.139 C7.399,14.139 7.717,14.118 8.036,14.075 C9.332,13.900 10.499,13.382 11.458,12.626 L18.211,19.750 C18.374,19.921 18.593,20.007 18.812,20.007 C19.016,20.007 19.221,19.932 19.381,19.781 C19.713,19.466 19.727,18.943 19.412,18.611 ZM7.878,12.904 C4.659,13.338 1.687,11.073 1.252,7.854 C1.041,6.295 1.451,4.747 2.404,3.495 C3.358,2.244 4.742,1.439 6.301,1.228 C6.568,1.192 6.832,1.175 7.094,1.175 C9.995,1.175 12.529,3.325 12.928,6.278 C13.362,9.496 11.097,12.469 7.878,12.904 Z" class="cls-1"/>
</svg>
