<svg xmlns="http://www.w3.org/2000/svg" xmlns:xlink="http://www.w3.org/1999/xlink" preserveAspectRatio="xMidYMid" width="400" height="80" viewBox="0 0 400 80">
  <defs>
    <style>
      .cls-1 {
        fill: #009c54;
      }

      .cls-1, .cls-2 {
        fill-rule: evenodd;
      }

      .cls-2 {
        fill: #f51919;
      }
    </style>
  </defs>
  <path d="M51.836,29.992 L51.836,40.296 C51.836,40.375 51.806,40.444 51.791,40.519 C51.972,40.720 52.089,40.980 52.089,41.272 L52.089,43.548 C52.089,44.177 51.580,44.686 50.951,44.686 L27.049,44.686 C26.420,44.686 25.911,44.177 25.911,43.548 L25.911,41.272 C25.911,40.980 26.029,40.720 26.209,40.518 C26.194,40.444 26.164,40.375 26.164,40.296 L26.164,29.992 C20.909,29.437 16.805,25.082 16.805,19.809 C16.805,14.160 21.515,9.565 27.302,9.565 C28.215,9.565 29.139,9.693 30.059,9.946 C31.959,6.879 35.301,5.012 39.000,5.012 C42.699,5.012 46.042,6.880 47.941,9.946 C48.861,9.693 49.785,9.565 50.698,9.565 C56.485,9.565 61.195,14.160 61.195,19.809 C61.195,25.082 57.091,29.437 51.836,29.992 ZM50.698,11.841 C49.746,11.841 48.769,12.023 47.794,12.382 C47.252,12.581 46.642,12.342 46.382,11.821 C44.992,9.025 42.163,7.288 39.000,7.288 C35.836,7.288 33.008,9.025 31.618,11.820 C31.361,12.341 30.750,12.581 30.206,12.382 C29.232,12.023 28.255,11.841 27.302,11.841 C22.770,11.841 19.082,15.415 19.082,19.809 C19.082,24.202 22.770,27.776 27.302,27.776 C27.931,27.776 28.441,28.286 28.441,28.914 L28.441,39.158 L49.559,39.158 L49.559,28.914 C49.559,28.286 50.069,27.776 50.698,27.776 C55.231,27.776 58.919,24.202 58.919,19.809 C58.919,15.415 55.231,11.841 50.698,11.841 ZM44.461,50.712 C45.214,50.712 45.825,51.319 45.825,52.067 C45.825,52.814 45.214,53.422 44.461,53.422 C43.707,53.422 43.096,52.814 43.096,52.067 C43.096,51.319 43.707,50.712 44.461,50.712 ZM32.177,52.067 C32.177,51.319 32.789,50.712 33.542,50.712 C34.295,50.712 34.907,51.319 34.907,52.067 C34.907,52.814 34.295,53.422 33.542,53.422 C32.789,53.422 32.177,52.814 32.177,52.067 ZM39.000,65.383 C35.899,65.383 33.385,62.887 33.385,59.808 L44.615,59.808 C44.615,62.887 42.101,65.383 39.000,65.383 ZM25.216,50.865 C25.843,49.074 26.744,47.393 27.904,45.856 C28.283,45.354 28.996,45.252 29.498,45.632 C30.000,46.011 30.100,46.724 29.722,47.226 C28.523,48.816 27.638,50.581 27.093,52.469 C27.009,52.760 26.813,53.005 26.548,53.151 C26.284,53.297 25.973,53.332 25.681,53.246 C25.464,53.182 25.325,53.141 25.247,53.141 C24.358,53.141 23.634,53.855 23.634,54.733 L23.634,57.464 C23.634,58.342 24.358,59.057 25.247,59.057 C25.323,59.057 25.461,59.017 25.605,58.974 C25.895,58.889 26.246,58.912 26.511,59.058 C26.777,59.204 27.010,59.438 27.093,59.729 C29.035,66.472 31.821,72.712 39.000,72.712 C46.179,72.712 48.965,66.472 50.907,59.729 C50.990,59.440 51.186,59.194 51.450,59.048 C51.716,58.902 52.030,58.869 52.317,58.951 C52.539,59.017 52.677,59.057 52.753,59.057 C53.642,59.057 54.366,58.342 54.366,57.464 L54.366,54.733 C54.366,53.855 53.642,53.141 52.753,53.141 C52.675,53.141 52.536,53.182 52.389,53.225 C52.099,53.312 51.753,53.288 51.487,53.142 C51.221,52.996 50.991,52.760 50.907,52.469 C50.362,50.581 49.477,48.816 48.278,47.226 C47.900,46.724 48.000,46.011 48.502,45.632 C49.004,45.252 49.717,45.355 50.096,45.856 C51.256,47.393 52.157,49.074 52.784,50.865 C54.914,50.881 56.642,52.610 56.642,54.733 L56.642,57.464 C56.642,59.578 54.929,61.302 52.812,61.333 C51.333,66.335 48.248,74.988 39.000,74.988 C29.752,74.988 26.667,66.335 25.188,61.333 C23.071,61.302 21.358,59.578 21.358,57.464 L21.358,54.733 C21.358,52.610 23.086,50.881 25.216,50.865 Z" class="cls-1"/>
  <path d="M131.766,70.831 L106.233,70.831 C102.796,70.831 100.000,67.982 100.000,64.481 L100.000,61.481 C100.000,59.855 100.606,58.310 101.708,57.123 C101.731,57.096 101.754,57.069 101.779,57.044 L102.486,57.613 L102.486,57.600 L101.850,56.973 L110.444,48.249 L110.444,38.483 C108.625,38.133 107.245,36.505 107.245,34.555 C107.245,32.351 109.010,30.557 111.178,30.557 L113.000,30.557 C113.000,27.249 115.691,24.557 119.000,24.557 C122.309,24.557 125.000,27.249 125.000,30.557 L126.823,30.557 C128.991,30.557 130.756,32.351 130.756,34.555 C130.756,36.505 129.375,38.134 127.556,38.484 L127.556,48.264 L136.051,56.887 C137.308,58.103 138.000,59.734 138.000,61.481 L138.000,64.481 C138.000,67.982 135.203,70.831 131.766,70.831 ZM119.000,26.557 C116.794,26.557 115.000,28.352 115.000,30.557 L123.000,30.557 C123.000,28.352 121.206,26.557 119.000,26.557 ZM136.000,61.481 C136.000,60.278 135.522,59.154 134.653,58.318 C134.646,58.312 134.641,58.306 134.635,58.299 L125.828,49.360 C125.597,49.126 125.499,48.797 125.556,48.482 L125.556,37.553 C125.556,37.001 126.003,36.553 126.556,36.553 L126.823,36.553 C127.889,36.553 128.756,35.657 128.756,34.555 C128.756,33.454 127.889,32.557 126.823,32.557 L111.178,32.557 C110.112,32.557 109.245,33.454 109.245,34.555 C109.245,35.657 110.112,36.553 111.178,36.553 L111.444,36.553 C111.997,36.553 112.444,37.001 112.444,37.553 L112.444,48.658 C112.444,48.921 112.341,49.173 112.157,49.360 L103.275,58.377 L103.273,58.375 C103.254,58.397 103.234,58.420 103.214,58.441 C102.431,59.263 102.000,60.342 102.000,61.481 L102.000,64.481 C102.000,66.879 103.899,68.831 106.233,68.831 L131.766,68.831 C134.101,68.831 136.000,66.879 136.000,64.481 L136.000,61.481 ZM129.000,15.169 C127.346,15.169 126.000,13.824 126.000,12.169 C126.000,10.515 127.346,9.169 129.000,9.169 C130.654,9.169 132.000,10.515 132.000,12.169 C132.000,13.824 130.654,15.169 129.000,15.169 ZM129.000,11.169 C128.448,11.169 128.000,11.618 128.000,12.169 C128.000,12.721 128.448,13.169 129.000,13.169 C129.552,13.169 130.000,12.721 130.000,12.169 C130.000,11.618 129.552,11.169 129.000,11.169 ZM122.000,23.057 C119.519,23.057 117.500,21.039 117.500,18.557 C117.500,16.076 119.519,14.057 122.000,14.057 C124.481,14.057 126.500,16.076 126.500,18.557 C126.500,21.039 124.481,23.057 122.000,23.057 ZM122.000,16.057 C120.621,16.057 119.500,17.179 119.500,18.557 C119.500,19.935 120.621,21.057 122.000,21.057 C123.379,21.057 124.500,19.935 124.500,18.557 C124.500,17.179 123.379,16.057 122.000,16.057 Z" class="cls-1"/>
  <path d="M219.795,41.603 C219.864,41.706 219.932,41.811 219.984,41.924 C220.257,42.515 220.282,43.174 220.059,43.782 C220.034,43.848 220.006,43.910 219.981,43.975 C220.088,44.053 220.194,44.133 220.289,44.229 C220.747,44.685 221.000,45.295 221.000,45.945 C220.999,52.439 217.977,58.547 212.861,62.513 L213.146,62.798 C213.844,63.494 214.051,64.534 213.674,65.444 C213.296,66.356 212.415,66.945 211.430,66.945 L188.571,66.945 C187.585,66.945 186.705,66.356 186.328,65.445 C185.950,64.535 186.157,63.496 186.855,62.798 L187.140,62.514 C182.022,58.548 179.001,52.440 179.000,45.945 C179.000,45.295 179.253,44.685 179.713,44.227 C179.977,43.962 180.296,43.775 180.641,43.657 C178.939,39.011 178.920,33.951 180.650,29.255 C180.877,28.645 181.324,28.161 181.912,27.890 C182.333,27.695 182.787,27.632 183.234,27.690 C183.184,22.640 184.924,17.780 188.238,13.906 C188.653,13.420 189.258,13.113 189.895,13.063 C190.537,13.011 191.170,13.218 191.662,13.639 L219.887,37.785 C220.372,38.202 220.679,38.805 220.729,39.442 C220.778,40.089 220.574,40.716 220.152,41.209 C220.037,41.344 219.914,41.471 219.795,41.603 ZM188.176,64.680 C188.242,64.841 188.397,64.945 188.571,64.945 L211.430,64.945 C211.603,64.945 211.760,64.840 211.826,64.679 C211.893,64.519 211.855,64.336 211.732,64.213 L210.814,63.295 L189.186,63.295 L188.269,64.213 C188.146,64.336 188.109,64.519 188.176,64.680 ZM181.127,45.642 C181.044,45.724 181.000,45.831 181.000,45.945 C181.001,52.024 183.935,57.723 188.863,61.295 L211.137,61.295 C216.065,57.723 218.999,52.024 219.000,45.945 C219.000,45.831 218.956,45.724 218.875,45.644 C218.794,45.562 218.684,45.517 218.571,45.517 L182.063,45.517 C182.060,45.517 182.057,45.516 182.054,45.517 L181.429,45.517 C181.316,45.517 181.206,45.562 181.127,45.642 ZM182.749,29.706 C182.646,29.754 182.566,29.840 182.526,29.948 C180.894,34.378 180.982,39.168 182.728,43.517 L218.011,43.517 C218.068,43.374 218.129,43.234 218.183,43.090 C218.221,42.985 218.216,42.865 218.169,42.762 C218.122,42.661 218.034,42.579 217.928,42.540 L183.078,29.693 C182.972,29.653 182.855,29.659 182.749,29.706 ZM218.586,39.304 L190.362,15.159 C190.276,15.085 190.171,15.045 190.050,15.057 C189.938,15.066 189.831,15.120 189.758,15.206 C186.611,18.885 185.020,23.547 185.240,28.358 L218.117,40.478 C218.291,40.291 218.466,40.105 218.633,39.909 C218.706,39.823 218.743,39.709 218.734,39.597 C218.726,39.484 218.672,39.378 218.586,39.304 Z" class="cls-1"/>
  <path d="M299.048,70.000 L284.952,70.000 C284.479,70.000 284.019,69.884 283.580,69.715 C283.077,69.885 282.549,70.000 281.991,70.000 L262.132,70.000 C259.336,70.000 257.062,67.685 257.062,64.840 L257.062,30.019 C257.062,28.698 257.553,27.446 258.447,26.482 C258.464,26.461 258.483,26.440 258.502,26.420 C258.509,26.413 258.576,26.346 258.582,26.338 L265.186,19.635 L265.186,16.565 C263.758,16.205 262.697,14.892 262.697,13.331 C262.697,11.495 264.168,10.000 265.978,10.000 L278.146,10.000 C279.956,10.000 281.428,11.495 281.428,13.331 C281.428,14.892 280.367,16.205 278.938,16.565 L278.938,19.647 L285.479,26.287 C285.910,26.704 286.238,27.190 286.498,27.708 C286.855,27.523 287.253,27.408 287.681,27.408 L296.319,27.408 C297.763,27.408 298.939,28.599 298.939,30.063 C298.939,31.225 298.199,32.215 297.171,32.575 L297.171,34.428 L301.738,39.062 C302.505,39.802 302.938,40.819 302.938,41.909 L302.938,66.046 C302.938,68.227 301.193,70.000 299.048,70.000 ZM285.062,36.630 C285.062,36.630 285.062,36.629 285.062,36.629 L285.062,30.019 C285.062,29.143 284.714,28.326 284.082,27.719 C284.076,27.712 284.070,27.706 284.064,27.700 L277.214,20.747 C276.989,20.518 276.890,20.200 276.938,19.892 L276.938,15.664 C276.938,15.111 277.385,14.664 277.938,14.664 L278.146,14.664 C278.853,14.664 279.428,14.066 279.428,13.331 C279.428,12.597 278.853,12.000 278.146,12.000 L265.978,12.000 C265.272,12.000 264.697,12.597 264.697,13.331 C264.697,14.066 265.272,14.664 265.978,14.664 L266.186,14.664 C266.739,14.664 267.186,15.111 267.186,15.664 L267.186,20.045 C267.186,20.308 267.082,20.560 266.898,20.747 L259.989,27.760 L259.989,27.759 C259.974,27.776 259.959,27.792 259.945,27.808 C259.375,28.405 259.062,29.190 259.062,30.019 L259.062,64.840 C259.062,66.582 260.439,68.000 262.132,68.000 L281.991,68.000 C283.684,68.000 285.062,66.582 285.062,64.840 L285.062,36.630 ZM300.938,41.909 C300.938,41.367 300.723,40.861 300.331,40.484 L295.451,35.530 C295.230,35.307 295.131,34.998 295.171,34.696 L295.171,31.719 C295.171,31.167 295.619,30.719 296.171,30.719 L296.319,30.719 C296.661,30.719 296.939,30.425 296.939,30.063 C296.939,29.702 296.661,29.408 296.319,29.408 L287.681,29.408 C287.339,29.408 287.062,29.702 287.062,30.063 C287.062,30.425 287.339,30.719 287.681,30.719 L287.829,30.719 C288.381,30.719 288.829,31.167 288.829,31.719 L288.829,34.829 C288.829,35.091 288.725,35.343 288.541,35.530 L287.062,37.032 L287.062,47.829 L297.093,47.829 L297.093,58.948 L287.062,58.948 L287.062,64.840 C287.062,66.036 286.643,67.124 285.970,68.000 L299.048,68.000 C300.090,68.000 300.938,67.124 300.938,66.046 L300.938,41.909 ZM264.887,38.358 L279.237,38.358 L279.237,54.022 L264.887,54.022 L264.887,38.358 Z" class="cls-2"/>
  <path d="M379.277,59.276 C378.132,60.420 376.643,60.997 375.183,60.997 C373.828,60.997 372.498,60.500 371.495,59.496 C371.453,59.455 371.415,59.409 371.382,59.361 L364.762,49.875 C364.643,49.705 364.603,49.510 364.600,49.317 C364.359,49.477 364.129,49.620 363.899,49.748 C361.295,51.293 358.399,52.047 355.520,52.047 C351.252,52.047 347.022,50.391 343.832,47.202 C340.718,44.087 339.003,39.938 339.003,35.517 C339.003,31.096 340.718,26.947 343.832,23.833 C346.946,20.718 351.096,19.003 355.517,19.003 C359.938,19.003 364.088,20.718 367.202,23.833 C372.543,29.173 373.585,37.434 369.736,43.920 C369.614,44.138 369.475,44.362 369.317,44.600 C369.510,44.603 369.705,44.642 369.875,44.761 L379.361,51.382 C379.410,51.416 379.455,51.454 379.496,51.496 C381.580,53.580 381.482,57.070 379.277,59.276 ZM365.788,25.247 C363.051,22.510 359.403,21.003 355.517,21.003 C351.630,21.003 347.983,22.510 345.246,25.247 C342.510,27.983 341.003,31.630 341.003,35.517 C341.003,39.404 342.510,43.051 345.246,45.788 C349.940,50.481 357.199,51.399 362.899,48.016 C363.269,47.808 363.623,47.576 364.061,47.254 C364.082,47.237 364.102,47.220 364.122,47.207 C364.693,46.797 365.254,46.319 365.789,45.786 C366.313,45.260 366.791,44.700 367.208,44.122 C367.223,44.100 367.240,44.079 367.257,44.058 C367.577,43.621 367.809,43.268 368.004,42.919 C371.398,37.200 370.482,29.941 365.788,25.247 ZM378.139,52.968 L368.731,46.402 C368.544,46.271 368.431,46.083 368.367,45.882 C368.005,46.335 367.622,46.780 367.203,47.201 C366.776,47.626 366.331,48.008 365.881,48.367 C366.083,48.431 366.271,48.544 366.402,48.731 L372.968,58.139 C374.280,59.382 376.457,59.267 377.862,57.862 C379.266,56.457 379.383,54.280 378.139,52.968 Z" class="cls-2"/>
</svg>
