<svg xmlns="http://www.w3.org/2000/svg" xmlns:xlink="http://www.w3.org/1999/xlink" preserveAspectRatio="xMidYMid" width="39.469" height="35.187" viewBox="0 0 39.469 35.187">
  <defs>
    <style>
      .cls-1 {
        fill: #3c4246;
        fill-rule: evenodd;
      }
    </style>
  </defs>
  <path d="M39.279,26.213 C38.806,28.536 36.809,30.671 33.531,32.310 C29.842,34.156 24.938,35.172 19.723,35.172 C14.504,35.172 9.599,34.160 5.911,32.322 C2.596,30.670 0.587,28.511 0.142,26.162 C0.041,25.950 -0.013,25.730 -0.013,25.503 C-0.013,24.574 0.839,23.738 2.515,23.016 C2.265,22.472 2.121,21.868 2.121,21.231 L2.121,20.794 L37.507,20.794 L37.507,21.231 C37.507,21.892 37.352,22.516 37.084,23.076 C38.195,23.551 39.459,24.295 39.459,25.503 C39.459,25.748 39.397,25.986 39.279,26.213 ZM19.723,34.299 C28.401,34.299 35.722,31.417 37.874,27.512 C34.650,29.384 27.012,30.376 19.723,30.376 C12.414,30.376 4.754,29.379 1.545,27.497 C3.677,31.408 11.017,34.299 19.723,34.299 ZM3.021,21.667 C3.236,23.349 4.677,24.654 6.417,24.654 L33.211,24.654 C34.951,24.654 36.392,23.349 36.607,21.667 L3.021,21.667 ZM36.624,23.829 C35.838,24.858 34.603,25.526 33.211,25.526 L6.417,25.526 C5.000,25.526 3.745,24.834 2.962,23.773 C1.846,24.241 1.129,24.757 0.923,25.229 C0.926,25.454 0.949,25.677 0.986,25.898 C1.406,26.588 2.919,27.467 6.173,28.215 C9.787,29.046 14.599,29.503 19.723,29.503 C24.846,29.503 29.658,29.046 33.272,28.215 C36.489,27.475 38.005,26.607 38.445,25.922 C38.487,25.678 38.513,25.434 38.516,25.185 C38.316,24.725 37.682,24.271 36.624,23.829 ZM35.585,20.076 C35.579,20.076 35.573,20.076 35.568,20.076 C34.724,20.076 33.931,19.748 33.333,19.150 L33.272,19.089 C32.380,18.197 30.929,18.198 30.037,19.090 L29.956,19.170 C28.724,20.402 26.719,20.403 25.487,19.171 L25.406,19.089 C24.514,18.198 23.062,18.198 22.170,19.090 L22.089,19.171 C21.492,19.768 20.699,20.096 19.855,20.096 C19.011,20.096 18.217,19.768 17.620,19.171 L17.539,19.089 C16.647,18.198 15.195,18.198 14.303,19.090 L14.223,19.170 C12.990,20.402 10.985,20.403 9.753,19.171 L9.672,19.089 C8.780,18.198 7.329,18.198 6.437,19.090 L6.407,19.119 C5.799,19.727 4.990,20.069 4.131,20.044 C3.271,20.033 2.472,19.683 1.880,19.059 L1.797,18.973 C1.632,18.798 1.639,18.522 1.813,18.356 C1.988,18.190 2.264,18.198 2.430,18.372 L2.513,18.459 C2.941,18.911 3.520,19.164 4.143,19.172 C4.770,19.172 5.350,18.942 5.790,18.502 L5.820,18.473 C7.052,17.241 9.057,17.241 10.289,18.473 L10.370,18.554 C11.262,19.446 12.714,19.446 13.606,18.554 L13.686,18.473 C14.919,17.241 16.924,17.241 18.156,18.473 L18.237,18.554 C18.669,18.986 19.244,19.224 19.855,19.224 C20.466,19.224 21.040,18.986 21.472,18.554 L21.553,18.473 C22.786,17.241 24.791,17.241 26.023,18.473 L26.104,18.554 C26.996,19.446 28.447,19.446 29.339,18.554 L29.420,18.473 C30.652,17.241 32.657,17.241 33.890,18.473 L33.951,18.534 C34.383,18.966 34.957,19.203 35.568,19.203 C35.572,19.203 35.576,19.203 35.580,19.203 C36.196,19.200 36.772,18.956 37.203,18.517 C37.371,18.345 37.647,18.341 37.820,18.510 C37.992,18.679 37.995,18.955 37.826,19.127 C37.231,19.735 36.435,20.072 35.585,20.076 ZM35.990,16.756 L11.687,16.756 C11.446,16.756 11.251,16.561 11.251,16.320 C11.251,16.079 11.446,15.884 11.687,15.884 L35.990,15.884 C36.162,15.884 36.323,15.817 36.443,15.696 C36.551,15.587 36.616,15.447 36.628,15.296 L36.627,15.240 C36.627,11.475 32.609,8.852 29.003,8.852 C28.762,8.852 28.567,8.657 28.567,8.416 C28.567,8.175 28.762,7.980 29.003,7.980 C32.967,7.980 37.202,10.703 37.485,14.804 L37.498,14.804 L37.502,15.238 C37.504,15.643 37.348,16.024 37.062,16.311 C36.776,16.598 36.396,16.756 35.990,16.756 ZM30.093,13.208 C30.038,13.232 29.980,13.243 29.924,13.243 C29.754,13.243 29.592,13.143 29.522,12.976 C28.462,10.471 26.019,8.852 23.299,8.852 L19.307,8.852 C20.841,9.655 22.090,10.970 22.795,12.637 C22.889,12.858 22.785,13.114 22.563,13.208 C22.508,13.232 22.450,13.243 22.394,13.243 C22.223,13.243 22.062,13.143 21.992,12.976 C20.932,10.471 18.490,8.852 15.769,8.852 L11.958,8.852 C13.395,9.643 14.548,10.941 15.265,12.637 C15.359,12.858 15.255,13.114 15.033,13.208 C14.978,13.232 14.920,13.243 14.864,13.243 C14.694,13.243 14.532,13.143 14.462,12.976 C13.480,10.655 11.592,9.168 9.284,8.897 C9.235,8.891 9.190,8.876 9.148,8.856 C5.496,8.939 2.550,11.933 2.550,15.605 C2.550,15.759 2.675,15.884 2.829,15.884 L9.334,15.884 C9.575,15.884 9.771,16.079 9.771,16.320 C9.771,16.561 9.575,16.756 9.334,16.756 L2.829,16.756 C2.194,16.756 1.678,16.240 1.678,15.605 C1.678,11.400 5.098,7.980 9.303,7.980 L23.790,7.980 C23.844,7.980 23.896,7.990 23.943,8.009 C26.751,8.245 29.213,10.007 30.325,12.637 C30.419,12.858 30.315,13.114 30.093,13.208 ZM25.712,2.313 C25.476,2.487 25.349,2.776 25.379,3.068 C25.403,3.307 25.229,3.522 24.989,3.546 C24.974,3.548 24.959,3.549 24.944,3.549 C24.723,3.549 24.534,3.381 24.511,3.157 C24.449,2.560 24.711,1.968 25.193,1.611 L26.115,0.930 C26.308,0.787 26.581,0.828 26.725,1.022 C26.868,1.216 26.827,1.489 26.633,1.632 L25.712,2.313 ZM25.271,5.248 C25.414,5.442 25.374,5.715 25.180,5.858 L24.049,6.694 C23.971,6.752 23.880,6.779 23.790,6.779 C23.657,6.779 23.525,6.719 23.439,6.603 C23.296,6.409 23.337,6.136 23.531,5.993 L24.661,5.157 C24.855,5.014 25.128,5.054 25.271,5.248 ZM21.003,1.478 C20.825,1.609 20.708,1.803 20.675,2.023 C20.642,2.242 20.697,2.461 20.829,2.640 C21.099,3.006 21.211,3.455 21.144,3.905 C21.076,4.356 20.837,4.752 20.471,5.023 L19.341,5.858 C19.263,5.916 19.172,5.944 19.082,5.944 C18.948,5.944 18.816,5.883 18.731,5.767 C18.587,5.573 18.628,5.300 18.822,5.157 L19.953,4.321 C20.131,4.189 20.248,3.996 20.281,3.776 C20.314,3.557 20.259,3.337 20.127,3.159 C19.857,2.792 19.745,2.343 19.812,1.893 C19.880,1.443 20.119,1.046 20.485,0.776 L21.406,0.094 C21.600,-0.049 21.873,-0.008 22.016,0.186 C22.160,0.380 22.119,0.653 21.925,0.796 L21.003,1.478 ZM15.107,2.313 C14.928,2.445 14.812,2.639 14.779,2.858 C14.746,3.078 14.800,3.297 14.932,3.476 C15.203,3.841 15.315,4.291 15.247,4.741 C15.180,5.191 14.941,5.588 14.575,5.858 L13.444,6.694 C13.366,6.752 13.276,6.779 13.185,6.779 C13.052,6.779 12.920,6.719 12.834,6.603 C12.691,6.409 12.732,6.136 12.926,5.993 L14.056,5.157 C14.235,5.025 14.351,4.831 14.384,4.612 C14.417,4.392 14.363,4.173 14.231,3.994 C13.960,3.628 13.849,3.179 13.916,2.729 C13.984,2.279 14.222,1.882 14.588,1.611 L15.510,0.930 C15.703,0.787 15.977,0.828 16.120,1.022 C16.263,1.216 16.222,1.489 16.029,1.632 L15.107,2.313 Z" class="cls-1"/>
</svg>
