<svg xmlns="http://www.w3.org/2000/svg" xmlns:xlink="http://www.w3.org/1999/xlink" preserveAspectRatio="xMidYMid" width="175" height="35" viewBox="0 0 175 35">
  <defs>
    <style>
      .cls-1 {
        fill: #fff1d8;
      }

      .cls-1, .cls-2, .cls-3, .cls-4 {
        fill-rule: evenodd;
      }

      .cls-2 {
        fill: #fff;
      }

      .cls-3 {
        fill: #684b37;
      }

      .cls-4 {
        fill: #644733;
      }
    </style>
  </defs>
  <g>
    <path d="M62.719,31.000 L41.719,31.000 C40.614,31.000 39.719,30.104 39.719,29.000 L39.719,8.000 C39.719,6.895 40.614,6.000 41.719,6.000 L62.719,6.000 C63.823,6.000 64.719,6.895 64.719,8.000 L64.719,29.000 C64.719,30.104 63.823,31.000 62.719,31.000 Z" class="cls-1"/>
    <path d="M52.156,8.420 C49.314,8.420 46.668,9.206 44.418,10.544 L47.676,15.588 C48.979,14.813 50.511,14.397 52.156,14.397 C53.802,14.397 55.334,14.813 56.636,15.588 L59.894,10.544 C57.644,9.206 54.999,8.420 52.156,8.420 Z" class="cls-2"/>
    <path d="M62.250,31.000 L42.250,31.000 C40.872,31.000 39.750,29.879 39.750,28.500 L39.750,7.500 C39.750,6.122 40.872,5.000 42.250,5.000 L62.250,5.000 C63.629,5.000 64.750,6.122 64.750,7.500 L64.750,28.500 C64.750,29.879 63.629,31.000 62.250,31.000 ZM63.750,7.500 C63.750,6.673 63.077,6.000 62.250,6.000 L42.250,6.000 C41.423,6.000 40.750,6.673 40.750,7.500 L40.750,28.500 C40.750,29.327 41.423,30.000 42.250,30.000 L62.250,30.000 C63.077,30.000 63.750,29.327 63.750,28.500 L63.750,7.500 ZM55.974,16.049 C53.510,14.583 50.991,14.583 48.525,16.049 L48.111,16.295 L44.310,10.411 L44.756,10.146 C49.585,7.275 54.917,7.276 59.744,10.146 L60.190,10.411 L56.388,16.295 L55.974,16.049 ZM45.718,10.748 L48.436,14.955 C49.076,14.622 49.708,14.372 50.336,14.204 L49.310,11.638 L50.238,11.267 L51.334,14.007 C52.902,13.805 54.459,14.119 56.064,14.955 L58.781,10.748 C54.483,8.395 50.019,8.395 45.718,10.748 ZM51.750,26.136 L51.750,17.116 L52.750,17.116 L52.750,26.136 L56.935,22.729 L57.565,23.504 L52.250,27.832 L46.934,23.504 L47.566,22.729 L51.750,26.136 Z" class="cls-3"/>
  </g>
  <g>
    <path d="M27.943,14.163 C25.086,14.552 22.228,14.941 19.370,15.330 C17.583,15.573 15.795,15.816 14.008,16.060 C14.221,16.908 14.125,17.827 13.672,18.597 C13.121,19.537 12.183,20.148 11.109,20.278 C10.082,20.402 8.978,20.007 8.280,19.231 C7.702,18.588 7.392,17.795 7.373,16.962 C6.174,17.126 6.449,17.110 5.250,17.273 L5.250,27.504 C5.270,27.501 5.290,27.498 5.310,27.496 L12.773,26.458 C14.561,26.214 16.348,25.971 18.135,25.728 C17.463,24.677 17.220,23.363 17.532,22.132 C18.181,19.580 21.028,17.964 23.516,18.957 C24.734,19.443 25.687,20.359 26.173,21.591 C26.554,22.559 26.572,23.639 26.265,24.621 C27.594,24.441 28.922,24.260 30.250,24.080 L29.643,13.947 C29.286,13.996 29.178,13.995 29.178,13.995 L27.943,14.163 ZM8.559,25.261 C7.607,25.242 6.849,24.499 6.798,23.550 C6.796,23.529 6.795,23.508 6.795,23.486 C6.795,23.463 6.796,23.442 6.798,23.421 C6.850,22.498 7.608,21.691 8.559,21.711 C9.503,21.730 10.343,22.506 10.324,23.486 C10.304,24.436 9.533,25.281 8.559,25.261 Z" class="cls-1"/>
    <path d="M24.593,14.635 C21.423,15.066 18.253,15.497 15.083,15.929 C14.529,16.004 14.562,15.984 14.008,16.060 C13.339,15.289 11.640,15.102 10.591,15.118 C9.782,15.130 9.037,15.470 8.418,15.976 C8.113,16.226 7.559,16.587 7.373,16.962 C6.586,17.069 6.067,17.156 5.280,17.263 C6.723,16.084 8.166,14.906 9.608,13.727 C10.317,13.148 11.026,12.569 11.736,11.990 C13.000,12.575 14.662,12.447 15.746,11.569 C16.235,11.173 16.571,10.558 16.512,9.913 C16.466,9.399 16.212,8.963 15.854,8.626 C15.904,8.585 15.953,8.544 16.003,8.504 C17.527,8.512 19.030,8.688 20.481,8.958 C21.795,9.202 23.117,9.543 24.341,10.089 C25.555,10.630 26.730,11.387 27.735,12.200 C28.398,12.736 29.049,13.318 29.643,13.947 C27.960,14.177 26.276,14.406 24.593,14.635 ZM19.901,10.859 C19.037,10.845 18.004,11.322 17.872,12.251 C17.861,12.297 17.856,12.346 17.858,12.400 C17.856,12.451 17.861,12.498 17.870,12.542 C18.116,14.462 21.871,14.415 21.943,12.400 C21.981,11.353 20.752,10.872 19.901,10.859 Z" class="cls-1"/>
    <path d="M30.749,24.049 C30.765,24.310 30.577,24.539 30.317,24.574 L26.333,25.116 C26.165,25.137 25.994,25.074 25.883,24.943 C25.773,24.813 25.737,24.635 25.788,24.472 C26.068,23.575 26.040,22.617 25.708,21.774 C25.283,20.699 24.439,19.863 23.331,19.422 C22.318,19.017 21.196,19.081 20.170,19.604 C19.090,20.153 18.306,21.120 18.018,22.255 C17.745,23.330 17.941,24.498 18.556,25.459 C18.648,25.602 18.660,25.783 18.588,25.939 C18.517,26.094 18.371,26.201 18.202,26.224 L5.379,27.991 C5.355,27.995 5.330,27.996 5.304,27.996 C5.179,27.996 5.043,27.956 4.952,27.877 C4.843,27.782 4.750,27.648 4.750,27.504 L4.750,17.273 C4.750,17.228 4.783,17.195 4.795,17.153 C4.797,17.145 4.801,17.138 4.804,17.130 C4.833,17.040 4.872,16.966 4.944,16.907 C4.953,16.898 4.954,16.883 4.964,16.875 L11.419,11.602 C11.568,11.482 11.772,11.458 11.945,11.536 C13.069,12.058 14.535,11.907 15.431,11.181 C15.830,10.857 16.054,10.389 16.015,9.958 C15.974,9.511 15.718,9.185 15.511,8.990 C15.406,8.892 15.349,8.753 15.354,8.608 C15.359,8.465 15.426,8.330 15.538,8.238 L15.689,8.114 C15.778,8.043 15.889,8.004 16.003,8.004 C16.004,8.004 16.005,8.004 16.005,8.004 C17.443,8.012 18.937,8.162 20.573,8.467 C22.131,8.755 23.430,9.136 24.544,9.632 C25.726,10.159 26.938,10.913 28.049,11.811 C28.804,12.422 29.444,13.009 30.006,13.604 C30.082,13.684 30.117,13.786 30.129,13.892 C30.130,13.901 30.141,13.907 30.142,13.917 L30.749,24.049 ZM5.750,26.930 L17.352,25.330 C16.882,24.285 16.769,23.109 17.048,22.009 C17.407,20.595 18.379,19.394 19.716,18.713 C20.982,18.066 22.434,17.987 23.702,18.492 C25.068,19.037 26.111,20.072 26.638,21.407 C26.962,22.231 27.056,23.140 26.916,24.028 L29.723,23.646 L29.176,14.515 L15.150,16.424 C14.866,16.463 14.733,16.476 14.598,16.491 C14.597,16.491 14.594,16.492 14.593,16.492 C14.685,17.324 14.518,18.146 14.104,18.851 C13.474,19.924 12.404,20.625 11.168,20.774 C9.961,20.928 8.711,20.458 7.908,19.564 C7.380,18.977 7.046,18.282 6.924,17.530 C6.686,17.564 6.541,17.588 6.397,17.610 C6.227,17.638 6.059,17.665 5.750,17.709 L5.750,26.930 ZM6.992,16.510 C7.020,16.506 7.048,16.502 7.077,16.498 C7.127,16.433 7.181,16.369 7.240,16.308 L6.992,16.510 ZM7.888,17.091 C7.935,17.760 8.191,18.383 8.652,18.897 C9.231,19.541 10.172,19.890 11.048,19.782 C11.971,19.671 12.770,19.147 13.241,18.344 C13.587,17.755 13.689,17.022 13.543,16.312 C12.999,15.813 11.651,15.589 10.599,15.618 C9.796,15.630 9.142,16.030 8.734,16.363 C8.734,16.363 8.734,16.364 8.733,16.364 L8.504,16.543 C8.305,16.695 8.028,16.911 7.888,17.091 ZM27.420,12.589 C26.376,11.744 25.240,11.038 24.137,10.546 C23.096,10.082 21.870,9.724 20.391,9.449 C19.105,9.211 17.912,9.069 16.770,9.023 C16.902,9.288 16.984,9.572 17.011,9.867 C17.081,10.638 16.725,11.419 16.061,11.958 C14.943,12.863 13.240,13.098 11.820,12.566 L8.374,15.382 C9.065,14.892 9.823,14.629 10.584,14.618 C10.623,14.617 10.666,14.617 10.715,14.617 C11.440,14.617 13.230,14.706 14.183,15.531 L28.559,13.575 C28.211,13.251 27.835,12.924 27.420,12.589 ZM20.414,14.007 C20.365,14.009 20.315,14.010 20.266,14.010 C19.122,14.010 17.934,13.405 17.780,12.196 C17.768,12.150 17.761,12.062 17.764,11.975 C17.761,11.923 17.768,11.843 17.785,11.760 C17.963,10.585 19.165,9.950 20.267,9.985 C20.857,9.994 21.740,10.211 22.287,10.789 C22.610,11.130 22.772,11.553 22.755,12.012 C22.716,13.125 21.753,13.945 20.414,14.007 ZM21.575,11.466 C21.260,11.135 20.668,10.976 20.252,10.969 C20.243,10.969 20.235,10.969 20.226,10.969 C19.662,10.969 18.848,11.259 18.754,11.916 C18.752,11.929 18.362,12.348 18.359,12.360 C18.358,12.366 18.745,11.967 18.745,11.977 C18.839,12.741 19.638,13.044 20.369,13.023 C21.001,12.994 21.748,12.703 21.774,11.977 C21.781,11.783 21.716,11.615 21.575,11.466 ZM8.770,20.993 C9.869,21.015 10.781,21.939 10.760,23.011 C10.738,24.104 9.839,25.011 8.789,25.011 C8.776,25.011 8.764,25.011 8.752,25.011 C7.678,24.988 6.824,24.160 6.765,23.082 C6.765,23.071 6.763,23.003 6.763,22.991 C6.762,22.978 6.763,22.945 6.766,22.914 C6.827,21.836 7.719,21.002 8.770,20.993 ZM8.770,24.128 C9.349,24.130 9.864,23.620 9.877,22.992 C9.889,22.400 9.374,21.888 8.752,21.876 C8.141,21.847 7.682,22.355 7.647,22.970 C7.680,23.645 8.163,24.116 8.770,24.128 Z" class="cls-3"/>
  </g>
  <g>
    <path d="M91.761,12.454 C90.701,13.512 89.176,13.879 88.310,14.005 C88.437,13.141 88.805,11.621 89.864,10.564 C90.924,9.507 92.449,9.140 93.314,9.014 C93.187,9.877 92.820,11.398 91.761,12.454 ZM87.655,10.190 C87.133,9.493 86.315,8.162 86.315,6.658 C86.315,5.163 87.134,3.827 87.656,3.128 C88.178,3.828 88.997,5.163 88.997,6.658 C88.997,8.155 88.177,9.491 87.655,10.190 ZM87.002,14.005 C86.137,13.879 84.612,13.512 83.552,12.454 C82.492,11.397 82.125,9.875 81.998,9.012 C82.861,9.137 84.383,9.501 85.449,10.564 C86.508,11.621 86.875,13.141 87.002,14.005 ZM87.002,20.525 C86.137,20.399 84.612,20.032 83.552,18.974 C82.492,17.917 82.125,16.395 81.998,15.532 C82.861,15.657 84.383,16.021 85.449,17.085 C86.508,18.141 86.875,19.661 87.002,20.525 ZM87.002,27.045 C86.137,26.919 84.612,26.552 83.552,25.494 C82.492,24.437 82.125,22.915 81.998,22.052 C82.861,22.177 84.383,22.541 85.449,23.605 C86.508,24.661 86.875,26.182 87.002,27.045 ZM89.864,17.085 C90.924,16.026 92.451,15.659 93.316,15.534 C93.191,16.395 92.825,17.912 91.761,18.974 C90.701,20.032 89.176,20.399 88.310,20.525 C88.437,19.661 88.805,18.141 89.864,17.085 ZM89.864,23.605 C90.923,22.547 92.449,22.180 93.314,22.054 C93.187,22.917 92.819,24.438 91.761,25.494 C90.701,26.552 89.176,26.919 88.310,27.045 C88.437,26.182 88.805,24.661 89.864,23.605 Z" class="cls-1"/>
    <path d="M89.033,16.627 C90.922,14.741 93.835,14.669 93.958,14.667 C94.115,14.666 94.271,14.726 94.384,14.839 C94.497,14.952 94.559,15.106 94.556,15.265 C94.554,15.388 94.481,18.296 92.592,20.182 C91.185,21.586 89.212,21.984 88.245,22.097 L88.245,24.164 C88.467,23.810 88.717,23.462 89.033,23.147 C90.922,21.262 93.835,21.189 93.958,21.187 C94.115,21.183 94.271,21.246 94.384,21.359 C94.497,21.472 94.559,21.626 94.556,21.786 C94.554,21.908 94.481,24.816 92.592,26.702 C91.185,28.106 89.212,28.504 88.245,28.617 L88.245,31.413 C88.245,31.738 87.981,32.002 87.656,32.002 C87.331,32.002 87.068,31.738 87.068,31.413 L87.068,28.617 C86.101,28.504 84.128,28.106 82.721,26.702 C80.831,24.816 80.759,21.908 80.756,21.786 C80.753,21.626 80.816,21.472 80.928,21.359 C81.041,21.246 81.190,21.183 81.355,21.187 C81.478,21.189 84.391,21.262 86.280,23.147 C86.596,23.462 86.845,23.810 87.068,24.165 L87.068,22.097 C86.101,21.984 84.128,21.586 82.721,20.182 C80.831,18.296 80.759,15.388 80.756,15.265 C80.753,15.106 80.816,14.952 80.928,14.839 C81.041,14.726 81.190,14.665 81.355,14.667 C81.478,14.669 84.391,14.741 86.280,16.627 C86.596,16.942 86.845,17.290 87.068,17.645 L87.068,15.577 C86.101,15.464 84.128,15.066 82.721,13.662 C80.831,11.776 80.759,8.868 80.756,8.745 C80.753,8.586 80.816,8.432 80.928,8.319 C81.041,8.206 81.190,8.142 81.355,8.147 C81.467,8.149 83.891,8.214 85.751,9.649 C85.408,8.897 85.139,8.004 85.139,7.033 C85.139,4.366 87.148,2.259 87.233,2.170 C87.455,1.941 87.857,1.941 88.079,2.170 C88.165,2.259 90.174,4.366 90.174,7.033 C90.174,8.004 89.905,8.897 89.562,9.649 C91.421,8.214 93.846,8.149 93.958,8.147 C94.115,8.143 94.271,8.206 94.384,8.319 C94.497,8.432 94.559,8.586 94.556,8.745 C94.554,8.868 94.481,11.776 92.592,13.662 C91.185,15.066 89.212,15.464 88.245,15.577 L88.245,17.645 C88.467,17.290 88.717,16.942 89.033,16.627 ZM91.761,19.349 C92.825,18.287 93.191,16.770 93.316,15.909 C92.451,16.035 90.924,16.401 89.864,17.460 C88.805,18.516 88.437,20.036 88.310,20.900 C89.176,20.773 90.701,20.407 91.761,19.349 ZM91.761,25.869 C92.819,24.813 93.187,23.292 93.314,22.429 C92.449,22.555 90.923,22.922 89.864,23.980 C88.805,25.036 88.437,26.557 88.310,27.420 C89.176,27.294 90.701,26.927 91.761,25.869 ZM85.449,23.980 C84.383,22.916 82.861,22.552 81.998,22.427 C82.125,23.290 82.492,24.812 83.552,25.869 C84.612,26.927 86.137,27.294 87.002,27.420 C86.875,26.557 86.508,25.036 85.449,23.980 ZM85.449,17.460 C84.383,16.396 82.861,16.032 81.998,15.907 C82.125,16.770 82.492,18.292 83.552,19.349 C84.612,20.407 86.137,20.773 87.002,20.900 C86.875,20.036 86.508,18.516 85.449,17.460 ZM87.755,12.055 C87.722,12.061 87.690,12.075 87.656,12.075 C87.621,12.075 87.590,12.061 87.556,12.055 C87.588,12.131 87.626,12.208 87.656,12.283 C87.685,12.208 87.723,12.131 87.755,12.055 ZM81.998,9.387 C82.125,10.250 82.492,11.772 83.552,12.829 C84.612,13.887 86.137,14.254 87.002,14.380 C86.875,13.517 86.508,11.996 85.449,10.940 C84.383,9.876 82.861,9.512 81.998,9.387 ZM87.656,3.503 C87.134,4.202 86.315,5.538 86.315,7.033 C86.315,8.537 87.133,9.868 87.655,10.565 C88.177,9.866 88.997,8.530 88.997,7.033 C88.997,5.538 88.178,4.203 87.656,3.503 ZM91.761,12.829 C92.820,11.773 93.187,10.252 93.314,9.389 C92.449,9.515 90.924,9.882 89.864,10.940 C88.805,11.996 88.437,13.517 88.310,14.380 C89.176,14.254 90.701,13.887 91.761,12.829 Z" class="cls-4"/>
  </g>
  <g>
    <path d="M129.836,17.273 C128.537,15.314 127.850,13.065 127.850,10.769 C127.850,7.994 125.759,5.684 123.089,5.511 C121.660,5.417 120.302,5.905 119.263,6.883 C118.238,7.846 117.650,9.206 117.650,10.614 L117.650,10.768 C117.650,13.028 116.950,15.298 115.625,17.334 C114.583,18.935 114.118,20.799 114.282,22.724 C114.642,26.941 118.097,30.280 122.320,30.489 C122.466,30.496 122.610,30.500 122.755,30.500 C124.948,30.500 127.013,29.674 128.609,28.151 C130.312,26.526 131.250,24.333 131.250,21.977 C131.250,20.295 130.761,18.669 129.836,17.273 ZM122.750,26.017 C120.657,26.017 119.250,24.639 119.250,22.588 C119.250,20.430 120.747,18.017 122.750,18.017 C124.753,18.017 126.250,20.430 126.250,22.588 C126.250,24.639 124.844,26.017 122.750,26.017 Z" class="cls-1"/>
    <path d="M122.755,31.000 C122.602,31.000 122.450,30.996 122.296,30.988 C117.824,30.767 114.165,27.232 113.784,22.767 C113.611,20.729 114.103,18.755 115.207,17.061 C116.478,15.106 117.150,12.930 117.150,10.768 L117.150,10.614 C117.150,9.068 117.795,7.576 118.920,6.518 C120.063,5.445 121.555,4.913 123.122,5.012 C126.053,5.202 128.350,7.731 128.350,10.769 C128.350,12.966 129.008,15.120 130.252,16.997 L130.253,16.997 C131.232,18.475 131.750,20.197 131.750,21.977 C131.750,24.471 130.757,26.793 128.955,28.512 C127.274,30.117 125.073,31.000 122.755,31.000 ZM122.745,6.000 C121.572,6.000 120.468,6.436 119.605,7.247 C118.681,8.116 118.150,9.343 118.150,10.614 L118.150,10.768 C118.150,13.125 117.422,15.489 116.044,17.606 C115.063,19.113 114.626,20.868 114.780,22.682 C115.119,26.651 118.371,29.792 122.345,29.990 C124.535,30.085 126.671,29.309 128.264,27.790 C129.867,26.259 130.750,24.196 130.750,21.977 C130.750,20.394 130.290,18.863 129.419,17.549 C128.065,15.508 127.350,13.164 127.350,10.769 C127.350,8.256 125.464,6.166 123.057,6.010 C122.952,6.003 122.848,6.000 122.745,6.000 ZM122.750,27.017 C120.395,27.017 118.750,25.402 118.750,23.089 C118.750,20.690 120.393,18.017 122.750,18.017 C125.108,18.017 126.750,20.690 126.750,23.089 C126.750,25.402 125.105,27.017 122.750,27.017 ZM122.750,19.017 C121.061,19.017 119.750,21.206 119.750,23.089 C119.750,24.868 120.928,26.017 122.750,26.017 C124.573,26.017 125.750,24.868 125.750,23.089 C125.750,21.206 124.440,19.017 122.750,19.017 Z" class="cls-3"/>
  </g>
  <g>
    <path d="M168.042,18.351 C166.949,25.583 161.131,31.001 154.377,31.001 L151.324,31.001 C150.090,31.001 149.082,29.789 148.967,28.702 L148.824,28.543 C147.025,26.535 142.813,21.833 142.813,17.613 L142.813,8.021 C142.813,6.757 143.683,5.572 144.929,5.140 L150.762,3.158 C152.051,2.713 153.570,3.229 154.296,4.362 L155.659,6.031 C155.728,6.132 155.870,6.255 155.974,6.343 C156.284,6.609 156.669,6.939 156.669,7.402 L156.669,8.095 C156.669,9.466 154.428,11.345 153.156,11.345 L150.241,11.345 L150.241,12.537 C150.241,12.987 151.271,14.092 152.373,15.010 C153.580,12.691 155.845,11.069 158.529,10.813 C158.546,6.538 161.966,3.065 166.169,3.065 C170.384,3.065 173.813,6.555 173.813,10.845 C173.813,14.472 171.348,17.494 168.042,18.351 Z" class="cls-1"/>
    <path d="M167.975,18.380 C166.870,25.598 161.059,31.001 154.315,31.001 L151.261,31.001 C150.027,31.001 149.020,29.789 148.904,28.702 L148.762,28.543 C146.963,26.535 142.750,21.833 142.750,17.613 L142.750,8.021 C142.750,6.757 143.620,5.572 144.866,5.140 L150.699,3.158 C151.988,2.713 153.507,3.229 154.234,4.362 L155.596,6.031 C155.665,6.132 155.808,6.255 155.912,6.343 C156.221,6.609 156.607,6.939 156.607,7.402 L156.607,8.095 C156.607,9.466 154.365,11.345 153.093,11.345 L150.179,11.345 L150.179,12.537 C150.179,12.987 151.208,14.094 152.310,15.012 C153.516,12.692 155.782,11.069 158.466,10.813 C158.483,6.538 161.903,3.065 166.107,3.065 C170.321,3.065 173.750,6.555 173.750,10.845 C173.750,14.478 171.287,17.529 167.975,18.380 ZM166.107,4.065 C162.444,4.065 159.464,7.107 159.464,10.845 C159.464,11.951 159.989,13.171 160.384,13.993 C160.503,14.241 160.398,14.540 160.149,14.660 C159.898,14.779 159.602,14.674 159.482,14.425 C159.154,13.743 158.746,12.807 158.562,11.828 C155.063,12.167 152.372,15.167 152.372,18.883 C152.372,19.159 152.148,19.383 151.872,19.383 C151.595,19.383 151.372,19.159 151.372,18.883 C151.372,17.852 151.560,16.870 151.893,15.964 C150.989,15.241 149.179,13.655 149.179,12.537 L149.179,11.345 L148.250,11.345 C147.974,11.345 147.750,11.121 147.750,10.845 C147.750,10.677 147.838,10.536 147.965,10.445 C148.056,10.351 148.182,10.291 148.324,10.291 C150.405,10.291 151.099,9.523 151.099,7.349 C151.099,7.072 151.323,6.849 151.599,6.849 C151.876,6.849 152.099,7.072 152.099,7.349 C152.099,8.714 151.812,9.700 151.195,10.345 L153.093,10.345 C153.892,10.345 155.607,8.810 155.607,8.095 L155.607,7.402 C155.581,7.377 155.381,7.205 155.261,7.103 C155.078,6.945 154.904,6.797 154.788,6.617 L153.425,4.947 C152.916,4.159 151.874,3.808 151.023,4.104 L145.190,6.086 C144.357,6.375 143.750,7.189 143.750,8.021 L143.750,17.613 C143.750,21.451 147.784,25.953 149.507,27.876 L149.894,28.309 L149.894,28.499 C149.894,29.141 150.570,30.001 151.261,30.001 L154.315,30.001 C160.354,30.001 165.766,25.034 166.925,18.579 C166.656,18.608 166.383,18.625 166.107,18.625 C165.246,18.625 164.523,18.601 163.709,18.302 C163.450,18.207 163.317,17.920 163.412,17.661 C163.508,17.402 163.795,17.269 164.054,17.364 C164.714,17.607 165.322,17.625 166.107,17.625 C166.550,17.625 166.982,17.577 167.401,17.492 C167.407,17.490 167.414,17.491 167.421,17.490 C170.456,16.865 172.750,14.124 172.750,10.845 C172.750,7.107 169.770,4.065 166.107,4.065 ZM157.980,25.729 C157.704,25.729 157.480,25.505 157.480,25.229 C157.480,24.952 157.704,24.729 157.980,24.729 C160.062,24.729 161.755,22.960 161.755,20.786 C161.755,20.510 161.979,20.286 162.255,20.286 C162.532,20.286 162.755,20.510 162.755,20.786 C162.755,23.511 160.613,25.729 157.980,25.729 Z" class="cls-4"/>
  </g>
</svg>
